<?xml version="1.0" encoding="UTF-8"?>
<!DOCTYPE svg PUBLIC "-//W3C//DTD SVG 1.1//EN" "http://www.w3.org/Graphics/SVG/1.1/DTD/svg11.dtd">
<svg xmlns="http://www.w3.org/2000/svg" version="1.1" width="76px" height="76px" style="shape-rendering:geometricPrecision; text-rendering:geometricPrecision; image-rendering:optimizeQuality; fill-rule:evenodd; clip-rule:evenodd" xmlns:xlink="http://www.w3.org/1999/xlink">
<g><path style="opacity:1" fill="#bbbcbc" d="M -0.5,-0.5 C 2.83333,-0.5 6.16667,-0.5 9.5,-0.5C 9.51909,1.06025 9.85242,2.56025 10.5,4C 9.83333,5 9.16667,6 8.5,7C 8.58943,16.1159 8.75609,25.2826 9,34.5C 9.33333,35.8333 9.66667,37.1667 10,38.5C 12.4145,41.014 14.5812,43.6806 16.5,46.5C 15.3065,47.2719 14.3065,48.2719 13.5,49.5C 12.391,49.5569 11.391,49.8902 10.5,50.5C 9.5041,50.4142 8.67076,50.7476 8,51.5C 5.13935,56.5625 2.30602,61.5625 -0.5,66.5C -0.5,44.1667 -0.5,21.8333 -0.5,-0.5 Z"/></g>
<g><path style="opacity:1" fill="#c5c7c7" d="M 9.5,-0.5 C 17.1667,-0.5 24.8333,-0.5 32.5,-0.5C 31.9924,1.23267 31.159,1.566 30,0.5C 29.6466,1.67157 29.8132,2.83824 30.5,4C 30.2231,5.8916 29.2231,7.22493 27.5,8C 30.8758,9.89871 34.5425,10.732 38.5,10.5C 39.4916,10.3284 40.1583,10.6618 40.5,11.5C 36.1539,11.3343 31.8206,11.501 27.5,12C 23.4141,13.9135 21.0808,17.0802 20.5,21.5C 19.7347,24.0961 19.4013,26.7628 19.5,29.5C 21.1259,33.5455 22.4593,37.7122 23.5,42C 22.9293,43.5991 21.9293,44.7658 20.5,45.5C 19.8333,45.8333 19.1667,46.1667 18.5,46.5C 17.8333,46.5 17.1667,46.5 16.5,46.5C 14.5812,43.6806 12.4145,41.014 10,38.5C 9.66667,37.1667 9.33333,35.8333 9,34.5C 8.75609,25.2826 8.58943,16.1159 8.5,7C 9.16667,6 9.83333,5 10.5,4C 9.85242,2.56025 9.51909,1.06025 9.5,-0.5 Z"/></g>
<g><path style="opacity:1" fill="#cfd0d1" d="M 32.5,-0.5 C 43.1667,-0.5 53.8333,-0.5 64.5,-0.5C 65.4577,0.961599 66.6244,2.29493 68,3.5C 68.9095,9.21881 70.4095,14.7188 72.5,20C 71.1667,22 71.1667,24 72.5,26C 70.9167,31.0479 69.7501,36.2146 69,41.5C 67.0613,43.1937 65.2279,45.027 63.5,47C 61.5273,47.4955 59.5273,47.6621 57.5,47.5C 56.5,47.5 55.5,47.5 54.5,47.5C 52.1667,46.8333 49.8333,46.1667 47.5,45.5C 50.2301,44.1834 53.0635,44.1834 56,45.5C 56.2492,44.376 56.7492,43.376 57.5,42.5C 62.5104,41.3219 65.177,38.1552 65.5,33C 64.8333,32 64.1667,31 63.5,30C 64.9803,28.3411 66.3137,26.5077 67.5,24.5C 65.8609,18.7382 64.0275,13.4049 62,8.5C 61,7.16667 60,7.16667 59,8.5C 53.8201,1.72013 47.6535,0.720131 40.5,5.5C 39.8076,4.97473 39.3076,4.30806 39,3.5C 37.8333,6 36,7.83333 33.5,9C 35.3817,9.19808 37.0484,9.69808 38.5,10.5C 34.5425,10.732 30.8758,9.89871 27.5,8C 29.2231,7.22493 30.2231,5.8916 30.5,4C 29.8132,2.83824 29.6466,1.67157 30,0.5C 31.159,1.566 31.9924,1.23267 32.5,-0.5 Z"/></g>
<g><path style="opacity:1" fill="#c9c8c8" d="M 64.5,-0.5 C 68.1667,-0.5 71.8333,-0.5 75.5,-0.5C 75.5,24.8333 75.5,50.1667 75.5,75.5C 72.8333,75.5 70.1667,75.5 67.5,75.5C 66.5,74.1667 65.5,72.8333 64.5,71.5C 66.3936,72.0476 68.0603,73.0476 69.5,74.5C 70.4519,72.9547 70.7852,71.288 70.5,69.5C 70.5,68.1667 70.5,66.8333 70.5,65.5C 70.6495,64.448 70.4828,63.448 70,62.5C 67.5997,60.2707 65.433,57.9374 63.5,55.5C 62.4584,52.0699 60.4584,49.4033 57.5,47.5C 59.5273,47.6621 61.5273,47.4955 63.5,47C 65.2279,45.027 67.0613,43.1937 69,41.5C 69.7501,36.2146 70.9167,31.0479 72.5,26C 71.1667,24 71.1667,22 72.5,20C 70.4095,14.7188 68.9095,9.21881 68,3.5C 66.6244,2.29493 65.4577,0.961599 64.5,-0.5 Z"/></g>
<g><path style="opacity:1" fill="#d5d5d7" d="M 47.5,45.5 C 45.9102,45.3718 44.5769,44.7051 43.5,43.5C 44.3801,39.3098 45.7134,35.3098 47.5,31.5C 48.5236,26.4177 48.0236,21.4177 46,16.5C 44.5876,14.2488 42.7543,12.5821 40.5,11.5C 40.1583,10.6618 39.4916,10.3284 38.5,10.5C 37.0484,9.69808 35.3817,9.19808 33.5,9C 36,7.83333 37.8333,6 39,3.5C 39.3076,4.30806 39.8076,4.97473 40.5,5.5C 47.6535,0.720131 53.8201,1.72013 59,8.5C 60,7.16667 61,7.16667 62,8.5C 64.0275,13.4049 65.8609,18.7382 67.5,24.5C 66.3137,26.5077 64.9803,28.3411 63.5,30C 64.1667,31 64.8333,32 65.5,33C 65.177,38.1552 62.5104,41.3219 57.5,42.5C 56.7492,43.376 56.2492,44.376 56,45.5C 53.0635,44.1834 50.2301,44.1834 47.5,45.5 Z"/></g>
<g><path style="opacity:1" fill="#675044" d="M 40.5,11.5 C 42.7543,12.5821 44.5876,14.2488 46,16.5C 48.0236,21.4177 48.5236,26.4177 47.5,31.5C 45.349,27.7496 44.0157,23.7496 43.5,19.5C 39.4158,17.3279 35.0825,16.9945 30.5,18.5C 29.928,17.0267 29.0946,15.6934 28,14.5C 25.0084,16.3256 22.5084,18.6589 20.5,21.5C 21.0808,17.0802 23.4141,13.9135 27.5,12C 31.8206,11.501 36.1539,11.3343 40.5,11.5 Z"/></g>
<g><path style="opacity:1" fill="#412e29" d="M 30.5,18.5 C 29.8166,20.1765 28.4832,20.8432 26.5,20.5C 26.067,23.1656 25.567,25.8323 25,28.5C 23.1388,29.8729 21.3055,30.2062 19.5,29.5C 19.4013,26.7628 19.7347,24.0961 20.5,21.5C 22.5084,18.6589 25.0084,16.3256 28,14.5C 29.0946,15.6934 29.928,17.0267 30.5,18.5 Z"/></g>
<g><path style="opacity:1" fill="#87635d" d="M 43.5,19.5 C 39.095,19.0305 35.095,20.0305 31.5,22.5C 29.0144,23.4616 29.0144,24.2949 31.5,25C 31.1667,25.3333 30.8333,25.6667 30.5,26C 31.938,26.2189 33.2713,26.7189 34.5,27.5C 32.2573,28.4742 29.924,28.8076 27.5,28.5C 27.6657,32.8461 27.499,37.1794 27,41.5C 26.1237,43.6355 24.6237,44.9688 22.5,45.5C 21.8333,45.5 21.1667,45.5 20.5,45.5C 21.9293,44.7658 22.9293,43.5991 23.5,42C 22.4593,37.7122 21.1259,33.5455 19.5,29.5C 21.3055,30.2062 23.1388,29.8729 25,28.5C 25.567,25.8323 26.067,23.1656 26.5,20.5C 28.4832,20.8432 29.8166,20.1765 30.5,18.5C 35.0825,16.9945 39.4158,17.3279 43.5,19.5 Z"/></g>
<g><path style="opacity:1" fill="#a9766f" d="M 31.5,22.5 C 35.3812,24.5668 37.5479,27.9001 38,32.5C 38.8928,31.2888 39.7261,31.2888 40.5,32.5C 38.2351,33.6474 35.9018,33.8141 33.5,33C 33.9574,32.586 34.2907,32.086 34.5,31.5C 32.9547,30.5481 31.288,30.2148 29.5,30.5C 29.4208,31.9305 29.7542,33.2638 30.5,34.5C 33.9755,35.0796 37.3088,35.9129 40.5,37C 38.7505,38.3186 36.7505,38.8186 34.5,38.5C 34.5,39.8333 34.5,41.1667 34.5,42.5C 43.4636,41.8599 43.7969,43.1932 35.5,46.5C 33.1591,45.8178 30.8257,45.1511 28.5,44.5C 28.0548,47.3646 28.7215,49.8646 30.5,52C 29.1772,52.8159 28.5106,53.9826 28.5,55.5C 28.1667,55.5 27.8333,55.5 27.5,55.5C 27.2488,53.8297 26.5822,52.3297 25.5,51C 21.0804,50.6496 16.747,51.1496 12.5,52.5C 12.6107,51.8826 12.944,51.3826 13.5,51C 16.7928,50.1744 20.1262,49.6744 23.5,49.5C 23.5674,48.0413 23.2341,46.7079 22.5,45.5C 24.6237,44.9688 26.1237,43.6355 27,41.5C 27.499,37.1794 27.6657,32.8461 27.5,28.5C 29.924,28.8076 32.2573,28.4742 34.5,27.5C 33.2713,26.7189 31.938,26.2189 30.5,26C 30.8333,25.6667 31.1667,25.3333 31.5,25C 29.0144,24.2949 29.0144,23.4616 31.5,22.5 Z"/></g>
<g><path style="opacity:1" fill="#885055" d="M 16.5,46.5 C 17.1667,46.5 17.8333,46.5 18.5,46.5C 17.5144,48.4077 15.8477,49.4077 13.5,49.5C 14.3065,48.2719 15.3065,47.2719 16.5,46.5 Z"/></g>
<g><path style="opacity:1" fill="#701b38" d="M 54.5,47.5 C 55.5,47.5 56.5,47.5 57.5,47.5C 60.4584,49.4033 62.4584,52.0699 63.5,55.5C 59.4731,53.6416 55.1398,52.9749 50.5,53.5C 49.661,52.3588 48.9943,51.0255 48.5,49.5C 50.4951,48.7055 52.4951,48.0388 54.5,47.5 Z"/></g>
<g><path style="opacity:1" fill="#9a374f" d="M 20.5,45.5 C 21.1667,45.5 21.8333,45.5 22.5,45.5C 23.2341,46.7079 23.5674,48.0413 23.5,49.5C 20.1262,49.6744 16.7928,50.1744 13.5,51C 12.944,51.3826 12.6107,51.8826 12.5,52.5C 10.2918,53.8936 8.79181,55.8936 8,58.5C 7.60123,58.2716 7.43456,57.9382 7.5,57.5C 7.9255,54.8808 8.9255,52.5475 10.5,50.5C 11.391,49.8902 12.391,49.5569 13.5,49.5C 15.8477,49.4077 17.5144,48.4077 18.5,46.5C 19.1667,46.1667 19.8333,45.8333 20.5,45.5 Z"/></g>
<g><path style="opacity:1" fill="#c2609f" d="M 50.5,53.5 C 55.1398,52.9749 59.4731,53.6416 63.5,55.5C 65.433,57.9374 67.5997,60.2707 70,62.5C 70.4828,63.448 70.6495,64.448 70.5,65.5C 67.7029,63.205 65.0362,60.705 62.5,58C 58.5138,57.5012 54.5138,57.3345 50.5,57.5C 50.5,56.1667 50.5,54.8333 50.5,53.5 Z"/></g>
<g><path style="opacity:1" fill="#bb887e" d="M 43.5,19.5 C 44.0157,23.7496 45.349,27.7496 47.5,31.5C 45.7134,35.3098 44.3801,39.3098 43.5,43.5C 44.5769,44.7051 45.9102,45.3718 47.5,45.5C 49.8333,46.1667 52.1667,46.8333 54.5,47.5C 52.4951,48.0388 50.4951,48.7055 48.5,49.5C 48.9943,51.0255 49.661,52.3588 50.5,53.5C 50.5,54.8333 50.5,56.1667 50.5,57.5C 50.6085,59.5138 49.9418,61.1805 48.5,62.5C 43.7241,66.1213 38.7241,66.4546 33.5,63.5C 33.5,63.1667 33.5,62.8333 33.5,62.5C 32.8333,61.5 32.1667,60.5 31.5,59.5C 30.4884,58.1283 29.4884,56.795 28.5,55.5C 28.5106,53.9826 29.1772,52.8159 30.5,52C 28.7215,49.8646 28.0548,47.3646 28.5,44.5C 30.8257,45.1511 33.1591,45.8178 35.5,46.5C 43.7969,43.1932 43.4636,41.8599 34.5,42.5C 34.5,41.1667 34.5,39.8333 34.5,38.5C 36.7505,38.8186 38.7505,38.3186 40.5,37C 37.3088,35.9129 33.9755,35.0796 30.5,34.5C 29.7542,33.2638 29.4208,31.9305 29.5,30.5C 31.288,30.2148 32.9547,30.5481 34.5,31.5C 34.2907,32.086 33.9574,32.586 33.5,33C 35.9018,33.8141 38.2351,33.6474 40.5,32.5C 39.7261,31.2888 38.8928,31.2888 38,32.5C 37.5479,27.9001 35.3812,24.5668 31.5,22.5C 35.095,20.0305 39.095,19.0305 43.5,19.5 Z"/></g>
<g><path style="opacity:1" fill="#c3abbb" d="M 31.5,59.5 C 32.1667,60.5 32.8333,61.5 33.5,62.5C 28.706,61.9031 24.3727,62.5698 20.5,64.5C 19.8333,65.1667 19.1667,65.8333 18.5,66.5C 17.2006,64.8466 17.5339,63.3466 19.5,62C 23.3462,60.464 27.3462,59.6307 31.5,59.5 Z"/></g>
<g><path style="opacity:1" fill="#6d153b" d="M 27.5,55.5 C 24.4377,55.8442 21.4377,56.5109 18.5,57.5C 15.5109,62.4679 13.5109,67.8012 12.5,73.5C 9.56959,73.2051 7.56959,71.7051 6.5,69C 7.51656,63.0728 9.51656,57.5728 12.5,52.5C 16.747,51.1496 21.0804,50.6496 25.5,51C 26.5822,52.3297 27.2488,53.8297 27.5,55.5 Z"/></g>
<g><path style="opacity:1" fill="#9887b9" d="M 33.5,62.5 C 33.5,62.8333 33.5,63.1667 33.5,63.5C 29.1018,63.2941 24.7685,63.6274 20.5,64.5C 24.3727,62.5698 28.706,61.9031 33.5,62.5 Z"/></g>
<g><path style="opacity:1" fill="#b493b1" d="M 50.5,57.5 C 54.5138,57.3345 58.5138,57.5012 62.5,58C 65.0362,60.705 67.7029,63.205 70.5,65.5C 70.5,66.8333 70.5,68.1667 70.5,69.5C 67.3796,66.8821 64.3796,64.0487 61.5,61C 57.0156,60.269 52.6822,60.769 48.5,62.5C 49.9418,61.1805 50.6085,59.5138 50.5,57.5 Z"/></g>
<g><path style="opacity:1" fill="#491e27" d="M 10.5,50.5 C 8.9255,52.5475 7.9255,54.8808 7.5,57.5C 6.67457,60.3718 5.84124,63.3718 5,66.5C 3.54905,68.4641 1.71572,69.7974 -0.5,70.5C -0.5,69.1667 -0.5,67.8333 -0.5,66.5C 2.30602,61.5625 5.13935,56.5625 8,51.5C 8.67076,50.7476 9.5041,50.4142 10.5,50.5 Z"/></g>
<g><path style="opacity:1" fill="#d04488" d="M 70.5,69.5 C 70.7852,71.288 70.4519,72.9547 69.5,74.5C 68.0603,73.0476 66.3936,72.0476 64.5,71.5C 62.283,70.6314 59.9496,70.298 57.5,70.5C 59.2922,69.6909 61.2922,69.1909 63.5,69C 64.7996,67.4212 64.4663,66.2545 62.5,65.5C 57.6866,64.5279 53.02,65.1946 48.5,67.5C 40.355,68.0735 32.355,68.7401 24.5,69.5C 22.5,70.1667 20.5,70.8333 18.5,71.5C 18.5,69.8333 18.5,68.1667 18.5,66.5C 19.1667,65.8333 19.8333,65.1667 20.5,64.5C 24.7685,63.6274 29.1018,63.2941 33.5,63.5C 38.7241,66.4546 43.7241,66.1213 48.5,62.5C 52.6822,60.769 57.0156,60.269 61.5,61C 64.3796,64.0487 67.3796,66.8821 70.5,69.5 Z"/></g>
<g><path style="opacity:1" fill="#b7978d" d="M 62.5,65.5 C 58.0363,66.6437 53.3696,67.3104 48.5,67.5C 53.02,65.1946 57.6866,64.5279 62.5,65.5 Z"/></g>
<g><path style="opacity:1" fill="#976f6a" d="M 12.5,52.5 C 9.51656,57.5728 7.51656,63.0728 6.5,69C 7.56959,71.7051 9.56959,73.2051 12.5,73.5C 12.8333,74.1667 13.1667,74.8333 13.5,75.5C 8.83333,75.5 4.16667,75.5 -0.5,75.5C -0.5,73.8333 -0.5,72.1667 -0.5,70.5C 1.71572,69.7974 3.54905,68.4641 5,66.5C 5.84124,63.3718 6.67457,60.3718 7.5,57.5C 7.43456,57.9382 7.60123,58.2716 8,58.5C 8.79181,55.8936 10.2918,53.8936 12.5,52.5 Z"/></g>
<g><path style="opacity:1" fill="#ca65a8" d="M 27.5,55.5 C 27.8333,55.5 28.1667,55.5 28.5,55.5C 29.4884,56.795 30.4884,58.1283 31.5,59.5C 27.3462,59.6307 23.3462,60.464 19.5,62C 17.5339,63.3466 17.2006,64.8466 18.5,66.5C 18.5,68.1667 18.5,69.8333 18.5,71.5C 18.7352,72.0967 19.2352,72.4301 20,72.5C 22.1845,72.3023 23.6845,71.3023 24.5,69.5C 32.355,68.7401 40.355,68.0735 48.5,67.5C 53.3696,67.3104 58.0363,66.6437 62.5,65.5C 64.4663,66.2545 64.7996,67.4212 63.5,69C 61.2922,69.1909 59.2922,69.6909 57.5,70.5C 45.7513,72.4968 34.0847,74.1635 22.5,75.5C 19.5,75.5 16.5,75.5 13.5,75.5C 13.1667,74.8333 12.8333,74.1667 12.5,73.5C 13.5109,67.8012 15.5109,62.4679 18.5,57.5C 21.4377,56.5109 24.4377,55.8442 27.5,55.5 Z"/></g>
<g><path style="opacity:1" fill="#b99ea0" d="M 24.5,69.5 C 23.6845,71.3023 22.1845,72.3023 20,72.5C 19.2352,72.4301 18.7352,72.0967 18.5,71.5C 20.5,70.8333 22.5,70.1667 24.5,69.5 Z"/></g>
<g><path style="opacity:1" fill="#811548" d="M 57.5,70.5 C 59.9496,70.298 62.283,70.6314 64.5,71.5C 65.5,72.8333 66.5,74.1667 67.5,75.5C 52.5,75.5 37.5,75.5 22.5,75.5C 34.0847,74.1635 45.7513,72.4968 57.5,70.5 Z"/></g>
</svg>
