<?xml version="1.0" encoding="UTF-8"?>
<!DOCTYPE svg PUBLIC "-//W3C//DTD SVG 1.1//EN" "http://www.w3.org/Graphics/SVG/1.1/DTD/svg11.dtd">
<svg xmlns="http://www.w3.org/2000/svg" version="1.1" width="76px" height="76px" style="shape-rendering:geometricPrecision; text-rendering:geometricPrecision; image-rendering:optimizeQuality; fill-rule:evenodd; clip-rule:evenodd" xmlns:xlink="http://www.w3.org/1999/xlink">
<g><path style="opacity:1" fill="#59554e" d="M -0.5,-0.5 C 8.16667,-0.5 16.8333,-0.5 25.5,-0.5C 25.6106,1.64769 24.944,1.98103 23.5,0.5C 22.2299,1.56218 21.0633,2.56218 20,3.5C 19.3457,2.30441 18.8457,2.30441 18.5,3.5C 19.6888,4.42869 21.0222,4.76202 22.5,4.5C 22.8333,6.5 23.1667,8.5 23.5,10.5C 23.2172,11.2891 22.7172,11.9558 22,12.5C 21.501,16.8206 21.3343,21.1539 21.5,25.5C 21.3379,27.5273 21.5045,29.5273 22,31.5C 23.9521,34.9674 25.4521,38.634 26.5,42.5C 26.5,42.8333 26.5,43.1667 26.5,43.5C 25.1667,44.1667 24.1667,45.1667 23.5,46.5C 20.911,46.461 18.911,47.461 17.5,49.5C 12.407,49.3882 12.407,48.5549 17.5,47C 16.062,46.7811 14.7287,46.2811 13.5,45.5C 14.727,44.4096 15.5604,43.0762 16,41.5C 16.3333,42.1667 16.6667,42.8333 17,43.5C 17.6449,42.354 18.4783,41.354 19.5,40.5C 17.0197,39.5846 16.3531,38.0846 17.5,36C 15.7769,35.2249 14.7769,33.8916 14.5,32C 15.8502,29.7895 16.8502,27.4562 17.5,25C 16.5025,21.4242 16.1691,17.5908 16.5,13.5C 15.2713,12.7189 13.938,12.2189 12.5,12C 12.8333,11.6667 13.1667,11.3333 13.5,11C 12.5838,10.6258 11.7504,10.1258 11,9.5C 9.93222,13.729 7.93222,17.3956 5,20.5C 3.31475,18.0122 1.98142,18.3455 1,21.5C 0.617425,20.944 0.117425,20.6107 -0.5,20.5C -0.5,13.5 -0.5,6.5 -0.5,-0.5 Z"/></g>
<g><path style="opacity:1" fill="#5c574b" d="M 25.5,-0.5 C 42.1667,-0.5 58.8333,-0.5 75.5,-0.5C 75.5,3.16667 75.5,6.83333 75.5,10.5C 70.0593,10.4707 64.8926,10.804 60,11.5C 59.3076,10.9747 58.8076,10.3081 58.5,9.5C 63.9981,6.85262 63.8314,6.18596 58,7.5C 56.1061,7.46061 55.1061,6.79394 55,5.5C 54.5,5.83333 54,6.16667 53.5,6.5C 54.0167,12.115 54.6834,17.9483 55.5,24C 54.8174,26.4243 54.4841,28.7577 54.5,31C 55.0085,32.1685 55.8419,33.0019 57,33.5C 56.8516,34.825 57.0183,35.9916 57.5,37C 56.1281,37.6309 54.7948,38.2975 53.5,39C 52.9612,41.6461 52.6279,44.1461 52.5,46.5C 51.8333,45.1667 50.8333,44.1667 49.5,43.5C 49.5,43.1667 49.5,42.8333 49.5,42.5C 50.5585,41.3998 51.3918,40.0664 52,38.5C 52.8792,30.2695 52.3792,22.2695 50.5,14.5C 48.4305,10.5932 45.4305,7.4265 41.5,5C 34.5795,3.36305 28.9129,5.19639 24.5,10.5C 24.1667,10.5 23.8333,10.5 23.5,10.5C 23.1667,8.5 22.8333,6.5 22.5,4.5C 21.0222,4.76202 19.6888,4.42869 18.5,3.5C 18.8457,2.30441 19.3457,2.30441 20,3.5C 21.0633,2.56218 22.2299,1.56218 23.5,0.5C 24.944,1.98103 25.6106,1.64769 25.5,-0.5 Z"/></g>
<g><path style="opacity:1" fill="#5f5c4d" d="M 75.5,10.5 C 75.5,27.5 75.5,44.5 75.5,61.5C 73.6011,62.045 71.9345,61.3784 70.5,59.5C 71.4972,59.5299 72.1639,59.0299 72.5,58C 72.0217,56.6974 71.355,55.5307 70.5,54.5C 66.8971,51.0267 62.5637,49.86 57.5,51C 58.2524,51.6708 58.5858,52.5041 58.5,53.5C 58.19,54.7383 57.69,54.7383 57,53.5C 55.9879,50.7982 54.4879,48.4649 52.5,46.5C 52.6279,44.1461 52.9612,41.6461 53.5,39C 54.7948,38.2975 56.1281,37.6309 57.5,37C 57.0183,35.9916 56.8516,34.825 57,33.5C 55.8419,33.0019 55.0085,32.1685 54.5,31C 54.4841,28.7577 54.8174,26.4243 55.5,24C 54.6834,17.9483 54.0167,12.115 53.5,6.5C 54,6.16667 54.5,5.83333 55,5.5C 55.1061,6.79394 56.1061,7.46061 58,7.5C 63.8314,6.18596 63.9981,6.85262 58.5,9.5C 58.8076,10.3081 59.3076,10.9747 60,11.5C 64.8926,10.804 70.0593,10.4707 75.5,10.5 Z"/></g>
<g><path style="opacity:1" fill="#8c6140" d="M 50.5,14.5 C 49.0384,13.5423 47.7051,12.3756 46.5,11C 44.1152,10.4436 41.7819,10.6103 39.5,11.5C 36.1667,11.5 32.8333,11.5 29.5,11.5C 28.3482,9.31154 26.8482,9.31154 25,11.5C 24.6012,11.2716 24.4346,10.9382 24.5,10.5C 28.9129,5.19639 34.5795,3.36305 41.5,5C 45.4305,7.4265 48.4305,10.5932 50.5,14.5 Z"/></g>
<g><path style="opacity:1" fill="#5a5752" d="M 17.5,49.5 C 15.9275,50.6873 14.2608,51.6873 12.5,52.5C 9.34477,53.4423 6.34477,54.7757 3.5,56.5C 1.65353,58.0301 0.653535,60.0301 0.5,62.5C 0.166667,62.5 -0.166667,62.5 -0.5,62.5C -0.5,48.5 -0.5,34.5 -0.5,20.5C 0.117425,20.6107 0.617425,20.944 1,21.5C 1.98142,18.3455 3.31475,18.0122 5,20.5C 7.93222,17.3956 9.93222,13.729 11,9.5C 11.7504,10.1258 12.5838,10.6258 13.5,11C 13.1667,11.3333 12.8333,11.6667 12.5,12C 13.938,12.2189 15.2713,12.7189 16.5,13.5C 16.1691,17.5908 16.5025,21.4242 17.5,25C 16.8502,27.4562 15.8502,29.7895 14.5,32C 14.7769,33.8916 15.7769,35.2249 17.5,36C 16.3531,38.0846 17.0197,39.5846 19.5,40.5C 18.4783,41.354 17.6449,42.354 17,43.5C 16.6667,42.8333 16.3333,42.1667 16,41.5C 15.5604,43.0762 14.727,44.4096 13.5,45.5C 14.7287,46.2811 16.062,46.7811 17.5,47C 12.407,48.5549 12.407,49.3882 17.5,49.5 Z"/></g>
<g><path style="opacity:1" fill="#a38070" d="M 29.5,11.5 C 29.5,11.8333 29.5,12.1667 29.5,12.5C 24.181,14.5254 22.0143,18.5254 23,24.5C 22.6174,25.056 22.1174,25.3893 21.5,25.5C 21.3343,21.1539 21.501,16.8206 22,12.5C 22.7172,11.9558 23.2172,11.2891 23.5,10.5C 23.8333,10.5 24.1667,10.5 24.5,10.5C 24.4346,10.9382 24.6012,11.2716 25,11.5C 26.8482,9.31154 28.3482,9.31154 29.5,11.5 Z"/></g>
<g><path style="opacity:1" fill="#cf8778" d="M 29.5,12.5 C 29.5,12.1667 29.5,11.8333 29.5,11.5C 32.8333,11.5 36.1667,11.5 39.5,11.5C 40.0518,15.2771 42.0518,17.9438 45.5,19.5C 44.019,20.4212 42.6856,21.5879 41.5,23C 40.7873,26.4874 40.1207,29.9874 39.5,33.5C 38.9904,35.0879 37.9904,36.2545 36.5,37C 38.4727,37.4955 40.4727,37.6621 42.5,37.5C 42.9746,40.0821 42.3079,42.0821 40.5,43.5C 39.962,41.8828 39.6287,40.2161 39.5,38.5C 36.9512,38.4411 34.9512,39.4411 33.5,41.5C 32.5481,39.9547 32.2148,38.288 32.5,36.5C 32.5,34.5 32.5,32.5 32.5,30.5C 31.1667,30.5 29.8333,30.5 28.5,30.5C 28.2479,27.7562 28.9145,25.2562 30.5,23C 30.3552,22.228 30.0219,21.5613 29.5,21C 30.8333,20.6667 32.1667,20.3333 33.5,20C 28.1597,18.902 27.4931,16.7353 31.5,13.5C 31.0431,12.7025 30.3764,12.3691 29.5,12.5 Z"/></g>
<g><path style="opacity:1" fill="#cd8969" d="M 50.5,14.5 C 52.3792,22.2695 52.8792,30.2695 52,38.5C 51.3918,40.0664 50.5585,41.3998 49.5,42.5C 45.6391,43.3499 42.4724,45.3499 40,48.5C 39.6012,48.2716 39.4346,47.9382 39.5,47.5C 39.4326,46.0413 39.7659,44.7079 40.5,43.5C 42.3079,42.0821 42.9746,40.0821 42.5,37.5C 43.209,36.596 44.209,36.2627 45.5,36.5C 45.6227,33.4121 44.6227,30.7454 42.5,28.5C 44.6239,27.542 46.6239,26.3754 48.5,25C 47.8333,23.6667 46.8333,22.6667 45.5,22C 48.1125,20.9288 48.1125,20.0955 45.5,19.5C 42.0518,17.9438 40.0518,15.2771 39.5,11.5C 41.7819,10.6103 44.1152,10.4436 46.5,11C 47.7051,12.3756 49.0384,13.5423 50.5,14.5 Z"/></g>
<g><path style="opacity:1" fill="#b56852" d="M 45.5,19.5 C 48.1125,20.0955 48.1125,20.9288 45.5,22C 46.8333,22.6667 47.8333,23.6667 48.5,25C 46.6239,26.3754 44.6239,27.542 42.5,28.5C 44.6227,30.7454 45.6227,33.4121 45.5,36.5C 44.209,36.2627 43.209,36.596 42.5,37.5C 40.4727,37.6621 38.4727,37.4955 36.5,37C 37.9904,36.2545 38.9904,35.0879 39.5,33.5C 40.1207,29.9874 40.7873,26.4874 41.5,23C 42.6856,21.5879 44.019,20.4212 45.5,19.5 Z"/></g>
<g><path style="opacity:1" fill="#d49693" d="M 29.5,12.5 C 30.3764,12.3691 31.0431,12.7025 31.5,13.5C 27.4931,16.7353 28.1597,18.902 33.5,20C 32.1667,20.3333 30.8333,20.6667 29.5,21C 30.0219,21.5613 30.3552,22.228 30.5,23C 28.9145,25.2562 28.2479,27.7562 28.5,30.5C 29.8333,30.5 31.1667,30.5 32.5,30.5C 32.5,32.5 32.5,34.5 32.5,36.5C 31.6981,37.9516 31.1981,39.6183 31,41.5C 30.6667,41.1667 30.3333,40.8333 30,40.5C 29.1841,41.8228 28.0174,42.4894 26.5,42.5C 25.4521,38.634 23.9521,34.9674 22,31.5C 21.5045,29.5273 21.3379,27.5273 21.5,25.5C 22.1174,25.3893 22.6174,25.056 23,24.5C 22.0143,18.5254 24.181,14.5254 29.5,12.5 Z"/></g>
<g><path style="opacity:1" fill="#c48f7e" d="M 32.5,36.5 C 32.2148,38.288 32.5481,39.9547 33.5,41.5C 34.9512,39.4411 36.9512,38.4411 39.5,38.5C 39.6287,40.2161 39.962,41.8828 40.5,43.5C 39.7659,44.7079 39.4326,46.0413 39.5,47.5C 37.712,47.2148 36.0453,47.5481 34.5,48.5C 35.2458,49.7362 35.5792,51.0695 35.5,52.5C 32.1395,49.8062 29.1395,46.8062 26.5,43.5C 26.5,43.1667 26.5,42.8333 26.5,42.5C 28.0174,42.4894 29.1841,41.8228 30,40.5C 30.3333,40.8333 30.6667,41.1667 31,41.5C 31.1981,39.6183 31.6981,37.9516 32.5,36.5 Z"/></g>
<g><path style="opacity:1" fill="#7e7f8f" d="M 23.5,46.5 C 23.8925,48.2838 24.5592,49.9505 25.5,51.5C 25.5,51.8333 25.5,52.1667 25.5,52.5C 23.8333,52.5 22.1667,52.5 20.5,52.5C 21.3984,51.8423 22.3984,51.1757 23.5,50.5C 23.3333,50.1667 23.1667,49.8333 23,49.5C 21.2245,48.4639 19.3911,48.4639 17.5,49.5C 18.911,47.461 20.911,46.461 23.5,46.5 Z"/></g>
<g><path style="opacity:1" fill="#32344b" d="M 20.5,52.5 C 17.8333,52.5 15.1667,52.5 12.5,52.5C 14.2608,51.6873 15.9275,50.6873 17.5,49.5C 19.3911,48.4639 21.2245,48.4639 23,49.5C 23.1667,49.8333 23.3333,50.1667 23.5,50.5C 22.3984,51.1757 21.3984,51.8423 20.5,52.5 Z"/></g>
<g><path style="opacity:1" fill="#313357" d="M 26.5,43.5 C 29.1395,46.8062 32.1395,49.8062 35.5,52.5C 35.5,53.1667 35.5,53.8333 35.5,54.5C 34.7354,54.9234 33.9021,55.2568 33,55.5C 30.8526,53.5225 28.3526,52.1892 25.5,51.5C 24.5592,49.9505 23.8925,48.2838 23.5,46.5C 24.1667,45.1667 25.1667,44.1667 26.5,43.5 Z"/></g>
<g><path style="opacity:1" fill="#d4cbbc" d="M 70.5,54.5 C 66.5662,53.6403 62.5662,53.307 58.5,53.5C 58.5858,52.5041 58.2524,51.6708 57.5,51C 62.5637,49.86 66.8971,51.0267 70.5,54.5 Z"/></g>
<g><path style="opacity:1" fill="#b5785c" d="M 49.5,42.5 C 49.5,42.8333 49.5,43.1667 49.5,43.5C 49.59,45.6963 49.9233,47.863 50.5,50C 48.9422,52.9567 47.2756,55.79 45.5,58.5C 43.3146,58.2964 41.3146,57.6298 39.5,56.5C 37.9382,56.2671 36.6049,55.6005 35.5,54.5C 35.5,53.8333 35.5,53.1667 35.5,52.5C 35.5792,51.0695 35.2458,49.7362 34.5,48.5C 36.0453,47.5481 37.712,47.2148 39.5,47.5C 39.4346,47.9382 39.6012,48.2716 40,48.5C 42.4724,45.3499 45.6391,43.3499 49.5,42.5 Z"/></g>
<g><path style="opacity:1" fill="#cac6cb" d="M 12.5,52.5 C 15.1667,52.5 17.8333,52.5 20.5,52.5C 22.1667,52.5 23.8333,52.5 25.5,52.5C 25.5858,53.4959 25.2524,54.3292 24.5,55C 19.118,55.2648 13.7846,55.7648 8.5,56.5C 6.83333,56.5 5.16667,56.5 3.5,56.5C 6.34477,54.7757 9.34477,53.4423 12.5,52.5 Z"/></g>
<g><path style="opacity:1" fill="#3f414f" d="M 49.5,43.5 C 50.8333,44.1667 51.8333,45.1667 52.5,46.5C 54.4879,48.4649 55.9879,50.7982 57,53.5C 57.69,54.7383 58.19,54.7383 58.5,53.5C 62.5662,53.307 66.5662,53.6403 70.5,54.5C 71.355,55.5307 72.0217,56.6974 72.5,58C 72.1639,59.0299 71.4972,59.5299 70.5,59.5C 63.5352,58.6591 56.5352,58.3257 49.5,58.5C 48.1667,58.5 46.8333,58.5 45.5,58.5C 47.2756,55.79 48.9422,52.9567 50.5,50C 49.9233,47.863 49.59,45.6963 49.5,43.5 Z"/></g>
<g><path style="opacity:1" fill="#c4c3c3" d="M 50.5,54.5 C 51.4971,53.2875 52.4971,53.4542 53.5,55C 52.4232,55.4696 51.4232,55.3029 50.5,54.5 Z"/></g>
<g><path style="opacity:1" fill="#2e3149" d="M 25.5,51.5 C 28.3526,52.1892 30.8526,53.5225 33,55.5C 33.9021,55.2568 34.7354,54.9234 35.5,54.5C 36.6049,55.6005 37.9382,56.2671 39.5,56.5C 39.6107,57.1174 39.944,57.6174 40.5,58C 38.6183,58.1981 36.9516,58.6981 35.5,59.5C 30.4932,59.7509 25.4932,60.0843 20.5,60.5C 17.5525,60.2229 14.7191,60.5562 12,61.5C 10.6134,59.9535 9.44672,58.2868 8.5,56.5C 13.7846,55.7648 19.118,55.2648 24.5,55C 25.2524,54.3292 25.5858,53.4959 25.5,52.5C 25.5,52.1667 25.5,51.8333 25.5,51.5 Z"/></g>
<g><path style="opacity:1" fill="#3a4063" d="M 3.5,56.5 C 5.16667,56.5 6.83333,56.5 8.5,56.5C 9.44672,58.2868 10.6134,59.9535 12,61.5C 14.7191,60.5562 17.5525,60.2229 20.5,60.5C 16.5468,61.1497 12.7135,62.4831 9,64.5C 6.20939,63.5938 3.37606,62.9272 0.5,62.5C 0.653535,60.0301 1.65353,58.0301 3.5,56.5 Z"/></g>
<g><path style="opacity:1" fill="#a29d9f" d="M 39.5,56.5 C 41.3146,57.6298 43.3146,58.2964 45.5,58.5C 46.8333,58.5 48.1667,58.5 49.5,58.5C 47.1954,59.3229 45.1954,60.6563 43.5,62.5C 42.8333,62.5 42.5,62.8333 42.5,63.5C 40.8333,63.5 39.1667,63.5 37.5,63.5C 38.5676,62.5655 39.901,62.2322 41.5,62.5C 41.5,61.5 41.5,60.5 41.5,59.5C 39.5,59.5 37.5,59.5 35.5,59.5C 36.9516,58.6981 38.6183,58.1981 40.5,58C 39.944,57.6174 39.6107,57.1174 39.5,56.5 Z"/></g>
<g><path style="opacity:1" fill="#e2dccd" d="M 49.5,58.5 C 56.5352,58.3257 63.5352,58.6591 70.5,59.5C 71.9345,61.3784 73.6011,62.045 75.5,61.5C 75.5,62.8333 75.5,64.1667 75.5,65.5C 74.5416,65.9528 73.7083,66.6195 73,67.5C 72.6437,64.2712 70.8103,62.7712 67.5,63C 59.5069,62.5003 51.5069,62.3336 43.5,62.5C 45.1954,60.6563 47.1954,59.3229 49.5,58.5 Z"/></g>
<g><path style="opacity:1" fill="#e0dcde" d="M 35.5,59.5 C 37.5,59.5 39.5,59.5 41.5,59.5C 41.5,60.5 41.5,61.5 41.5,62.5C 39.901,62.2322 38.5676,62.5655 37.5,63.5C 28.7564,63.8462 20.0897,64.8462 11.5,66.5C 11.2627,67.791 11.596,68.791 12.5,69.5C 12.631,70.2389 12.4643,70.9056 12,71.5C 8.0195,69.629 3.85284,68.2957 -0.5,67.5C -0.5,65.8333 -0.5,64.1667 -0.5,62.5C -0.166667,62.5 0.166667,62.5 0.5,62.5C 3.37606,62.9272 6.20939,63.5938 9,64.5C 12.7135,62.4831 16.5468,61.1497 20.5,60.5C 25.4932,60.0843 30.4932,59.7509 35.5,59.5 Z"/></g>
<g><path style="opacity:1" fill="#444b5e" d="M 43.5,62.5 C 51.5069,62.3336 59.5069,62.5003 67.5,63C 70.8103,62.7712 72.6437,64.2712 73,67.5C 73.7083,66.6195 74.5416,65.9528 75.5,65.5C 75.5,68.1667 75.5,70.8333 75.5,73.5C 74.609,74.1098 73.609,74.4431 72.5,74.5C 72.7678,72.901 72.4345,71.5676 71.5,70.5C 67.2648,69.564 62.9315,69.2307 58.5,69.5C 56.1667,69.5 53.8333,69.5 51.5,69.5C 51.5,67.5 51.5,65.5 51.5,63.5C 48.1897,63.6613 45.1897,63.6613 42.5,63.5C 42.5,62.8333 42.8333,62.5 43.5,62.5 Z"/></g>
<g><path style="opacity:1" fill="#3b415a" d="M 37.5,63.5 C 39.1667,63.5 40.8333,63.5 42.5,63.5C 45.1897,63.6613 48.1897,63.6613 51.5,63.5C 51.5,65.5 51.5,67.5 51.5,69.5C 48.6146,69.1936 45.9479,69.5269 43.5,70.5C 41.5,70.5 39.5,70.5 37.5,70.5C 32.8075,70.5401 28.1408,70.8734 23.5,71.5C 24.3622,70.6098 24.8622,69.6098 25,68.5C 23.5618,67.2815 21.8951,66.6148 20,66.5C 16.9211,66.5808 14.4211,67.5808 12.5,69.5C 11.596,68.791 11.2627,67.791 11.5,66.5C 20.0897,64.8462 28.7564,63.8462 37.5,63.5 Z"/></g>
<g><path style="opacity:1" fill="#f3efde" d="M 58.5,69.5 C 62.9315,69.2307 67.2648,69.564 71.5,70.5C 71.5,71.5 71.5,72.5 71.5,73.5C 66.1667,73.5 60.8333,73.5 55.5,73.5C 54.448,73.6495 53.448,73.4828 52.5,73C 54.4368,71.5382 56.4368,70.3715 58.5,69.5 Z"/></g>
<g><path style="opacity:1" fill="#e1dede" d="M 51.5,69.5 C 53.8333,69.5 56.1667,69.5 58.5,69.5C 56.4368,70.3715 54.4368,71.5382 52.5,73C 53.448,73.4828 54.448,73.6495 55.5,73.5C 53.8333,74.1667 52.1667,74.8333 50.5,75.5C 38.1667,75.5 25.8333,75.5 13.5,75.5C 16.7649,73.9679 20.0982,72.6346 23.5,71.5C 28.1408,70.8734 32.8075,70.5401 37.5,70.5C 26.4173,73.8949 26.9173,75.2282 39,74.5C 42.9503,74.5933 46.7836,74.0933 50.5,73C 49.0069,71.6319 47.5069,71.4652 46,72.5C 45.0053,71.9341 44.172,71.2674 43.5,70.5C 45.9479,69.5269 48.6146,69.1936 51.5,69.5 Z"/></g>
<g><path style="opacity:1" fill="#f1ebde" d="M 37.5,70.5 C 39.5,70.5 41.5,70.5 43.5,70.5C 44.172,71.2674 45.0053,71.9341 46,72.5C 47.5069,71.4652 49.0069,71.6319 50.5,73C 46.7836,74.0933 42.9503,74.5933 39,74.5C 26.9173,75.2282 26.4173,73.8949 37.5,70.5 Z"/></g>
<g><path style="opacity:1" fill="#2f385c" d="M 23.5,71.5 C 20.0982,72.6346 16.7649,73.9679 13.5,75.5C 8.83333,75.5 4.16667,75.5 -0.5,75.5C -0.5,72.8333 -0.5,70.1667 -0.5,67.5C 3.85284,68.2957 8.0195,69.629 12,71.5C 12.4643,70.9056 12.631,70.2389 12.5,69.5C 14.4211,67.5808 16.9211,66.5808 20,66.5C 21.8951,66.6148 23.5618,67.2815 25,68.5C 24.8622,69.6098 24.3622,70.6098 23.5,71.5 Z"/></g>
<g><path style="opacity:1" fill="#87898c" d="M 71.5,70.5 C 72.4345,71.5676 72.7678,72.901 72.5,74.5C 72.5,74.8333 72.5,75.1667 72.5,75.5C 65.1667,75.5 57.8333,75.5 50.5,75.5C 52.1667,74.8333 53.8333,74.1667 55.5,73.5C 60.8333,73.5 66.1667,73.5 71.5,73.5C 71.5,72.5 71.5,71.5 71.5,70.5 Z"/></g>
<g><path style="opacity:1" fill="#d5ceba" d="M 75.5,73.5 C 75.5,74.1667 75.5,74.8333 75.5,75.5C 74.5,75.5 73.5,75.5 72.5,75.5C 72.5,75.1667 72.5,74.8333 72.5,74.5C 73.609,74.4431 74.609,74.1098 75.5,73.5 Z"/></g>
</svg>
