<?xml version="1.0" encoding="UTF-8"?>
<!DOCTYPE svg PUBLIC "-//W3C//DTD SVG 1.1//EN" "http://www.w3.org/Graphics/SVG/1.1/DTD/svg11.dtd">
<svg xmlns="http://www.w3.org/2000/svg" version="1.1" width="76px" height="76px" style="shape-rendering:geometricPrecision; text-rendering:geometricPrecision; image-rendering:optimizeQuality; fill-rule:evenodd; clip-rule:evenodd" xmlns:xlink="http://www.w3.org/1999/xlink">
<g><path style="opacity:1" fill="#b5b5b3" d="M -0.5,-0.5 C 10.1667,-0.5 20.8333,-0.5 31.5,-0.5C 27.3209,2.02679 23.8209,5.36013 21,9.5C 20.5012,13.4862 20.3345,17.4862 20.5,21.5C 20.5,24.1667 20.5,26.8333 20.5,29.5C 20.5,30.5 20.5,31.5 20.5,32.5C 19.2438,32.5386 18.2438,32.0386 17.5,31C 18.8038,25.5951 19.3038,20.0951 19,14.5C 14.642,16.4522 14.4754,17.7856 18.5,18.5C 16.8409,19.8168 15.6743,21.4835 15,23.5C 13.3301,18.4083 12.4968,18.4083 12.5,23.5C 8.16667,23.5 3.83333,23.5 -0.5,23.5C -0.5,15.5 -0.5,7.5 -0.5,-0.5 Z"/></g>
<g><path style="opacity:1" fill="#b2b5b5" d="M 46.5,-0.5 C 56.1667,-0.5 65.8333,-0.5 75.5,-0.5C 75.5,12.8333 75.5,26.1667 75.5,39.5C 71.112,41.3866 67.4453,44.2199 64.5,48C 61.7287,47.6533 59.0621,47.82 56.5,48.5C 56.5,45.5 56.5,42.5 56.5,39.5C 56.1948,32.5676 56.5282,25.5676 57.5,18.5C 58.1943,9.54583 54.5276,3.2125 46.5,-0.5 Z"/></g>
<g><path style="opacity:1" fill="#1d1a14" d="M 31.5,-0.5 C 36.5,-0.5 41.5,-0.5 46.5,-0.5C 54.5276,3.2125 58.1943,9.54583 57.5,18.5C 56.8333,16.8333 56.1667,15.1667 55.5,13.5C 55.0844,11.2475 53.751,9.74753 51.5,9C 44.1452,8.27371 36.8118,7.44037 29.5,6.5C 29.8885,10.6861 28.2219,13.6861 24.5,15.5C 23.8313,17.6309 23.1646,19.6309 22.5,21.5C 21.8333,21.5 21.1667,21.5 20.5,21.5C 20.3345,17.4862 20.5012,13.4862 21,9.5C 23.8209,5.36013 27.3209,2.02679 31.5,-0.5 Z"/></g>
<g><path style="opacity:1" fill="#b4b5b5" d="M 20.5,32.5 C 19.8363,36.5906 21.1696,39.5906 24.5,41.5C 21.8678,46.6531 18.2011,51.1531 13.5,55C 8.67342,58.332 4.00675,61.832 -0.5,65.5C -0.5,51.5 -0.5,37.5 -0.5,23.5C 3.83333,23.5 8.16667,23.5 12.5,23.5C 12.4968,18.4083 13.3301,18.4083 15,23.5C 15.6743,21.4835 16.8409,19.8168 18.5,18.5C 14.4754,17.7856 14.642,16.4522 19,14.5C 19.3038,20.0951 18.8038,25.5951 17.5,31C 18.2438,32.0386 19.2438,32.5386 20.5,32.5 Z"/></g>
<g><path style="opacity:1" fill="#4a291a" d="M 55.5,13.5 C 51.3316,9.57529 47.165,9.24196 43,12.5C 42.0853,11.6721 41.4186,10.6721 41,9.5C 40.6924,10.3081 40.1924,10.9747 39.5,11.5C 37.2895,10.8772 35.2895,9.87715 33.5,8.5C 32.1861,9.31277 31.0195,10.3128 30,11.5C 27.8623,16.4019 26.1956,21.4019 25,26.5C 23.9055,24.9221 23.0722,23.2554 22.5,21.5C 23.1646,19.6309 23.8313,17.6309 24.5,15.5C 28.2219,13.6861 29.8885,10.6861 29.5,6.5C 36.8118,7.44037 44.1452,8.27371 51.5,9C 53.751,9.74753 55.0844,11.2475 55.5,13.5 Z"/></g>
<g><path style="opacity:1" fill="#4f2921" d="M 53.5,23.5 C 53.3284,24.4916 53.6618,25.1583 54.5,25.5C 52.5615,27.1628 50.2282,27.8294 47.5,27.5C 47.7196,23.2615 49.7196,21.9282 53.5,23.5 Z"/></g>
<g><path style="opacity:1" fill="#985a3f" d="M 55.5,13.5 C 56.069,17.3293 55.4023,20.6627 53.5,23.5C 49.7196,21.9282 47.7196,23.2615 47.5,27.5C 47.5,29.1667 47.5,30.8333 47.5,32.5C 46.2854,28.9674 46.2854,25.3008 47.5,21.5C 48.2778,20.8444 48.9444,20.0111 49.5,19C 48.7082,17.0403 47.3749,15.5403 45.5,14.5C 41.6447,12.9967 37.6447,12.3301 33.5,12.5C 34.7278,16.1838 34.7278,19.8505 33.5,23.5C 32.7222,24.1556 32.0556,24.9889 31.5,26C 31.5699,26.7648 31.9033,27.2648 32.5,27.5C 32.6107,28.1174 32.944,28.6174 33.5,29C 31.7174,30.0665 31.2174,31.5665 32,33.5C 32.7475,35.751 34.2475,37.0844 36.5,37.5C 34.4224,39.3904 33.0891,41.7238 32.5,44.5C 31.5,44.5 30.5,44.5 29.5,44.5C 29.4326,45.9587 29.7659,47.2921 30.5,48.5C 30.1667,48.5 29.8333,48.5 29.5,48.5C 28.8333,48.1667 28.1667,47.8333 27.5,47.5C 27.5,47.1667 27.5,46.8333 27.5,46.5C 25.6764,43.1538 25.0097,39.4872 25.5,35.5C 24.1667,35.5 22.8333,35.5 21.5,35.5C 21.7947,33.2646 21.4614,31.2646 20.5,29.5C 20.5,26.8333 20.5,24.1667 20.5,21.5C 21.1667,21.5 21.8333,21.5 22.5,21.5C 23.0722,23.2554 23.9055,24.9221 25,26.5C 26.1956,21.4019 27.8623,16.4019 30,11.5C 31.0195,10.3128 32.1861,9.31277 33.5,8.5C 35.2895,9.87715 37.2895,10.8772 39.5,11.5C 40.1924,10.9747 40.6924,10.3081 41,9.5C 41.4186,10.6721 42.0853,11.6721 43,12.5C 47.165,9.24196 51.3316,9.57529 55.5,13.5 Z"/></g>
<g><path style="opacity:1" fill="#ae6f5f" d="M 47.5,21.5 C 42.6007,21.0961 37.934,21.7627 33.5,23.5C 34.7278,19.8505 34.7278,16.1838 33.5,12.5C 37.6447,12.3301 41.6447,12.9967 45.5,14.5C 47.3749,15.5403 48.7082,17.0403 49.5,19C 48.9444,20.0111 48.2778,20.8444 47.5,21.5 Z"/></g>
<g><path style="opacity:1" fill="#a56254" d="M 47.5,21.5 C 46.2854,25.3008 46.2854,28.9674 47.5,32.5C 47.5,33.5 47.5,34.5 47.5,35.5C 44.8559,35.8399 42.5225,35.1733 40.5,33.5C 39.16,34.8665 37.8267,36.1999 36.5,37.5C 34.2475,37.0844 32.7475,35.751 32,33.5C 31.2174,31.5665 31.7174,30.0665 33.5,29C 32.944,28.6174 32.6107,28.1174 32.5,27.5C 31.9033,27.2648 31.5699,26.7648 31.5,26C 32.0556,24.9889 32.7222,24.1556 33.5,23.5C 37.934,21.7627 42.6007,21.0961 47.5,21.5 Z"/></g>
<g><path style="opacity:1" fill="#71392f" d="M 32.5,27.5 C 34.2401,25.4442 36.5735,24.1109 39.5,23.5C 43.7912,26.5099 43.2912,28.5099 38,29.5C 36.1999,28.6216 34.3666,27.955 32.5,27.5 Z"/></g>
<g><path style="opacity:1" fill="#75513c" d="M 55.5,13.5 C 56.1667,15.1667 56.8333,16.8333 57.5,18.5C 56.5282,25.5676 56.1948,32.5676 56.5,39.5C 56.1667,39.5 55.8333,39.5 55.5,39.5C 55.8195,34.6367 55.4861,29.97 54.5,25.5C 53.6618,25.1583 53.3284,24.4916 53.5,23.5C 55.4023,20.6627 56.069,17.3293 55.5,13.5 Z"/></g>
<g><path style="opacity:1" fill="#a09a8e" d="M 20.5,29.5 C 21.4614,31.2646 21.7947,33.2646 21.5,35.5C 22.8333,35.5 24.1667,35.5 25.5,35.5C 25.0097,39.4872 25.6764,43.1538 27.5,46.5C 24.9162,45.9517 23.9162,44.285 24.5,41.5C 21.1696,39.5906 19.8363,36.5906 20.5,32.5C 20.5,31.5 20.5,30.5 20.5,29.5 Z"/></g>
<g><path style="opacity:1" fill="#a8acad" d="M 55.5,39.5 C 55.8333,39.5 56.1667,39.5 56.5,39.5C 56.5,42.5 56.5,45.5 56.5,48.5C 59.0621,47.82 61.7287,47.6533 64.5,48C 67.4453,44.2199 71.112,41.3866 75.5,39.5C 75.5,51.5 75.5,63.5 75.5,75.5C 73.8333,75.5 72.1667,75.5 70.5,75.5C 66.6207,67.7414 62.7874,60.0747 59,52.5C 56.9307,50.9146 54.764,49.5813 52.5,48.5C 52.5,47.5 52.5,46.5 52.5,45.5C 54.0075,43.8185 55.0075,41.8185 55.5,39.5 Z"/></g>
<g><path style="opacity:1" fill="#8c4c3f" d="M 32.5,44.5 C 33.0891,41.7238 34.4224,39.3904 36.5,37.5C 37.8267,36.1999 39.16,34.8665 40.5,33.5C 42.5225,35.1733 44.8559,35.8399 47.5,35.5C 47.5,34.5 47.5,33.5 47.5,32.5C 48.1174,32.6107 48.6174,32.944 49,33.5C 49.49,32.2068 49.6567,30.8734 49.5,29.5C 51.1992,29.3398 52.8659,29.5065 54.5,30C 52.7696,36.8028 50.4363,43.3028 47.5,49.5C 44.8333,49.5 42.1667,49.5 39.5,49.5C 39.5,47.8333 39.5,46.1667 39.5,44.5C 37.1667,44.5 34.8333,44.5 32.5,44.5 Z"/></g>
<g><path style="opacity:1" fill="#7f462e" d="M 54.5,25.5 C 55.4861,29.97 55.8195,34.6367 55.5,39.5C 55.0075,41.8185 54.0075,43.8185 52.5,45.5C 51.5,45.5 50.5,45.5 49.5,45.5C 49.7135,47.1439 49.3802,48.6439 48.5,50C 42.4066,50.624 36.4066,50.124 30.5,48.5C 29.7659,47.2921 29.4326,45.9587 29.5,44.5C 30.5,44.5 31.5,44.5 32.5,44.5C 34.8333,44.5 37.1667,44.5 39.5,44.5C 39.5,46.1667 39.5,47.8333 39.5,49.5C 42.1667,49.5 44.8333,49.5 47.5,49.5C 50.4363,43.3028 52.7696,36.8028 54.5,30C 52.8659,29.5065 51.1992,29.3398 49.5,29.5C 49.6567,30.8734 49.49,32.2068 49,33.5C 48.6174,32.944 48.1174,32.6107 47.5,32.5C 47.5,30.8333 47.5,29.1667 47.5,27.5C 50.2282,27.8294 52.5615,27.1628 54.5,25.5 Z"/></g>
<g><path style="opacity:1" fill="#090c0f" d="M 27.5,47.5 C 28.1667,47.8333 28.8333,48.1667 29.5,48.5C 32.0094,49.9213 34.3428,51.5879 36.5,53.5C 37.6049,54.6005 38.9382,55.2671 40.5,55.5C 42.4832,55.1568 43.8166,55.8235 44.5,57.5C 43.3504,60.0494 43.6838,62.3827 45.5,64.5C 45.5,65.1667 45.8333,65.5 46.5,65.5C 46.5569,66.609 46.8902,67.609 47.5,68.5C 48.9213,71.0094 50.5879,73.3428 52.5,75.5C 45.8333,75.5 39.1667,75.5 32.5,75.5C 32.3601,73.8762 33.0267,72.7096 34.5,72C 33.354,71.3551 32.354,70.5217 31.5,69.5C 30.914,69.7093 30.414,70.0426 30,70.5C 29.6153,65.8724 27.7819,64.8724 24.5,67.5C 22.9707,67.4712 21.804,66.8045 21,65.5C 20.2808,61.1636 19.7808,56.997 19.5,53C 21.5433,51.1886 23.0433,49.022 24,46.5C 24.9529,48.3731 26.1196,48.7065 27.5,47.5 Z"/></g>
<g><path style="opacity:1" fill="#7a716f" d="M 36.5,53.5 C 38.2916,52.5272 39.625,53.1939 40.5,55.5C 38.9382,55.2671 37.6049,54.6005 36.5,53.5 Z"/></g>
<g><path style="opacity:1" fill="#5d3422" d="M 52.5,45.5 C 52.5,46.5 52.5,47.5 52.5,48.5C 51.5084,48.3284 50.8417,48.6618 50.5,49.5C 49.6321,51.4021 48.6321,53.2355 47.5,55C 49.2319,58.236 48.5652,59.4026 45.5,58.5C 45.5,57.8333 45.1667,57.5 44.5,57.5C 43.8166,55.8235 42.4832,55.1568 40.5,55.5C 39.625,53.1939 38.2916,52.5272 36.5,53.5C 34.3428,51.5879 32.0094,49.9213 29.5,48.5C 29.8333,48.5 30.1667,48.5 30.5,48.5C 36.4066,50.124 42.4066,50.624 48.5,50C 49.3802,48.6439 49.7135,47.1439 49.5,45.5C 50.5,45.5 51.5,45.5 52.5,45.5 Z"/></g>
<g><path style="opacity:1" fill="#958984" d="M 50.5,49.5 C 55.9851,52.2997 56.9851,56.2997 53.5,61.5C 53.8627,62.1835 54.1961,62.8501 54.5,63.5C 52.8762,63.6399 51.7096,62.9733 51,61.5C 50.5172,62.448 50.3505,63.448 50.5,64.5C 48.901,64.2322 47.5676,64.5655 46.5,65.5C 45.8333,65.5 45.5,65.1667 45.5,64.5C 45.5,62.5 45.5,60.5 45.5,58.5C 48.5652,59.4026 49.2319,58.236 47.5,55C 48.6321,53.2355 49.6321,51.4021 50.5,49.5 Z"/></g>
<g><path style="opacity:1" fill="#464542" d="M 44.5,57.5 C 45.1667,57.5 45.5,57.8333 45.5,58.5C 45.5,60.5 45.5,62.5 45.5,64.5C 43.6838,62.3827 43.3504,60.0494 44.5,57.5 Z"/></g>
<g><path style="opacity:1" fill="#0c0f15" d="M 24.5,41.5 C 23.9162,44.285 24.9162,45.9517 27.5,46.5C 27.5,46.8333 27.5,47.1667 27.5,47.5C 26.1196,48.7065 24.9529,48.3731 24,46.5C 23.0433,49.022 21.5433,51.1886 19.5,53C 19.7808,56.997 20.2808,61.1636 21,65.5C 21.804,66.8045 22.9707,67.4712 24.5,67.5C 27.7819,64.8724 29.6153,65.8724 30,70.5C 30.414,70.0426 30.914,69.7093 31.5,69.5C 32.354,70.5217 33.354,71.3551 34.5,72C 33.0267,72.7096 32.3601,73.8762 32.5,75.5C 21.5,75.5 10.5,75.5 -0.5,75.5C -0.5,72.1667 -0.5,68.8333 -0.5,65.5C 4.00675,61.832 8.67342,58.332 13.5,55C 18.2011,51.1531 21.8678,46.6531 24.5,41.5 Z"/></g>
<g><path style="opacity:1" fill="#b5b5af" d="M 54.5,63.5 C 55.5664,65.7014 56.233,68.0347 56.5,70.5C 56.8925,72.2838 57.5592,73.9505 58.5,75.5C 57.1667,75.5 55.8333,75.5 54.5,75.5C 52.4246,72.7578 50.0913,70.4244 47.5,68.5C 46.8902,67.609 46.5569,66.609 46.5,65.5C 47.5676,64.5655 48.901,64.2322 50.5,64.5C 50.3505,63.448 50.5172,62.448 51,61.5C 51.7096,62.9733 52.8762,63.6399 54.5,63.5 Z"/></g>
<g><path style="opacity:1" fill="#353638" d="M 60.5,75.5 C 59.8333,75.5 59.1667,75.5 58.5,75.5C 57.5592,73.9505 56.8925,72.2838 56.5,70.5C 57.2679,69.7375 57.7679,68.7375 58,67.5C 58.9406,70.154 59.7739,72.8206 60.5,75.5 Z"/></g>
<g><path style="opacity:1" fill="#111519" d="M 50.5,49.5 C 50.8417,48.6618 51.5084,48.3284 52.5,48.5C 54.764,49.5813 56.9307,50.9146 59,52.5C 62.7874,60.0747 66.6207,67.7414 70.5,75.5C 67.1667,75.5 63.8333,75.5 60.5,75.5C 59.7739,72.8206 58.9406,70.154 58,67.5C 57.7679,68.7375 57.2679,69.7375 56.5,70.5C 56.233,68.0347 55.5664,65.7014 54.5,63.5C 54.1961,62.8501 53.8627,62.1835 53.5,61.5C 56.9851,56.2997 55.9851,52.2997 50.5,49.5 Z"/></g>
<g><path style="opacity:1" fill="#626361" d="M 47.5,68.5 C 50.0913,70.4244 52.4246,72.7578 54.5,75.5C 53.8333,75.5 53.1667,75.5 52.5,75.5C 50.5879,73.3428 48.9213,71.0094 47.5,68.5 Z"/></g>
</svg>
