<?xml version="1.0" standalone="no"?>
<!DOCTYPE svg PUBLIC "-//W3C//DTD SVG 20010904//EN"
 "http://www.w3.org/TR/2001/REC-SVG-20010904/DTD/svg10.dtd">
<svg version="1.0" xmlns="http://www.w3.org/2000/svg"
 width="354.000000pt" height="325.000000pt" viewBox="0 0 354.000000 325.000000"
 preserveAspectRatio="xMidYMid meet">

<g transform="translate(0.000000,325.000000) scale(0.100000,-0.100000)"
fill="#000000" stroke="none">
<path d="M1510 3192 c-124 -31 -214 -59 -201 -60 13 -2 30 -10 37 -17 21 -21
-40 -68 -108 -83 -31 -8 -59 -20 -62 -28 -3 -9 -1 -12 4 -9 6 3 10 1 10 -6 0
-11 5 -11 86 6 l29 6 -30 -15 c-16 -8 -24 -15 -16 -15 7 -1 24 -12 37 -27 21
-22 24 -35 24 -104 l0 -78 -70 -13 c-39 -7 -73 -15 -75 -19 -2 -3 3 -17 10
-31 8 -13 18 -34 24 -45 5 -12 17 -24 25 -27 9 -4 16 -13 16 -22 0 -8 7 -15
15 -15 8 0 15 -9 15 -20 0 -14 -7 -20 -21 -20 -11 0 -17 -4 -14 -10 3 -5 15
-10 26 -10 17 0 19 -4 13 -22 -8 -26 -8 -24 5 -96 9 -50 15 -235 10 -352 -1
-30 -6 -261 -10 -512 -6 -386 -9 -460 -22 -479 -15 -21 -16 -21 -23 16 -7 38
-7 38 -20 14 -13 -23 -13 -22 -14 17 0 24 -6 47 -15 54 -12 10 -15 10 -15 0 0
-8 -2 -11 -4 -9 -4 4 16 130 30 193 6 27 5 29 -16 23 -20 -5 -56 14 -45 24 2
2 -7 5 -20 5 -14 1 -32 9 -40 18 -18 18 -29 21 -20 6 3 -5 2 -10 -4 -10 -13 0
-32 35 -24 44 3 3 1 6 -5 6 -7 0 -12 8 -12 18 0 11 3 13 8 6 4 -7 8 110 10
260 2 154 7 272 13 274 14 6 11 27 -10 53 -22 28 -39 183 -22 194 6 3 11 22
11 41 0 29 -3 34 -22 34 -34 0 -231 -29 -236 -35 -3 -2 2 -15 11 -28 21 -33
26 -103 10 -156 -9 -29 -10 -48 -3 -55 6 -6 4 -13 -6 -20 -16 -12 -22 -55 -23
-149 -1 -36 -5 -56 -11 -52 -6 3 -10 -5 -10 -19 0 -13 -6 -27 -12 -29 -10 -4
-9 -6 1 -6 11 -1 11 -4 1 -16 -7 -8 -8 -15 -3 -15 5 0 10 -26 10 -57 1 -40 -2
-50 -6 -33 -5 14 -11 -55 -15 -160 -7 -186 -15 -276 -23 -252 -7 19 -19 14
-20 -9 -1 -15 2 -19 13 -15 11 4 14 1 12 -11 -5 -26 -38 -29 -38 -4 0 11 -5
23 -10 26 -6 4 -8 10 -5 15 8 13 -24 60 -41 60 -15 0 -15 21 1 32 6 5 6 8 -2
8 -6 0 -14 -4 -18 -9 -3 -6 -14 -8 -25 -6 -11 2 -20 0 -20 -6 0 -5 5 -9 11 -9
5 0 7 -5 3 -12 -5 -8 -11 -6 -20 6 -12 17 -14 17 -38 1 -19 -13 -37 -16 -66
-11 -22 3 -41 2 -45 -4 -3 -5 0 -10 7 -10 10 0 10 -2 -1 -9 -8 -5 -21 -7 -29
-3 -10 3 -13 1 -8 -6 4 -7 1 -12 -8 -12 -9 0 -17 -3 -17 -7 -1 -5 -3 -17 -4
-28 -1 -11 -5 -30 -9 -42 -6 -17 -3 -23 8 -23 10 0 16 9 16 24 0 14 4 27 8 30
5 3 6 -8 4 -25 l-4 -29 54 0 c62 0 71 -5 57 -31 -9 -17 -6 -19 37 -19 37 0 45
3 40 15 -4 12 -2 13 13 3 27 -17 92 -1 98 23 4 15 11 19 27 15 11 -3 54 -6 95
-6 l74 0 -6 -93 c-2 -50 -8 -99 -12 -109 -9 -23 -39 -28 -70 -12 -23 12 -27
11 -33 -4 -8 -20 -63 -23 -75 -4 -10 15 -29 16 -45 0 -16 -16 -64 -17 -81 0
-12 12 -17 11 -30 -5 -22 -27 -101 -32 -101 -7 0 15 -2 16 -17 2 -22 -20 -87
-13 -117 11 -13 11 -18 10 -32 -4 -10 -10 -23 -13 -33 -9 -9 4 -41 8 -71 8
-30 1 -57 4 -60 8 -3 3 -18 4 -33 1 l-28 -5 2 -159 c0 -88 4 -157 9 -154 11 7
40 -5 40 -16 0 -5 -3 -8 -7 -8 -5 1 -15 1 -23 0 -13 -1 -13 -2 0 -11 13 -8 12
-10 -2 -10 -16 0 -18 -15 -18 -170 l0 -170 33 0 c18 0 27 4 20 8 -6 4 51 6
128 4 99 -3 144 -1 152 7 9 9 8 11 -5 6 -10 -4 -18 -3 -18 2 0 6 30 10 68 10
63 0 64 0 22 -7 -38 -6 -35 -7 20 -4 36 2 81 5 100 5 l35 2 -40 7 c-28 5 -12
7 55 7 121 0 527 66 549 89 3 4 -6 4 -21 0 -63 -14 -80 -15 -33 0 42 13 186
63 206 72 10 5 10 -127 0 -146 -5 -10 -12 -38 -15 -61 -5 -41 -4 -43 31 -57
19 -9 42 -13 50 -10 8 3 22 2 31 -3 10 -5 44 -12 77 -16 33 -3 207 -35 387
-71 l326 -65 48 30 c26 17 51 28 57 24 6 -3 7 -2 4 4 -4 6 5 15 19 22 31 14
37 14 29 1 -11 -17 11 -11 35 10 13 11 27 20 32 20 4 0 8 4 8 10 0 5 -8 7 -17
4 -15 -5 -16 -4 -3 5 8 6 26 11 40 11 14 0 43 12 65 25 49 30 55 31 55 4 0
-16 6 -20 28 -18 27 2 47 -3 89 -23 12 -6 38 -7 58 -4 27 5 40 3 48 -7 7 -8
30 -18 52 -22 l39 -7 -24 20 -24 20 29 -1 c58 0 64 2 60 23 -2 12 0 18 6 15 5
-4 7 -11 4 -16 -4 -5 -1 -9 5 -9 6 0 8 -4 5 -10 -3 -5 2 -10 11 -10 14 0 15
-3 6 -12 -35 -35 5 -126 51 -115 12 3 48 9 79 12 51 6 64 4 108 -19 48 -25 56
-26 215 -26 l165 0 0 194 c0 188 -1 195 -20 198 -12 2 -20 8 -19 13 1 6 10 9
21 7 16 -3 18 4 18 57 0 48 -3 60 -17 64 -17 4 -17 5 0 6 13 1 17 10 17 46 0
39 -3 45 -21 45 -11 0 -17 -4 -14 -10 4 -6 -10 -10 -34 -10 -23 0 -41 5 -41
10 0 6 5 10 12 10 6 0 1 9 -12 20 -22 19 -23 21 -5 40 20 22 65 26 96 10 19
-11 19 -4 19 301 l-1 312 -79 -7 c-44 -3 -86 -9 -95 -12 -20 -8 -20 28 0 123
8 40 22 134 30 210 9 76 17 145 20 153 6 21 39 411 49 585 14 231 19 273 32
268 8 -3 14 0 14 6 0 6 -17 11 -40 11 -22 0 -41 1 -42 1 -2 1 -28 5 -58 10
-38 5 -102 1 -210 -13 -85 -11 -157 -22 -159 -23 -2 -3 15 -64 36 -125 3 -8 4
-179 3 -378 -1 -314 1 -367 14 -388 14 -20 14 -23 1 -18 -11 5 -15 -2 -16 -27
-5 -161 -12 -244 -33 -369 -14 -80 -28 -176 -31 -215 -4 -38 -13 -105 -21
-149 -8 -43 -14 -80 -14 -83 0 -2 -15 -3 -32 -1 l-33 3 0 660 c0 363 3 697 7
743 5 50 4 82 -2 82 -5 0 8 30 29 68 38 66 71 149 71 177 0 8 -6 15 -14 15
-13 0 -32 47 -22 57 2 3 53 13 113 23 59 10 100 18 90 19 -16 1 -114 -11 -191
-24 -21 -4 -27 -2 -23 9 3 8 1 17 -6 19 -7 3 6 3 28 1 31 -3 34 -2 15 4 -24 8
-23 9 12 16 20 4 49 13 63 20 l26 13 -32 7 c-17 3 -44 6 -58 6 -15 0 -31 4
-36 9 -11 9 -131 41 -157 41 -18 0 -198 127 -198 140 0 6 -6 10 -13 10 -8 0
-30 16 -50 35 -20 19 -43 35 -51 35 -9 0 -13 7 -11 19 2 14 -1 18 -10 15 -7
-3 -18 4 -25 15 -6 12 -17 21 -25 21 -8 0 -15 4 -15 10 0 5 -12 13 -27 16 -31
8 -73 29 -82 41 -14 19 -104 53 -139 53 -20 -1 -63 -7 -96 -15 -55 -13 -160
-10 -152 4 2 3 -33 7 -77 8 -70 1 -115 -7 -307 -55z m345 18 c3 -6 -1 -7 -9
-4 -18 7 -21 14 -7 14 6 0 13 -4 16 -10z m-69 -763 c3 -3 -4 -24 -16 -47 -12
-23 -17 -39 -12 -36 5 3 15 19 22 36 15 36 29 38 58 8 38 -42 62 -108 62 -179
0 -68 -15 -129 -32 -129 -5 0 -7 4 -4 9 8 13 -40 42 -57 35 -8 -3 -35 10 -60
29 -42 32 -44 36 -29 49 9 8 25 18 35 21 17 6 23 28 11 40 -6 5 -72 -41 -99
-69 -5 -5 -43 -32 -83 -58 -96 -63 -106 -59 -100 42 8 137 83 239 193 262 29
6 100 -2 111 -13z m533 -132 c29 -34 31 -39 29 -115 -1 -52 -6 -80 -13 -80
-18 0 -71 60 -60 68 6 4 11 14 13 22 2 8 8 17 13 18 20 8 7 31 -18 34 -24 3
-29 8 -33 43 l-6 40 -8 -32 c-4 -18 -5 -43 -1 -55 5 -18 4 -20 -4 -8 -6 8 -11
25 -11 38 0 66 52 80 99 27z m1008 -47 c-3 -7 -5 -2 -5 12 0 14 2 19 5 13 2
-7 2 -19 0 -25z m0 -85 c-3 -10 -5 -4 -5 12 0 17 2 24 5 18 2 -7 2 -21 0 -30z
m-1588 -24 c28 -18 51 -36 51 -40 0 -13 53 -37 68 -31 39 13 -57 -91 -108
-118 -13 -7 -49 -13 -78 -12 -43 0 -63 6 -96 29 -22 16 -47 41 -56 56 -13 24
-13 29 0 37 24 15 34 12 19 -7 -13 -16 -12 -17 4 -4 9 8 15 16 13 19 -15 14
90 102 121 102 6 0 34 -14 62 -31z m-292 -11 c-3 -7 -5 -2 -5 12 0 14 2 19 5
13 2 -7 2 -19 0 -25z m790 -4 c-3 -3 -12 -4 -19 -1 -8 3 -5 6 6 6 11 1 17 -2
13 -5z m370 -20 c-3 -3 -12 -4 -19 -1 -8 3 -5 6 6 6 11 1 17 -2 13 -5z m-347
-68 c-7 -7 -10 1 -9 25 0 32 1 33 10 10 6 -16 6 -28 -1 -35z m-1260 19 c0 -8
-4 -15 -10 -15 -5 0 -10 7 -10 15 0 8 5 15 10 15 6 0 10 -7 10 -15z m2407 -17
c-3 -8 -6 -5 -6 6 -1 11 2 17 5 13 3 -3 4 -12 1 -19z m-2567 -22 c0 -2 -7 -7
-16 -10 -8 -3 -12 -2 -9 4 6 10 25 14 25 6z m159 -68 c0 -40 3 -175 6 -299 l6
-226 -24 -5 c-23 -4 -24 -2 -20 29 3 19 0 40 -6 47 -6 7 -8 15 -5 18 15 15 13
58 -3 67 -17 10 -17 10 0 11 10 0 17 8 17 19 0 23 -16 37 -22 19 -3 -9 -6 -9
-11 -1 -4 6 0 19 10 28 14 15 15 23 6 58 -10 35 -9 43 5 53 14 11 15 16 5 33
-7 12 -13 23 -13 26 0 4 6 3 13 -1 6 -4 3 3 -8 16 -11 13 -15 21 -10 18 18
-10 31 16 30 59 -1 23 2 40 6 37 4 -2 5 5 2 16 -5 19 2 50 11 50 3 0 5 -33 5
-72z m-39 19 c0 -2 -9 -12 -20 -22 -19 -17 -20 -17 -20 -1 0 9 5 14 10 11 6
-3 10 -1 10 4 0 6 5 11 10 11 6 0 10 -2 10 -3z m-133 -89 c-3 -7 -5 -2 -5 12
0 14 2 19 5 13 2 -7 2 -19 0 -25z m105 10 c-7 -7 -12 -8 -12 -2 0 14 12 26 19
19 2 -3 -1 -11 -7 -17z m1366 -54 c-3 -14 -5 -12 -10 9 -3 19 -2 25 4 19 6 -6
8 -18 6 -28z m-1488 1 c11 -13 10 -14 -4 -9 -9 3 -16 10 -16 15 0 13 6 11 20
-6z m1560 -15 c0 -5 -2 -10 -4 -10 -3 0 -8 5 -11 10 -3 6 -1 10 4 10 6 0 11
-4 11 -10z m-1613 -22 c-3 -8 -6 -5 -6 6 -1 11 2 17 5 13 3 -3 4 -12 1 -19z
m1626 -18 c3 -11 1 -18 -4 -14 -5 3 -9 12 -9 20 0 20 7 17 13 -6z m-150 -17
c-7 -2 -19 -2 -25 0 -7 3 -2 5 12 5 14 0 19 -2 13 -5z m75 -10 c-10 -2 -28 -2
-40 0 -13 2 -5 4 17 4 22 1 32 -1 23 -4z m-1526 -25 c-7 -7 -12 -8 -12 -2 0
14 12 26 19 19 2 -3 -1 -11 -7 -17z m1601 15 c-7 -2 -19 -2 -25 0 -7 3 -2 5
12 5 14 0 19 -2 13 -5z m-1604 -80 c-5 -26 -7 -55 -4 -63 4 -10 3 -11 -3 -5
-15 16 -24 65 -12 65 5 0 10 8 10 18 0 16 8 32 15 32 1 0 -2 -21 -6 -47z
m1598 -85 c-2 -29 -8 -61 -12 -71 -5 -12 -3 -17 6 -15 19 4 23 -31 4 -38 -21
-9 -33 5 -15 16 11 7 12 10 2 10 -7 0 -12 8 -11 18 2 9 -1 39 -5 66 -6 36 -4
51 6 57 25 16 29 9 25 -43z m60 -40 c-2 -56 -7 -83 -16 -86 -9 -3 -11 5 -7 31
3 20 1 39 -4 42 -6 3 -10 26 -10 51 0 37 3 44 19 44 18 0 20 -7 18 -82z m940
5 c-2 -16 -4 -3 -4 27 0 30 2 43 4 28 2 -16 2 -40 0 -55z m-2611 -11 c-11 -10
-15 4 -8 28 l7 25 3 -23 c2 -13 1 -26 -2 -30z m4 -112 c0 -5 -4 -10 -10 -10
-5 0 -10 5 -10 10 0 6 5 10 10 10 6 0 10 -4 10 -10z m-13 -122 c-3 -8 -6 -5
-6 6 -1 11 2 17 5 13 3 -3 4 -12 1 -19z m1463 -163 c0 -110 -4 -175 -10 -175
-6 0 -10 65 -10 175 0 110 4 175 10 175 6 0 10 -65 10 -175z m-1686 149 c4 -9
4 -19 1 -22 -2 -3 -7 3 -11 12 -3 9 -11 13 -17 9 -6 -3 -7 -1 -3 5 10 17 23
15 30 -4z m-193 -57 c-10 -9 -11 -8 -5 6 3 10 9 15 12 12 3 -3 0 -11 -7 -18z
m112 -19 c26 -10 38 -28 17 -28 -5 0 -10 5 -10 10 0 6 -9 10 -19 10 -11 0 -23
5 -26 10 -4 6 -11 8 -16 5 -5 -4 -9 -1 -9 5 0 8 7 9 18 5 9 -4 29 -12 45 -17z
m146 -26 c-21 -2 -47 1 -56 7 -14 8 -10 10 24 11 23 0 45 5 49 12 5 8 10 6 14
-8 6 -16 2 -19 -31 -22z m335 23 c-4 -8 -11 -15 -16 -15 -6 0 -5 6 2 15 7 8
14 15 16 15 2 0 1 -7 -2 -15z m-544 -25 c0 -5 -5 -10 -11 -10 -5 0 -7 5 -4 10
3 6 8 10 11 10 2 0 4 -4 4 -10z m3093 -67 c-18 -2 -48 -2 -65 0 -18 2 -4 4 32
4 36 0 50 -2 33 -4z m-2517 -50 c-11 -11 -17 4 -9 23 7 18 8 18 11 1 2 -10 1
-21 -2 -24z m2282 -109 c27 -5 31 -43 5 -39 -35 5 -63 17 -57 26 5 8 -10 13
-29 10 -5 -1 -6 3 -3 7 5 9 28 8 84 -4z m-68 -69 c0 -8 -2 -15 -4 -15 -2 0 -6
7 -10 15 -3 8 -1 15 4 15 6 0 10 -7 10 -15z m-12 -39 c-7 -8 -15 -12 -17 -11
-5 6 10 25 20 25 5 0 4 -6 -3 -14z m-230 -21 c2 -2 -2 -14 -9 -27 -7 -12 -14
-34 -15 -47 -7 -61 -34 -32 -34 36 l0 55 27 -7 c16 -4 29 -8 31 -10z m495 -62
c-13 -2 -33 -2 -45 0 -13 2 -3 4 22 4 25 0 35 -2 23 -4z m-3140 -73 c-6 -23
-51 -50 -83 -50 -15 0 -19 4 -13 13 4 6 8 16 8 20 0 10 53 35 77 36 11 1 15
-5 11 -19z m495 8 c7 -7 12 -16 12 -20 0 -13 -89 -9 -113 4 -21 12 -19 13 23
19 25 3 50 7 56 7 5 1 15 -3 22 -10z m2106 -25 c-15 -82 -22 -90 -23 -25 -1
50 2 62 14 62 13 0 15 -7 9 -37z m-2784 -29 c0 -13 -4 -24 -10 -24 -5 0 -10
14 -10 31 0 17 4 28 10 24 6 -3 10 -17 10 -31z m-70 11 c0 -8 -7 -15 -16 -15
-14 0 -14 3 -4 15 7 8 14 15 16 15 2 0 4 -7 4 -15z m1175 6 c-6 -5 -21 -12
-35 -15 -24 -7 -24 -6 -6 8 21 17 57 23 41 7z m-275 -11 c0 -5 -9 -10 -20 -10
-11 0 -20 5 -20 10 0 6 9 10 20 10 11 0 20 -4 20 -10z m340 -40 c0 -29 -4 -40
-15 -40 -16 0 -19 5 -29 53 -6 24 -3 27 19 27 23 0 25 -4 25 -40z m-70 20
c-13 -8 -12 -10 3 -10 9 0 17 -5 17 -10 0 -7 -6 -7 -20 0 -25 13 -26 30 -2 30
14 0 15 -2 2 -10z m-22 -28 c27 -21 27 -59 0 -76 -22 -14 -32 -3 -19 22 8 14
7 24 -4 38 -28 37 -15 45 23 16z m2149 -19 c-3 -10 -5 -4 -5 12 0 17 2 24 5
18 2 -7 2 -21 0 -30z m-2239 -28 c-1 -42 -3 -45 -27 -45 -20 0 -23 2 -11 10
12 8 11 10 -6 10 -12 0 -25 -7 -28 -16 -4 -9 -13 -14 -22 -10 -8 3 -25 -3 -37
-15 -14 -13 -17 -19 -7 -17 8 2 14 -3 13 -9 -4 -18 9 -16 77 11 33 14 60 21
60 16 0 -11 -77 -40 -110 -42 -14 -1 -43 -1 -65 1 -39 2 -39 2 -16 15 17 9 20
15 10 18 -9 3 0 11 23 22 29 14 36 22 33 42 -1 15 3 24 12 24 8 0 21 7 29 15
9 8 28 15 44 15 27 0 28 -2 28 -45z m180 -20 c1 -20 -3 -25 -21 -26 l-22 -2
23 -4 c12 -2 22 -11 22 -18 0 -15 -58 -50 -67 -41 -3 3 -11 -1 -18 -8 -8 -8
-26 -11 -47 -7 l-33 5 35 7 c19 3 26 7 15 8 -17 1 -15 5 13 22 26 17 35 19 47
9 10 -9 15 -9 15 -1 0 6 -3 11 -7 11 -5 0 -14 4 -22 9 -11 7 -9 14 14 35 35
33 50 33 53 1z m2147 -9 c30 -9 40 -14 25 -14 -28 0 -114 25 -90 27 8 0 38 -6
65 -13z m-2607 -39 c-1 -2 4 -12 12 -22 13 -16 13 -18 0 -13 -8 2 -16 15 -16
27 -1 12 1 20 3 17 3 -2 3 -6 1 -9z m2635 -4 c-7 -2 -19 -2 -25 0 -7 3 -2 5
12 5 14 0 19 -2 13 -5z m-2649 -29 c3 -8 2 -12 -4 -9 -6 3 -10 -3 -10 -14 0
-17 -6 -21 -31 -21 -18 0 -28 4 -24 10 4 6 11 8 16 5 5 -4 9 -2 9 2 0 5 -12
14 -27 19 l-28 10 32 0 c22 -1 33 -6 33 -16 0 -13 2 -13 9 0 6 8 7 18 5 22 -3
4 -1 8 4 8 6 0 13 -7 16 -16z m-221 -11 c-7 -2 -19 -2 -25 0 -7 3 -2 5 12 5
14 0 19 -2 13 -5z m42 -13 c-10 -11 -25 -20 -34 -19 -11 0 -9 3 5 9 12 5 25
13 29 19 3 6 9 11 12 11 3 0 -2 -9 -12 -20z m2789 -16 c5 -13 2 -15 -16 -10
-13 3 -27 6 -31 6 -5 0 -5 5 -2 10 10 16 42 12 49 -6z m-3010 -26 c-3 -5 12
-9 33 -9 31 -2 33 -3 10 -6 -16 -3 -36 -1 -45 3 -23 10 -28 11 -54 13 -22 2
-22 2 -5 15 14 11 23 11 42 3 13 -7 21 -15 19 -19z m161 22 c3 -6 -1 -7 -9 -4
-18 7 -21 14 -7 14 6 0 13 -4 16 -10z m140 0 c-3 -5 -13 -10 -21 -10 -8 0 -12
5 -9 10 3 6 13 10 21 10 8 0 12 -4 9 -10z m-218 -22 c-3 -8 -6 -5 -6 6 -1 11
2 17 5 13 3 -3 4 -12 1 -19z m530 8 c0 -8 -6 -12 -15 -9 -11 5 -11 7 0 14 7 5
13 9 14 9 0 0 1 -6 1 -14z m-167 -41 c-14 -17 -65 -21 -55 -4 4 6 13 8 20 5 8
-3 19 2 26 10 6 8 14 12 17 9 3 -2 -1 -11 -8 -20z m-757 8 c-7 -2 -21 -2 -30
0 -10 3 -4 5 12 5 17 0 24 -2 18 -5z m360 -10 c-7 -2 -19 -2 -25 0 -7 3 -2 5
12 5 14 0 19 -2 13 -5z m187 -8 c-7 -9 -15 -13 -19 -10 -3 3 1 10 9 15 21 14
24 12 10 -5z m357 9 c-3 -3 -12 -4 -19 -1 -8 3 -5 6 6 6 11 1 17 -2 13 -5z
m-309 -21 c-12 -15 -22 -18 -14 -4 4 5 0 11 -6 14 -7 3 -3 4 9 4 17 -1 19 -4
11 -14z m-101 -5 c-6 -3 0 -8 14 -11 13 -2 2 -2 -26 1 -76 7 -99 20 -34 18 32
0 52 -4 46 -8z m-517 -29 c0 -5 -4 -9 -10 -9 -5 0 -10 7 -10 16 0 8 5 12 10 9
6 -3 10 -10 10 -16z m227 6 c0 -8 -4 -12 -9 -9 -5 3 -6 10 -3 15 9 13 12 11
12 -6z m-97 1 c0 -2 -9 -6 -20 -9 -11 -3 -18 -1 -14 4 5 9 34 13 34 5z m180 0
c0 -2 -13 -6 -29 -8 -17 -2 -28 -1 -25 4 5 8 54 12 54 4z m317 -2 c-3 -3 -12
-4 -19 -1 -8 3 -5 6 6 6 11 1 17 -2 13 -5z m-667 -14 c0 -5 -2 -10 -4 -10 -3
0 -8 5 -11 10 -3 6 -1 10 4 10 6 0 11 -4 11 -10z m105 0 c-11 -5 -27 -9 -35
-9 -9 0 -8 4 5 9 11 5 27 9 35 9 9 0 8 -4 -5 -9z m498 3 c-7 -2 -21 -2 -30 0
-10 3 -4 5 12 5 17 0 24 -2 18 -5z m-365 -30 c-21 -2 -57 -2 -80 0 -24 2 -7 4
37 4 44 0 63 -2 43 -4z m2602 -43 c0 -5 -2 -10 -4 -10 -3 0 -8 5 -11 10 -3 6
-1 10 4 10 6 0 11 -4 11 -10z m-163 -6 c-3 -3 -12 -4 -19 -1 -8 3 -5 6 6 6 11
1 17 -2 13 -5z m-362 -84 c-3 -5 -12 -10 -18 -10 -7 0 -6 4 3 10 19 12 23 12
15 0z"/>
<path d="M1689 2418 c-1 -31 -1 -32 -9 -8 -5 15 -8 18 -9 8 -2 -26 10 -48 25
-48 10 0 14 12 14 40 0 48 -20 55 -21 8z"/>
<path d="M1601 2417 c-1 -5 4 -18 10 -30 12 -22 12 -22 -10 -3 -11 11 -21 15
-21 9 0 -14 39 -47 47 -40 4 4 -1 22 -10 40 -8 17 -16 28 -16 24z"/>
<path d="M1823 2325 c-18 -16 -23 -24 -13 -24 22 -1 65 35 52 43 -6 3 -23 -5
-39 -19z"/>
<path d="M1520 2300 c8 -5 24 -10 34 -10 26 0 18 6 -19 14 -22 5 -26 4 -15 -4z"/>
<path d="M1827 2233 c-18 -17 -5 -33 28 -33 28 0 35 4 35 20 0 15 -7 20 -28
20 -16 0 -32 -3 -35 -7z"/>
<path d="M1515 2205 c-16 -7 -23 -14 -14 -14 8 -1 24 6 35 14 24 18 18 18 -21
0z"/>
<path d="M1498 2173 c7 -3 16 -2 19 1 4 3 -2 6 -13 5 -11 0 -14 -3 -6 -6z"/>
<path d="M1667 2110 c-22 -37 -21 -76 2 -99 10 -10 21 -25 23 -32 3 -8 8 13
12 46 5 44 4 67 -7 87 l-13 27 -17 -29z"/>
<path d="M1587 2046 c-9 -14 -17 -30 -17 -36 0 -18 17 -11 28 13 11 20 11 20
7 -8 -5 -27 -4 -27 4 -7 6 12 7 31 3 43 -8 21 -9 21 -25 -5z"/>
<path d="M1759 2042 c6 -12 16 -24 22 -28 8 -4 8 -1 0 14 -6 12 -16 24 -22 28
-8 4 -8 1 0 -14z"/>
<path d="M1053 603 c9 -2 23 -2 30 0 6 3 -1 5 -18 5 -16 0 -22 -2 -12 -5z"/>
<path d="M1056 581 c-4 -7 -5 -15 -2 -18 9 -9 19 4 14 18 -4 11 -6 11 -12 0z"/>
<path d="M0 3135 c0 -56 16 -67 79 -50 26 6 56 18 68 25 25 16 39 52 17 43 -8
-3 -20 0 -28 6 -7 6 -41 13 -75 16 l-61 5 0 -45z"/>
<path d="M3188 2723 c6 -2 18 -2 25 0 6 3 1 5 -13 5 -14 0 -19 -2 -12 -5z"/>
<path d="M429 2628 c0 -2 -2 -23 -4 -48 -2 -25 -6 -58 -9 -75 l-5 -30 14 32
c18 39 35 51 35 25 0 -11 6 -25 14 -32 8 -6 12 -19 9 -28 -4 -14 -3 -15 6 -2
8 12 12 10 20 -10 9 -23 10 -23 9 10 -1 19 -6 41 -11 47 -5 7 -7 33 -6 57 4
42 2 45 -25 50 -31 6 -46 7 -47 4z m61 -113 c0 -8 -2 -15 -4 -15 -2 0 -6 7
-10 15 -3 8 -1 15 4 15 6 0 10 -7 10 -15z"/>
<path d="M487 2403 c-16 -16 -4 -23 36 -21 l42 1 -38 4 c-20 2 -35 8 -32 14 7
10 2 12 -8 2z"/>
<path d="M377 2394 c-4 -4 -7 -14 -7 -23 0 -11 3 -12 11 -4 6 6 10 16 7 23 -2
6 -7 8 -11 4z"/>
<path d="M500 2311 c0 -5 7 -11 15 -15 26 -9 16 -36 -17 -51 l-33 -13 28 -11
c35 -14 47 -7 47 24 0 13 4 35 10 49 9 24 8 26 -20 26 -17 0 -30 -4 -30 -9z"/>
<path d="M211 2287 c2 -1 11 -8 20 -15 13 -10 19 -9 29 3 11 13 8 15 -20 15
-19 0 -31 -1 -29 -3z"/>
<path d="M1021 2254 c0 -11 3 -14 6 -6 3 7 2 16 -1 19 -3 4 -6 -2 -5 -13z"/>
<path d="M3500 2218 c0 -31 3 -39 10 -28 13 20 13 57 0 65 -6 4 -10 -11 -10
-37z"/>
<path d="M385 2243 c-41 -10 -41 -26 0 -19 22 3 47 6 55 6 13 0 13 1 0 10 -16
10 -23 11 -55 3z"/>
<path d="M320 2230 c-8 -5 -11 -12 -7 -16 4 -4 13 -2 19 4 15 15 7 24 -12 12z"/>
<path d="M280 2210 c-13 -8 -12 -10 3 -10 9 0 17 5 17 10 0 12 -1 12 -20 0z"/>
<path d="M15 2150 c-3 -5 -1 -10 4 -10 6 0 11 5 11 10 0 6 -2 10 -4 10 -3 0
-8 -4 -11 -10z"/>
<path d="M1102 2065 c0 -16 2 -22 5 -12 2 9 2 23 0 30 -3 6 -5 -1 -5 -18z"/>
<path d="M742 1895 c0 -16 2 -22 5 -12 2 9 2 23 0 30 -3 6 -5 -1 -5 -18z"/>
<path d="M521 1726 c-10 -17 -10 -29 -2 -42 6 -11 11 -14 11 -6 0 7 5 10 11 7
6 -4 10 -1 8 6 -3 28 1 40 12 33 7 -4 10 -1 7 7 -8 24 -34 21 -47 -5z"/>
<path d="M550 1639 c0 -5 5 -7 10 -4 6 3 10 8 10 11 0 2 -4 4 -10 4 -5 0 -10
-5 -10 -11z"/>
<path d="M341 1561 c-9 -6 -11 -14 -4 -26 9 -15 11 -14 15 9 3 14 5 26 4 26 0
0 -7 -4 -15 -9z"/>
<path d="M595 1550 c3 -5 11 -10 16 -10 6 0 7 5 4 10 -3 6 -11 10 -16 10 -6 0
-7 -4 -4 -10z"/>
<path d="M630 1530 c0 -5 -14 -10 -32 -10 -38 0 -32 -10 11 -15 25 -3 31 -1
31 15 0 11 -2 20 -5 20 -3 0 -5 -4 -5 -10z"/>
<path d="M600 1490 c0 -5 5 -10 11 -10 5 0 7 5 4 10 -3 6 -8 10 -11 10 -2 0
-4 -4 -4 -10z"/>
<path d="M430 1486 c0 -2 9 -6 20 -9 11 -3 18 -1 14 4 -5 9 -34 13 -34 5z"/>
<path d="M580 1477 c0 -9 -4 -17 -10 -17 -5 0 -10 5 -10 11 0 8 -5 8 -15 -1
-16 -14 -20 -40 -6 -40 5 0 22 6 39 13 27 11 29 14 16 32 -12 16 -14 17 -14 2z"/>
<path d="M6 1433 c-3 -3 -6 -70 -6 -148 l0 -141 78 9 c132 15 119 1 118 127
-1 106 -3 115 -33 111 -7 -1 -29 7 -50 17 -21 11 -43 17 -50 15 -7 -2 -21 0
-31 6 -11 6 -22 7 -26 4z"/>
<path d="M516 1384 c-5 -14 -4 -15 9 -4 17 14 19 20 6 20 -5 0 -12 -7 -15 -16z"/>
<path d="M262 1231 c4 -13 18 -16 19 -4 0 4 -5 9 -11 12 -7 2 -11 -2 -8 -8z"/>
<path d="M282 1208 c-19 -19 -14 -30 8 -18 11 6 20 15 20 20 0 14 -14 12 -28
-2z"/>
<path d="M1155 410 c-13 -5 -14 -9 -5 -9 8 0 24 4 35 9 13 5 14 9 5 9 -8 0
-24 -4 -35 -9z"/>
<path d="M2530 172 c0 -5 7 -13 16 -16 10 -4 14 -1 12 6 -5 15 -28 23 -28 10z"/>
<path d="M20 69 c36 -15 238 -69 253 -68 6 0 -46 18 -117 40 -119 36 -196 52
-136 28z"/>
<path d="M0 19 c0 -17 7 -19 57 -19 31 0 54 2 52 4 -2 2 -28 11 -56 19 -51 15
-53 15 -53 -4z"/>
</g>
</svg>
