<?xml version="1.0" standalone="no"?>
<!DOCTYPE svg PUBLIC "-//W3C//DTD SVG 20010904//EN"
 "http://www.w3.org/TR/2001/REC-SVG-20010904/DTD/svg10.dtd">
<svg version="1.0" xmlns="http://www.w3.org/2000/svg"
 width="817.000000pt" height="434.000000pt" viewBox="0 0 817.000000 434.000000"
 preserveAspectRatio="xMidYMid meet">

<g transform="translate(0.000000,434.000000) scale(0.100000,-0.100000)"
fill="#000000" stroke="none">
<path d="M1715 4036 c-33 -13 -107 -43 -165 -67 -110 -45 -113 -45 -275 -35
-83 5 -97 4 -81 -6 11 -7 30 -23 42 -35 33 -31 98 -33 152 -5 23 13 77 36 120
51 133 50 292 113 292 117 0 9 -28 2 -85 -20z"/>
<path d="M2071 3940 c-55 -8 -101 -27 -101 -42 0 -4 5 -8 10 -8 19 0 10 -17
-15 -28 -14 -6 -24 -17 -23 -24 2 -7 -3 -12 -11 -10 -13 3 -40 -24 -41 -40 0
-5 11 -8 25 -8 18 0 23 -4 18 -16 -5 -14 -3 -15 15 -5 15 8 28 9 41 2 15 -9
28 -2 73 39 31 28 82 64 114 81 75 40 85 49 51 49 -15 0 -27 5 -27 10 0 11
-50 11 -129 0z m-71 -154 c0 -3 -4 -8 -10 -11 -5 -3 -10 -1 -10 4 0 6 5 11 10
11 6 0 10 -2 10 -4z"/>
<path d="M1955 3720 c4 -11 2 -20 -4 -20 -6 0 -11 -4 -11 -10 0 -5 7 -7 15 -4
15 6 17 54 2 54 -5 0 -5 -9 -2 -20z"/>
<path d="M2420 3733 c-47 -17 -78 -77 -98 -185 -10 -53 -16 -48 105 -87 73
-23 160 -20 181 7 24 32 35 93 23 133 -11 36 -70 99 -93 99 -6 0 -19 6 -27 14
-19 16 -70 27 -91 19z m65 -133 c3 -5 -3 -15 -14 -22 -15 -9 -17 -16 -10 -30
7 -13 6 -18 -5 -18 -7 0 -16 -7 -20 -15 -3 -8 -12 -15 -20 -15 -11 0 -14 12
-11 53 2 28 4 53 4 55 3 7 71 0 76 -8z m41 -57 c-3 -4 4 -13 16 -20 18 -10 20
-12 6 -13 -10 0 -19 -8 -19 -17 -1 -10 -5 -4 -8 12 -7 30 -5 45 6 45 4 0 3 -3
-1 -7z"/>
<path d="M1935 3613 c-25 -67 -39 -78 -32 -25 3 23 1 42 -4 42 -5 0 -9 -7 -9
-15 0 -8 -6 -29 -14 -47 -15 -35 -34 -113 -40 -165 -3 -17 -9 -40 -14 -50 -12
-21 6 -52 26 -46 6 3 12 -3 12 -11 0 -16 13 -23 69 -41 22 -7 23 -5 19 24 -3
18 0 34 5 38 9 6 5 -74 -8 -135 -11 -49 26 -86 39 -39 l7 22 9 -22 c17 -42 32
-27 50 52 l7 30 2 -28 c0 -16 -4 -37 -10 -49 -14 -26 -6 -33 46 -34 46 -1 105
-21 105 -35 0 -5 -6 -28 -14 -51 -18 -55 -28 -136 -17 -140 4 -2 23 -36 41
-76 19 -40 44 -81 56 -91 24 -19 48 -108 45 -172 -1 -20 5 -55 14 -78 8 -23
12 -55 9 -71 -9 -45 4 -100 21 -93 10 3 15 -1 15 -12 0 -9 -4 -14 -8 -11 -8 5
-3 -51 18 -209 5 -44 7 -127 4 -185 -3 -58 -1 -208 4 -335 5 -126 9 -231 8
-232 0 -1 -84 -18 -186 -39 -102 -21 -191 -44 -198 -51 -7 -7 -9 -13 -4 -13 9
0 28 -65 24 -82 -1 -3 20 -14 46 -24 26 -10 52 -21 57 -24 6 -4 33 -8 60 -9
63 -1 105 -10 105 -21 0 -15 -36 -30 -61 -24 -13 2 -51 7 -84 10 -33 2 -73 7
-89 9 -25 4 -28 3 -22 -18 3 -12 6 -25 6 -29 0 -5 9 -8 20 -8 15 0 20 -7 20
-25 0 -14 -5 -25 -11 -25 -6 0 -3 -7 5 -16 19 -18 13 -34 -12 -34 -15 0 -15 2
-2 10 13 9 11 13 -9 31 -17 14 -26 16 -31 8 -4 -6 -25 -10 -50 -7 -35 2 -43 0
-46 -14 -2 -18 30 -44 197 -158 52 -36 108 -75 123 -87 l28 -23 -7 -96 c-4
-53 -14 -112 -22 -132 -11 -25 -11 -37 -3 -42 7 -4 -1 -12 -19 -20 -28 -11
-36 -21 -32 -42 0 -5 -4 -8 -9 -8 -6 0 -10 -7 -10 -15 0 -8 -18 -33 -40 -55
l-40 -40 58 28 c31 15 63 32 69 39 14 13 7 43 -10 43 -7 0 -7 4 1 12 10 10 15
10 22 -2 8 -12 10 -12 16 4 5 14 9 15 15 4 7 -11 9 -11 9 0 0 13 38 51 52 52
4 0 8 -10 10 -23 3 -21 6 -23 36 -15 20 6 40 21 55 43 12 19 27 35 32 35 6 0
26 14 45 30 l35 29 -32 33 c-18 18 -33 30 -33 26 0 -4 7 -13 15 -22 13 -13 3
-21 -92 -70 -58 -31 -107 -56 -107 -56 -1 0 -3 57 -4 126 -3 113 -2 126 12
121 9 -4 16 -5 16 -3 0 2 -51 41 -112 86 -62 46 -128 96 -146 112 l-33 28 40
0 c22 0 41 5 43 12 3 8 28 -1 74 -25 38 -20 58 -29 45 -20 -62 44 -67 51 -52
65 10 9 12 9 7 1 -5 -9 1 -13 18 -13 16 0 26 6 26 15 0 8 7 15 16 15 14 0 14
2 1 15 -17 17 -12 51 9 59 8 3 14 13 14 23 1 17 2 16 15 -1 8 -11 15 -16 15
-11 0 5 7 0 15 -11 13 -17 14 -17 15 -1 0 10 8 17 20 17 11 0 23 0 28 0 4 0 8
-4 8 -10 1 -5 2 -14 3 -20 1 -9 51 -15 51 -6 0 3 -4 16 -9 29 -10 25 -8 26 62
41 156 33 185 38 257 45 l75 8 -68 1 -69 2 7 52 c4 29 13 65 20 79 9 20 10 42
3 85 -10 60 -5 221 12 419 17 196 29 695 19 774 -9 72 -26 141 -57 230 -9 27
-14 72 -13 113 2 65 1 67 -24 74 -26 6 -26 7 -4 18 12 6 20 13 19 16 -2 3 2
15 9 28 8 15 8 22 1 22 -7 0 -7 6 0 21 14 24 9 32 -14 23 -9 -3 -16 -17 -16
-30 0 -26 -10 -30 -28 -12 -8 8 -7 15 6 27 9 9 18 25 20 36 2 11 4 29 6 40 2
11 4 24 5 28 0 5 7 5 14 1 9 -6 9 -5 0 7 -7 8 -10 25 -6 37 4 17 1 22 -16 22
-18 0 -19 -3 -11 -25 8 -21 7 -25 -9 -25 -14 0 -17 -6 -13 -25 3 -19 0 -25
-12 -25 -25 0 -58 19 -51 30 3 5 1 11 -5 15 -16 10 -12 22 10 28 24 6 36 35
45 112 l8 58 -23 -16 c-18 -13 -27 -14 -44 -4 -12 6 -48 19 -81 28 -33 8 -68
19 -77 23 -14 7 -17 0 -20 -45 -2 -29 -8 -54 -14 -56 -13 -4 -15 30 -1 38 5 4
-17 10 -49 14 -50 5 -77 4 -132 -7 -4 -1 -15 2 -25 7 -9 4 -29 5 -42 3 -14 -3
-25 -1 -25 4 0 6 -11 7 -25 4 -14 -4 -25 -3 -25 2 0 8 -7 10 -47 13 -47 4 -54
52 -27 188 10 52 13 85 7 96 -8 13 -13 7 -28 -32z m74 -395 c-1 -43 -2 -48 -9
-27 -7 24 -3 79 6 79 2 0 4 -24 3 -52z m268 -54 c-3 -3 -12 -4 -19 -1 -8 3 -5
6 6 6 11 1 17 -2 13 -5z m228 -45 c14 -14 -54 -9 -100 6 -40 14 -40 14 25 8
36 -3 69 -9 75 -14z m-228 5 c-3 -3 -12 -4 -19 -1 -8 3 -5 6 6 6 11 1 17 -2
13 -5z m323 -42 c0 -15 -8 -19 -32 -19 l-33 -1 28 12 c15 7 24 15 21 19 -4 4
-2 7 4 7 7 0 12 -8 12 -18z m-71 -18 c10 -9 -55 -3 -69 6 -10 6 -2 7 25 3 22
-3 42 -7 44 -9z m107 -88 c2 -17 -22 -21 -45 -7 -12 8 -12 11 0 24 16 17 41 8
45 -17z m-94 -21 c65 -1 84 -11 42 -21 -30 -8 -113 10 -129 28 -7 8 -4 9 10 3
11 -5 46 -9 77 -10z m88 -49 c-9 -9 -24 -13 -38 -10 -34 9 -26 20 16 22 33 3
35 1 22 -12z m-240 -1687 c17 -1 -27 -17 -52 -18 -12 -1 -15 4 -11 15 4 10 13
14 27 10 11 -3 28 -6 36 -7z m-70 -183 c0 -11 -19 -15 -25 -6 -3 5 1 10 9 10
9 0 16 -2 16 -4z m-337 -123 c-7 -2 -19 -2 -25 0 -7 3 -2 5 12 5 14 0 19 -2
13 -5z m51 -1 c2 -4 1 -14 -3 -21 -6 -9 -10 -7 -14 8 -5 20 7 29 17 13z"/>
<path d="M2078 3616 c-18 -25 -15 -36 13 -36 17 0 33 36 23 52 -8 13 -18 9
-36 -16z"/>
<path d="M2075 3530 c18 -35 33 -32 33 5 0 20 -6 25 -25 25 -23 0 -23 -1 -8
-30z"/>
<path d="M2641 3339 c0 -9 6 -30 14 -45 14 -27 15 -27 15 -6 0 12 -4 22 -9 22
-5 0 -12 10 -14 23 -2 12 -5 15 -6 6z"/>
<path d="M2631 3293 c-1 -6 -4 -20 -7 -30 -5 -17 -5 -17 6 0 6 10 9 23 6 30
-3 9 -5 9 -5 0z"/>
<path d="M2650 3240 c0 -11 4 -20 9 -20 5 0 11 9 14 20 3 13 0 20 -9 20 -8 0
-14 -9 -14 -20z"/>
<path d="M5086 3048 c6 -95 11 -115 23 -102 5 5 6 48 3 97 -3 64 -8 87 -18 87
-11 0 -12 -17 -8 -82z"/>
<path d="M2660 3080 c0 -11 2 -20 5 -20 2 0 9 9 15 20 9 16 8 20 -5 20 -8 0
-15 -9 -15 -20z"/>
<path d="M3590 3068 c0 -18 4 -40 9 -47 8 -12 11 -8 16 15 4 16 9 37 12 47 3
12 -1 17 -16 17 -17 0 -21 -6 -21 -32z"/>
<path d="M5149 3038 c-7 -33 -6 -229 2 -233 6 -4 8 2 4 17 -5 21 -2 53 21 181
5 30 4 37 -10 37 -9 0 -16 -1 -17 -2z"/>
<path d="M5962 2623 c2 -29 8 -48 17 -51 9 -3 11 0 6 8 -4 6 -2 22 5 35 15 28
7 55 -15 55 -13 0 -15 -9 -13 -47z"/>
<path d="M8015 1799 c-4 -6 -6 -27 -5 -47 4 -81 0 -103 -26 -148 -19 -32 -24
-49 -16 -52 17 -5 15 -16 -20 -108 -23 -61 -36 -84 -49 -84 -18 0 -35 -35 -49
-100 -4 -19 -11 -42 -14 -51 -6 -13 3 -20 41 -32 27 -9 56 -19 65 -22 17 -7
23 8 119 255 27 69 49 137 49 151 0 14 11 47 24 72 13 26 20 47 15 47 -4 0
-11 -4 -14 -10 -3 -5 -14 -10 -24 -10 -17 0 -33 35 -66 138 -5 15 -21 16 -30
1z"/>
<path d="M7813 1138 c-23 -36 -35 -58 -58 -107 -22 -46 -24 -58 -15 -77 13
-24 7 -42 -256 -672 -63 -150 -114 -274 -114 -277 0 -3 19 -5 43 -5 l44 0 25
63 c253 630 343 840 363 847 24 9 59 93 70 166 l6 42 -47 16 c-57 19 -51 19
-61 4z"/>
<path d="M4740 1120 c0 -17 7 -20 50 -20 38 0 50 4 50 15 0 8 -8 16 -17 16
-10 1 -33 3 -50 5 -28 3 -33 0 -33 -16z"/>
<path d="M4850 1120 c0 -13 28 -25 38 -16 3 4 0 11 -8 16 -20 13 -30 12 -30 0z"/>
<path d="M2883 1083 c15 -2 37 -2 50 0 12 2 0 4 -28 4 -27 0 -38 -2 -22 -4z"/>
<path d="M3048 1073 c6 -2 18 -2 25 0 6 3 1 5 -13 5 -14 0 -19 -2 -12 -5z"/>
<path d="M1740 1057 c-14 -7 -26 -23 -28 -35 -4 -26 14 -29 40 -5 20 18 34 12
25 -12 -4 -8 -15 -15 -26 -15 -26 0 -36 -17 -21 -35 9 -11 9 -15 1 -15 -6 0
-11 -9 -11 -20 0 -13 7 -20 20 -20 18 0 20 -4 14 -40 -4 -21 -3 -60 0 -85 6
-39 9 -43 22 -31 8 8 14 34 14 60 0 25 4 47 9 50 5 3 7 15 4 26 -4 15 0 20 15
20 28 0 31 -26 10 -81 -21 -57 -33 -142 -23 -166 7 -17 8 -17 15 2 8 18 9 18
9 2 1 -10 7 -17 14 -15 24 9 48 273 25 281 -7 2 -2 2 10 0 17 -3 21 0 16 8 -5
9 -2 10 12 5 12 -4 15 -4 9 2 -5 5 -26 15 -45 21 -27 8 -42 23 -62 61 -31 55
-32 55 -68 37z"/>
<path d="M1844 1061 c3 -5 15 -7 26 -4 28 7 25 13 -6 13 -14 0 -23 -4 -20 -9z"/>
<path d="M6695 1020 c-4 -7 3 -8 22 -4 38 9 42 14 10 14 -14 0 -29 -5 -32 -10z"/>
<path d="M2490 1008 c0 -4 11 -8 23 -8 21 0 24 -5 25 -42 3 -72 7 -98 15 -98
4 0 7 15 8 33 0 17 1 51 2 74 1 22 -1 39 -5 36 -5 -2 -8 0 -8 5 0 4 -13 8 -30
8 -16 0 -30 -3 -30 -8z"/>
<path d="M6410 1010 c19 -13 30 -13 30 0 0 6 -10 10 -22 10 -19 0 -20 -2 -8
-10z"/>
<path d="M6170 990 c-13 -9 -13 -10 0 -9 8 1 26 5 40 9 l25 8 -25 1 c-14 0
-32 -4 -40 -9z"/>
<path d="M6528 993 c7 -3 16 -2 19 1 4 3 -2 6 -13 5 -11 0 -14 -3 -6 -6z"/>
<path d="M3186 954 c-9 -8 -16 -11 -16 -5 0 12 -29 15 -31 4 -6 -33 -5 -53 2
-53 4 0 14 -3 23 -6 9 -3 16 -1 16 5 0 6 -7 11 -16 11 -8 0 -12 5 -9 11 4 6
13 8 21 5 7 -3 16 -1 20 5 4 6 14 4 29 -5 15 -10 26 -12 30 -6 3 6 1 10 -4 10
-6 0 -11 4 -11 9 0 5 9 7 20 4 12 -3 20 0 20 7 0 9 -11 11 -35 7 -21 -3 -33
-2 -30 4 10 15 -12 10 -29 -7z"/>
<path d="M5200 934 c0 -17 24 -24 87 -24 71 0 61 12 -23 26 -50 8 -64 8 -64
-2z"/>
<path d="M3047 924 c-15 -15 -6 -34 16 -34 12 0 17 3 11 8 -6 4 -13 13 -15 20
-3 7 -8 10 -12 6z"/>
<path d="M2390 900 c0 -5 -6 -10 -12 -13 -7 -2 -5 -3 5 -2 9 2 17 -2 17 -8 0
-8 4 -7 9 2 7 11 9 11 14 0 4 -10 6 -10 6 2 1 9 -8 19 -19 22 -11 3 -20 1 -20
-3z"/>
<path d="M3280 906 c0 -1 9 -10 21 -19 19 -17 20 -17 17 -1 -1 9 -11 18 -20
20 -10 1 -18 1 -18 0z"/>
<path d="M3728 894 c-7 -7 14 -64 24 -64 4 0 5 -20 1 -45 -3 -25 -2 -45 3 -45
5 0 10 -17 10 -38 1 -20 5 -50 9 -66 6 -23 5 -28 -6 -22 -8 4 -6 1 5 -8 10 -8
15 -19 12 -24 -4 -6 3 -8 15 -5 14 4 18 11 14 22 -9 23 -55 259 -55 282 0 18
-20 26 -32 13z"/>
<path d="M3110 872 c0 -11 -6 -22 -12 -25 -10 -3 -9 -9 4 -22 15 -17 11 -20
-70 -61 -106 -52 -104 -57 3 -8 43 20 91 37 108 40 35 4 46 12 29 23 -9 5 -9
12 3 27 22 29 18 40 -5 13 -11 -13 -19 -18 -18 -11 2 8 -7 21 -19 29 -22 14
-23 14 -23 -5z"/>
<path d="M4430 878 c0 -28 33 -43 89 -40 28 2 51 9 51 14 0 7 -20 9 -55 5 -48
-5 -57 -3 -70 16 -12 17 -15 18 -15 5z"/>
<path d="M2291 864 c0 -11 3 -14 6 -6 3 7 2 16 -1 19 -3 4 -6 -2 -5 -13z"/>
<path d="M5105 850 c-3 -5 3 -10 14 -10 11 0 23 5 26 10 3 6 -3 10 -14 10 -11
0 -23 -4 -26 -10z"/>
<path d="M5224 851 c7 -11 56 -21 56 -11 0 9 -25 20 -46 20 -9 0 -13 -4 -10
-9z"/>
<path d="M6687 846 c-17 -13 -13 -15 33 -25 28 -6 79 -10 113 -9 60 2 61 2 12
5 -27 2 -54 8 -59 14 -6 5 -18 9 -28 9 -10 0 -18 5 -18 10 0 14 -32 12 -53 -4z"/>
<path d="M2291 821 c-1 -8 -8 -11 -18 -7 -15 5 -14 3 2 -9 20 -16 31 -7 22 18
-4 9 -6 9 -6 -2z"/>
<path d="M5040 820 c20 -5 39 -5 45 1 5 5 -8 9 -35 8 l-45 -1 35 -8z"/>
<path d="M2636 805 c-3 -8 -1 -15 3 -15 5 0 11 7 15 15 3 8 1 15 -3 15 -5 0
-11 -7 -15 -15z"/>
<path d="M3381 748 c5 -18 9 -51 10 -73 0 -22 4 -49 9 -60 9 -20 9 -20 9 1 1
11 6 25 12 31 8 8 6 19 -5 41 -15 29 -15 30 4 25 21 -6 24 5 14 45 -5 16 -14
22 -34 22 -27 0 -28 -1 -19 -32z"/>
<path d="M1742 725 c1 -16 -5 -68 -11 -115 -6 -47 -15 -143 -21 -215 -6 -72
-13 -149 -16 -173 -5 -36 -4 -41 10 -36 14 5 16 0 14 -27 -2 -41 -36 -125 -37
-93 -1 11 -8 21 -16 21 -21 0 -48 -33 -42 -51 7 -17 74 -33 87 -20 5 5 14 67
20 139 6 72 16 153 21 180 11 62 18 375 8 375 -4 0 -10 10 -12 23 -3 16 -5 14
-5 -8z"/>
<path d="M3687 732 c-2 -11 -2 -37 2 -58 5 -34 10 -39 35 -42 25 -3 28 -1 23
20 -3 13 -9 40 -12 61 -8 40 -39 53 -48 19z"/>
<path d="M5238 743 c12 -2 30 -2 40 0 9 3 -1 5 -23 4 -22 0 -30 -2 -17 -4z"/>
<path d="M5513 733 c-18 -7 -16 -23 2 -23 8 0 15 7 15 15 0 8 -1 15 -2 14 -2
0 -9 -3 -15 -6z"/>
<path d="M6370 731 c0 -6 -11 -11 -25 -11 -25 0 -36 -19 -12 -21 29 -1 -32
-18 -70 -18 -31 -1 -43 3 -43 13 0 19 -19 23 -120 25 -47 1 -104 4 -127 7 -27
4 -43 2 -43 -4 0 -6 8 -13 18 -15 9 -2 7 -3 -5 -1 -13 2 -35 7 -50 10 -22 6
-25 4 -20 -10 4 -11 1 -16 -11 -16 -14 0 -14 -2 -3 -9 11 -7 7 -10 -15 -14
l-29 -4 31 -2 c34 -1 54 -28 32 -43 -9 -6 -7 -8 7 -7 11 1 23 0 28 -1 4 -1 10
-3 15 -4 4 -1 14 -6 22 -11 17 -11 90 -14 90 -3 0 4 15 2 32 -3 50 -14 81 -12
75 5 -7 17 15 23 56 18 22 -4 25 -7 16 -18 -9 -11 -6 -14 15 -14 15 0 25 4 22
9 -4 5 3 7 15 4 14 -4 17 -8 9 -13 -7 -4 5 -9 29 -12 24 -2 46 2 54 9 6 6 23
14 37 16 14 2 19 2 13 0 -20 -7 -15 -23 6 -23 11 0 21 -5 23 -10 2 -6 41 -12
88 -15 47 -2 75 -2 63 1 -13 3 -23 10 -23 16 0 6 9 8 21 5 14 -4 19 -2 15 8
-2 7 2 16 10 19 8 3 14 -1 14 -9 0 -9 15 -17 38 -20 20 -4 48 -10 62 -15 22
-7 22 -9 5 -10 -11 -2 0 -6 25 -10 25 -4 47 -4 50 -1 3 3 30 8 60 10 30 2 64
8 75 14 19 11 19 12 -7 15 -27 3 -27 3 -7 23 10 10 20 30 21 44 0 14 1 30 2
37 2 25 -165 40 -188 17 -14 -13 -103 -11 -129 3 -17 10 -102 16 -229 18 -4 0
-14 7 -22 16 -9 8 -16 11 -16 5z m-260 -33 c0 -4 9 -8 21 -10 l21 -3 -21 -24
c-12 -13 -24 -22 -27 -19 -3 3 2 13 11 21 14 14 13 16 -5 22 -11 3 -29 3 -40
0 -18 -6 -27 4 -16 16 7 7 56 4 56 -3z m-135 -18 c4 -6 -12 -10 -42 -10 -35 0
-44 3 -33 10 20 13 67 13 75 0z m62 -6 c-3 -3 -12 -4 -19 -1 -8 3 -5 6 6 6 11
1 17 -2 13 -5z m157 -7 c16 -12 16 -13 -3 -13 -11 0 -23 6 -25 13 -3 7 -2 13
2 13 5 0 16 -6 26 -13z m681 1 c3 -3 -2 -11 -12 -19 -11 -9 -14 -10 -9 -1 4 7
1 12 -8 12 -9 0 -16 -4 -16 -10 0 -6 -10 -6 -27 1 -20 7 -28 6 -35 -3 -5 -9
-8 -9 -8 -1 0 6 -14 11 -32 11 -69 -1 -70 6 -3 11 86 7 142 7 150 -1z m-855
-17 c0 -5 -9 -7 -20 -4 -11 3 -20 7 -20 9 0 2 9 4 20 4 11 0 20 -4 20 -9z
m263 2 c-7 -2 -19 -2 -25 0 -7 3 -2 5 12 5 14 0 19 -2 13 -5z m121 -8 c-6 -14
-44 -22 -44 -10 0 4 29 19 47 24 1 1 0 -6 -3 -14z m-62 -7 c-9 -9 -15 -9 -24
0 -9 9 -7 12 12 12 19 0 21 -3 12 -12z m591 -13 c-3 -9 -8 -14 -10 -11 -3 3
-2 9 2 15 9 16 15 13 8 -4z m-256 -1 c-3 -3 -12 -4 -19 -1 -8 3 -5 6 6 6 11 1
17 -2 13 -5z m133 -3 c0 -18 -94 -29 -104 -12 -3 5 13 9 35 9 23 1 44 3 47 6
9 9 22 7 22 -3z m60 -21 c0 -5 -4 -10 -10 -10 -5 0 -10 5 -10 10 0 6 5 10 10
10 6 0 10 -4 10 -10z m-332 -38 c5 -17 -19 -14 -43 4 -19 15 -19 15 9 11 17
-2 32 -9 34 -15z m349 12 c-3 -3 -12 -4 -19 -1 -8 3 -5 6 6 6 11 1 17 -2 13
-5z"/>
<path d="M5751 709 c-14 -5 -30 -8 -37 -5 -10 4 -11 -1 -5 -17 11 -30 34 -32
46 -5 6 13 15 23 22 23 6 0 15 3 19 8 10 10 -16 8 -45 -4z"/>
<path d="M5828 713 c6 -2 18 -2 25 0 6 3 1 5 -13 5 -14 0 -19 -2 -12 -5z"/>
<path d="M6250 706 c0 -2 7 -6 15 -10 8 -3 15 -1 15 4 0 6 -7 10 -15 10 -8 0
-15 -2 -15 -4z"/>
<path d="M4380 630 c0 -5 5 -10 10 -10 6 0 10 5 10 10 0 6 -4 10 -10 10 -5 0
-10 -4 -10 -10z"/>
<path d="M1800 618 c0 -7 -3 -24 -6 -38 -4 -18 -3 -21 4 -11 5 7 15 10 22 6 8
-5 11 1 8 21 -3 28 -28 47 -28 22z"/>
<path d="M2700 602 c-30 -14 -49 -27 -43 -29 11 -4 103 44 103 53 0 5 5 7 -60
-24z"/>
<path d="M4845 550 c-16 -7 -17 -9 -3 -9 9 -1 20 4 23 9 7 11 7 11 -20 0z"/>
<path d="M1781 534 c0 -11 3 -14 6 -6 3 7 2 16 -1 19 -3 4 -6 -2 -5 -13z"/>
<path d="M5170 540 c0 -5 7 -10 16 -10 8 0 12 5 9 10 -3 6 -10 10 -16 10 -5 0
-9 -4 -9 -10z"/>
<path d="M6270 530 c-12 -7 -11 -10 5 -16 11 -5 20 -3 23 4 2 7 9 9 14 6 7 -4
8 -2 4 4 -9 14 -26 15 -46 2z"/>
<path d="M6330 536 c0 -2 11 -6 25 -8 13 -3 22 -1 19 3 -5 9 -44 13 -44 5z"/>
<path d="M6462 524 c6 -5 39 -12 88 -18 14 -1 36 3 50 10 23 12 17 14 -59 14
-46 0 -82 -3 -79 -6z"/>
<path d="M5270 506 c0 -2 7 -7 16 -10 8 -3 12 -2 9 4 -6 10 -25 14 -25 6z"/>
<path d="M4352 453 c-28 -53 -51 -213 -32 -213 5 0 9 8 8 18 -1 42 15 150 28
180 14 34 11 44 -4 15z"/>
<path d="M4471 456 c-9 -10 -8 -15 4 -20 10 -4 15 1 15 14 0 24 -4 25 -19 6z"/>
<path d="M1773 429 c-2 -19 11 -26 21 -10 3 5 0 14 -7 19 -10 8 -13 6 -14 -9z"/>
<path d="M3790 414 c0 -8 5 -12 10 -9 6 3 10 10 10 16 0 5 -4 9 -10 9 -5 0
-10 -7 -10 -16z"/>
<path d="M4277 410 c-14 -37 -14 -63 -2 -86 l13 -25 5 23 c7 28 -8 109 -16 88z"/>
<path d="M5991 407 c-25 -31 79 -50 115 -21 18 15 18 15 -6 10 -14 -3 -38 1
-54 9 -35 18 -41 19 -55 2z"/>
<path d="M3833 381 c-12 -47 -5 -104 13 -97 8 3 14 -1 14 -10 0 -9 -5 -12 -12
-8 -8 5 -9 -1 -5 -22 9 -46 26 -84 37 -84 14 0 13 47 -2 52 -7 3 -13 33 -14
79 -2 41 -7 86 -12 100 -10 24 -10 24 -19 -10z"/>
<path d="M5485 400 c-3 -5 -1 -10 4 -10 6 0 11 5 11 10 0 6 -2 10 -4 10 -3 0
-8 -4 -11 -10z"/>
<path d="M5665 390 c3 -5 8 -10 11 -10 2 0 4 5 4 10 0 6 -5 10 -11 10 -5 0 -7
-4 -4 -10z"/>
<path d="M5840 380 c-12 -8 -11 -10 8 -10 12 0 22 5 22 10 0 13 -11 13 -30 0z"/>
<path d="M6428 333 c7 -3 16 -2 19 1 4 3 -2 6 -13 5 -11 0 -14 -3 -6 -6z"/>
<path d="M6461 336 c8 -8 88 -10 95 -3 4 4 -17 7 -46 7 -29 0 -51 -2 -49 -4z"/>
<path d="M2283 297 c-50 -24 -56 -42 -51 -157 3 -86 17 -97 63 -57 28 24 39
77 16 85 -6 2 -11 16 -10 30 0 24 1 25 9 7 10 -24 12 -21 15 30 1 22 5 50 9
63 9 27 3 27 -51 -1z"/>
<path d="M6000 236 c0 -7 102 -66 165 -96 79 -37 80 -38 73 -46 -4 -3 -16 -1
-27 6 -12 6 -21 7 -21 2 0 -4 18 -16 40 -26 22 -10 38 -22 35 -27 -4 -5 -14
-5 -25 1 -10 5 -26 7 -34 4 -9 -3 -16 -1 -16 6 0 6 -4 8 -10 5 -5 -3 -10 1
-10 9 0 18 -16 21 -26 5 -3 -6 -17 -8 -31 -4 -16 4 -22 2 -18 -5 3 -5 10 -10
15 -10 5 0 31 -14 57 -30 46 -29 50 -30 172 -30 l126 1 -50 25 c-27 15 -124
65 -215 113 -164 85 -200 103 -200 97z m267 -152 c-3 -3 -12 -4 -19 -1 -8 3
-5 6 6 6 11 1 17 -2 13 -5z"/>
<path d="M3476 183 c10 -41 27 -55 22 -18 -3 17 -3 24 -1 17 4 -10 8 -10 19
-1 22 18 16 29 -16 29 -28 0 -30 -2 -24 -27z"/>
<path d="M4185 150 c7 -11 45 -20 45 -10 0 4 -11 10 -25 12 -13 3 -22 2 -20
-2z"/>
<path d="M6020 121 c0 -14 38 -34 53 -27 7 2 5 5 -5 5 -9 1 -24 8 -32 17 -9 8
-16 11 -16 5z"/>
<path d="M4222 95 c0 -16 2 -22 5 -12 2 9 2 23 0 30 -3 6 -5 -1 -5 -18z"/>
<path d="M4210 20 c0 -26 6 -26 13 0 3 11 1 20 -4 20 -5 0 -9 -9 -9 -20z"/>
</g>
</svg>
