<?xml version="1.0" standalone="no"?>
<!DOCTYPE svg PUBLIC "-//W3C//DTD SVG 20010904//EN"
 "http://www.w3.org/TR/2001/REC-SVG-20010904/DTD/svg10.dtd">
<svg version="1.0" xmlns="http://www.w3.org/2000/svg"
 width="354.000000pt" height="557.000000pt" viewBox="0 0 354.000000 557.000000"
 preserveAspectRatio="xMidYMid meet">

<g transform="translate(0.000000,557.000000) scale(0.100000,-0.100000)"
fill="#000000" stroke="none">
<path d="M75 5353 c17 -8 43 -27 59 -42 28 -25 29 -25 13 -2 -19 28 -66 61
-87 61 -8 -1 -1 -8 15 -17z"/>
<path d="M1 5144 c-2 -44 11 -74 31 -74 5 0 7 4 3 9 -3 6 4 19 16 30 20 18 19
48 -2 36 -5 -4 -9 1 -9 9 0 8 -8 20 -18 25 -16 9 -19 5 -21 -35z"/>
<path d="M27 5053 c-12 -12 -7 -22 8 -17 8 4 15 10 15 15 0 11 -14 12 -23 2z"/>
<path d="M3425 4881 c-130 -33 -153 -41 -105 -37 20 1 40 5 45 8 6 3 47 14 93
24 45 9 82 21 82 26 0 4 -1 8 -2 7 -2 0 -53 -13 -113 -28z"/>
<path d="M3183 4822 c-35 -8 -63 -19 -63 -23 0 -4 23 -1 50 6 28 7 51 13 53
14 2 0 19 5 47 14 35 12 -29 4 -87 -11z"/>
<path d="M3088 4793 c7 -3 16 -2 19 1 4 3 -2 6 -13 5 -11 0 -14 -3 -6 -6z"/>
<path d="M3008 4773 c7 -3 16 -2 19 1 4 3 -2 6 -13 5 -11 0 -14 -3 -6 -6z"/>
<path d="M2968 4763 c7 -3 16 -2 19 1 4 3 -2 6 -13 5 -11 0 -14 -3 -6 -6z"/>
<path d="M2848 4733 c7 -3 16 -2 19 1 4 3 -2 6 -13 5 -11 0 -14 -3 -6 -6z"/>
<path d="M2798 4723 c6 -2 18 -2 25 0 6 3 1 5 -13 5 -14 0 -19 -2 -12 -5z"/>
<path d="M2758 4713 c7 -3 16 -2 19 1 4 3 -2 6 -13 5 -11 0 -14 -3 -6 -6z"/>
<path d="M2718 4703 c7 -3 16 -2 19 1 4 3 -2 6 -13 5 -11 0 -14 -3 -6 -6z"/>
<path d="M2655 4690 c-13 -5 -14 -9 -5 -9 8 0 24 4 35 9 13 5 14 9 5 9 -8 0
-24 -4 -35 -9z"/>
<path d="M2573 4673 c-13 -2 -23 -9 -23 -14 0 -11 50 -1 65 12 9 9 -2 10 -42
2z"/>
<path d="M2490 4650 c-20 -6 -21 -8 -5 -8 11 0 29 3 40 8 25 11 -1 11 -35 0z"/>
<path d="M2415 4633 c-11 -3 -24 -9 -29 -14 -5 -4 8 -3 30 2 58 16 57 26 -1
12z"/>
<path d="M2285 4600 l-20 -9 20 0 c11 0 29 4 40 9 l20 9 -20 0 c-11 0 -29 -4
-40 -9z"/>
<path d="M2238 4583 c7 -3 16 -2 19 1 4 3 -2 6 -13 5 -11 0 -14 -3 -6 -6z"/>
<path d="M1918 4503 c7 -3 16 -2 19 1 4 3 -2 6 -13 5 -11 0 -14 -3 -6 -6z"/>
<path d="M1610 4435 c-306 -75 -334 -83 -302 -84 13 -1 30 -7 38 -15 22 -22
-38 -69 -108 -84 -31 -8 -59 -20 -62 -28 -3 -9 -1 -12 4 -9 6 3 10 1 10 -6 0
-11 5 -11 86 6 l29 6 -30 -15 c-16 -8 -24 -15 -16 -15 7 -1 24 -12 37 -27 21
-22 24 -35 24 -104 l0 -78 -70 -13 c-39 -7 -73 -15 -75 -19 -2 -3 3 -17 10
-31 8 -13 18 -34 24 -45 5 -12 17 -24 25 -27 9 -4 16 -13 16 -22 0 -8 7 -15
15 -15 8 0 15 -9 15 -20 0 -14 -7 -20 -21 -20 -11 0 -17 -4 -14 -10 3 -5 15
-10 26 -10 17 0 19 -4 13 -22 -8 -26 -8 -24 5 -96 9 -50 15 -235 10 -352 -1
-30 -6 -261 -10 -512 -6 -386 -9 -460 -22 -479 -15 -21 -16 -21 -23 16 -7 38
-7 38 -20 14 -13 -23 -13 -22 -14 17 0 24 -6 47 -15 54 -12 10 -15 10 -15 0 0
-8 -2 -11 -4 -9 -4 4 16 130 30 193 6 27 5 29 -16 23 -20 -5 -56 14 -45 24 2
2 -7 5 -20 5 -14 1 -32 9 -40 18 -18 18 -29 21 -20 6 3 -5 2 -10 -4 -10 -13 0
-32 35 -24 44 3 3 1 6 -5 6 -7 0 -12 8 -12 18 0 11 3 13 8 6 4 -7 8 110 10
260 2 154 7 272 13 274 14 6 11 27 -10 53 -22 28 -39 183 -22 194 6 3 11 22
11 41 0 29 -3 34 -22 34 -34 0 -231 -29 -236 -35 -3 -2 2 -15 11 -28 21 -33
26 -103 10 -156 -9 -29 -10 -48 -3 -55 6 -6 4 -13 -6 -20 -16 -12 -22 -55 -23
-149 -1 -36 -5 -56 -11 -52 -6 3 -10 -5 -10 -19 0 -13 -6 -27 -12 -29 -10 -4
-9 -6 1 -6 11 -1 11 -4 1 -16 -7 -8 -8 -15 -3 -15 5 0 10 -26 10 -57 1 -40 -2
-50 -6 -33 -5 14 -11 -55 -15 -160 -7 -186 -15 -276 -23 -252 -7 19 -19 14
-20 -9 -1 -15 2 -19 13 -15 11 4 14 1 12 -11 -5 -26 -38 -29 -38 -4 0 11 -5
23 -10 26 -6 4 -8 10 -5 15 8 13 -24 60 -41 60 -15 0 -15 21 1 32 6 5 6 8 -2
8 -6 0 -14 -4 -18 -9 -3 -6 -14 -8 -25 -6 -11 2 -20 0 -20 -6 0 -5 5 -9 11 -9
5 0 7 -5 3 -12 -5 -8 -11 -6 -20 6 -12 17 -14 17 -38 1 -19 -13 -37 -16 -66
-11 -22 3 -41 2 -45 -4 -3 -5 0 -10 7 -10 10 0 10 -2 -1 -9 -8 -5 -21 -7 -29
-3 -10 3 -13 1 -8 -6 4 -7 1 -12 -8 -12 -9 0 -17 -3 -17 -7 -1 -5 -3 -17 -4
-28 -1 -11 -5 -30 -9 -42 -6 -17 -3 -23 8 -23 10 0 16 9 16 24 0 14 4 27 8 30
5 3 6 -8 4 -25 l-4 -29 54 0 c62 0 71 -5 57 -31 -9 -17 -6 -19 37 -19 37 0 45
3 40 15 -4 12 -2 13 13 3 27 -17 92 -1 98 23 4 15 11 19 27 15 11 -3 54 -6 95
-6 l74 0 -6 -92 c-2 -51 -8 -100 -12 -110 -9 -23 -39 -28 -70 -12 -23 12 -27
11 -33 -4 -8 -20 -63 -23 -75 -4 -10 15 -29 16 -45 0 -16 -16 -64 -17 -81 0
-12 12 -17 11 -30 -5 -22 -27 -101 -32 -101 -7 0 15 -2 16 -17 2 -22 -20 -87
-13 -117 11 -13 11 -18 10 -32 -4 -10 -10 -23 -13 -33 -9 -9 4 -41 8 -71 8
-30 1 -57 4 -60 8 -3 3 -18 4 -33 1 l-28 -5 2 -159 c0 -88 4 -157 9 -154 11 7
40 -5 40 -16 0 -5 -3 -8 -7 -8 -5 1 -15 1 -23 0 -13 -1 -13 -2 0 -11 13 -8 12
-10 -2 -10 -16 0 -18 -15 -18 -170 l0 -170 33 0 c18 0 27 4 20 8 -6 4 51 6
128 4 99 -3 144 -1 152 7 9 9 8 11 -5 6 -10 -4 -18 -3 -18 2 0 6 30 10 68 10
63 0 64 0 22 -7 -38 -6 -35 -7 20 -4 36 2 81 5 100 5 l35 2 -40 7 c-28 5 -12
7 55 7 121 0 527 66 549 89 3 4 -6 4 -21 0 -63 -14 -80 -15 -33 0 42 13 186
63 206 72 10 5 10 -127 0 -146 -5 -10 -12 -38 -15 -61 -5 -41 -4 -43 31 -57
19 -9 42 -13 50 -10 8 3 22 2 31 -3 10 -5 44 -12 77 -16 33 -3 207 -35 387
-71 l326 -65 48 30 c26 17 51 28 57 24 6 -3 7 -2 4 4 -4 6 5 15 19 22 31 14
37 14 29 1 -11 -17 11 -11 35 10 13 11 27 20 32 20 4 0 8 4 8 10 0 5 -8 7 -17
4 -15 -5 -16 -4 -3 5 8 6 26 11 40 11 14 0 43 12 65 25 49 30 55 31 55 4 0
-16 6 -20 28 -18 27 2 47 -3 89 -23 12 -6 38 -7 58 -4 27 5 40 3 48 -7 7 -8
30 -18 52 -22 l39 -7 -24 20 -24 20 29 -1 c58 0 64 2 60 23 -2 12 0 18 6 15 5
-4 7 -11 4 -16 -4 -5 -1 -9 5 -9 6 0 8 -4 5 -10 -3 -5 2 -10 11 -10 14 0 15
-3 6 -12 -35 -35 5 -126 51 -115 12 3 48 9 79 12 51 6 64 4 110 -20 71 -37 91
-48 108 -61 13 -9 53 -19 160 -41 14 -2 44 -6 68 -9 l42 -4 0 239 c0 233 -1
240 -20 243 -12 2 -20 8 -19 13 1 6 10 9 21 7 16 -3 18 4 18 57 0 48 -3 60
-17 64 -17 4 -17 5 0 6 13 1 17 10 17 46 0 39 -3 45 -21 45 -11 0 -17 -5 -14
-10 4 -6 -10 -10 -34 -10 -23 0 -41 5 -41 10 0 6 5 10 12 10 6 0 1 9 -12 20
-22 19 -23 21 -5 40 20 22 65 26 96 10 19 -11 19 -4 19 301 l-1 312 -79 -7
c-44 -3 -86 -9 -95 -12 -20 -8 -20 28 0 123 8 40 22 134 30 210 9 76 17 145
20 153 6 21 39 411 49 585 14 231 19 273 32 268 8 -3 14 0 14 6 0 6 -17 11
-40 11 -22 0 -41 1 -42 1 -2 1 -28 5 -58 10 -38 5 -102 1 -210 -13 -85 -11
-157 -22 -159 -23 -2 -3 15 -64 36 -125 3 -8 4 -179 3 -378 -1 -314 1 -367 14
-388 14 -20 14 -23 1 -18 -11 5 -15 -2 -16 -27 -5 -161 -12 -244 -33 -369 -14
-80 -28 -176 -31 -215 -4 -38 -13 -105 -21 -149 -8 -43 -14 -80 -14 -83 0 -2
-15 -3 -32 -1 l-33 3 0 660 c0 363 3 697 7 743 5 50 4 82 -2 82 -5 0 8 30 29
68 38 66 71 149 71 177 0 8 -6 15 -14 15 -13 0 -32 47 -22 57 2 3 53 13 113
23 59 10 100 18 90 19 -16 1 -114 -11 -191 -24 -21 -4 -27 -2 -23 9 3 8 1 17
-6 19 -7 3 6 3 28 1 31 -3 34 -2 15 4 -24 8 -23 9 12 16 20 4 49 13 63 20 l26
13 -32 7 c-17 3 -44 6 -58 6 -15 0 -31 4 -36 9 -11 9 -131 41 -157 41 -18 0
-198 127 -198 140 0 6 -6 10 -13 10 -8 0 -30 16 -50 35 -20 19 -43 35 -51 35
-9 0 -13 7 -11 19 2 14 -1 18 -10 15 -7 -3 -18 4 -25 15 -6 12 -17 21 -25 21
-8 0 -15 4 -15 10 0 5 -12 13 -27 16 -31 8 -73 29 -82 41 -13 18 -103 53 -136
53 -18 0 -62 -7 -97 -15 -49 -11 -79 -12 -122 -5 -33 5 -61 12 -65 16 -3 4 5
4 19 1 23 -6 24 -5 7 8 -18 13 -18 13 0 18 16 4 16 5 -2 5 -11 0 -135 -28
-275 -63z m245 -5 c3 -6 -1 -7 -9 -4 -18 7 -21 14 -7 14 6 0 13 -4 16 -10z
m-69 -763 c3 -3 -4 -24 -16 -47 -12 -23 -17 -39 -12 -36 5 3 15 19 22 36 15
36 29 38 58 8 38 -42 62 -108 62 -179 0 -68 -15 -129 -32 -129 -5 0 -7 4 -4 9
8 13 -40 42 -57 35 -8 -3 -35 10 -60 29 -42 32 -44 36 -29 49 9 8 25 18 35 21
17 6 23 28 11 40 -6 5 -72 -41 -99 -69 -5 -5 -43 -32 -83 -58 -96 -63 -106
-59 -100 42 8 137 83 239 193 262 29 6 100 -2 111 -13z m533 -132 c29 -34 31
-39 29 -115 -1 -52 -6 -80 -13 -80 -18 0 -71 60 -60 68 6 4 11 14 13 22 2 8 8
17 13 18 20 8 7 31 -18 34 -24 3 -29 8 -33 43 l-6 40 -8 -32 c-4 -18 -5 -43
-1 -55 5 -18 4 -20 -4 -8 -6 8 -11 25 -11 38 0 66 52 80 99 27z m1008 -47 c-3
-7 -5 -2 -5 12 0 14 2 19 5 13 2 -7 2 -19 0 -25z m0 -85 c-3 -10 -5 -4 -5 12
0 17 2 24 5 18 2 -7 2 -21 0 -30z m-1588 -24 c28 -18 51 -36 51 -40 0 -13 53
-37 68 -31 39 13 -57 -91 -108 -118 -13 -7 -49 -13 -78 -12 -43 0 -63 6 -96
29 -22 16 -47 41 -56 56 -13 24 -13 29 0 37 24 15 34 12 19 -7 -13 -16 -12
-17 4 -4 9 8 15 16 13 19 -15 14 90 102 121 102 6 0 34 -14 62 -31z m-292 -11
c-3 -7 -5 -2 -5 12 0 14 2 19 5 13 2 -7 2 -19 0 -25z m790 -4 c-3 -3 -12 -4
-19 -1 -8 3 -5 6 6 6 11 1 17 -2 13 -5z m370 -20 c-3 -3 -12 -4 -19 -1 -8 3
-5 6 6 6 11 1 17 -2 13 -5z m-347 -68 c-7 -7 -10 1 -9 25 0 32 1 33 10 10 6
-16 6 -28 -1 -35z m-1260 19 c0 -8 -4 -15 -10 -15 -5 0 -10 7 -10 15 0 8 5 15
10 15 6 0 10 -7 10 -15z m2407 -17 c-3 -8 -6 -5 -6 6 -1 11 2 17 5 13 3 -3 4
-12 1 -19z m-2567 -22 c0 -2 -7 -7 -16 -10 -8 -3 -12 -2 -9 4 6 10 25 14 25 6z
m159 -68 c0 -40 3 -175 6 -299 l6 -226 -24 -5 c-23 -4 -24 -2 -20 29 3 19 0
40 -6 47 -6 7 -8 15 -5 18 15 15 13 58 -3 67 -17 10 -17 10 0 11 10 0 17 8 17
19 0 23 -16 37 -22 19 -3 -9 -6 -9 -11 -1 -4 6 0 19 10 28 14 15 15 23 6 58
-10 35 -9 43 5 53 14 11 15 16 5 33 -7 12 -13 23 -13 26 0 4 6 3 13 -1 6 -4 3
3 -8 16 -11 13 -15 21 -10 18 18 -10 31 16 30 59 -1 23 2 40 6 37 4 -2 5 5 2
16 -5 19 2 50 11 50 3 0 5 -33 5 -72z m-39 19 c0 -2 -9 -12 -20 -22 -19 -17
-20 -17 -20 -1 0 9 5 14 10 11 6 -3 10 -1 10 4 0 6 5 11 10 11 6 0 10 -2 10
-3z m-133 -89 c-3 -7 -5 -2 -5 12 0 14 2 19 5 13 2 -7 2 -19 0 -25z m105 10
c-7 -7 -12 -8 -12 -2 0 14 12 26 19 19 2 -3 -1 -11 -7 -17z m1366 -54 c-3 -14
-5 -12 -10 9 -3 19 -2 25 4 19 6 -6 8 -18 6 -28z m-1488 1 c11 -13 10 -14 -4
-9 -9 3 -16 10 -16 15 0 13 6 11 20 -6z m1560 -15 c0 -5 -2 -10 -4 -10 -3 0
-8 5 -11 10 -3 6 -1 10 4 10 6 0 11 -4 11 -10z m-1613 -22 c-3 -8 -6 -5 -6 6
-1 11 2 17 5 13 3 -3 4 -12 1 -19z m1626 -18 c3 -11 1 -18 -4 -14 -5 3 -9 12
-9 20 0 20 7 17 13 -6z m-150 -17 c-7 -2 -19 -2 -25 0 -7 3 -2 5 12 5 14 0 19
-2 13 -5z m75 -10 c-10 -2 -28 -2 -40 0 -13 2 -5 4 17 4 22 1 32 -1 23 -4z
m-1526 -25 c-7 -7 -12 -8 -12 -2 0 14 12 26 19 19 2 -3 -1 -11 -7 -17z m1601
15 c-7 -2 -19 -2 -25 0 -7 3 -2 5 12 5 14 0 19 -2 13 -5z m-1604 -80 c-5 -26
-7 -55 -4 -63 4 -10 3 -11 -3 -5 -15 16 -24 65 -12 65 5 0 10 8 10 18 0 16 8
32 15 32 1 0 -2 -21 -6 -47z m1598 -85 c-2 -29 -8 -61 -12 -71 -5 -12 -3 -17
6 -15 19 4 23 -31 4 -38 -21 -9 -33 5 -15 16 11 7 12 10 2 10 -7 0 -12 8 -11
18 2 9 -1 39 -5 66 -6 36 -4 51 6 57 25 16 29 9 25 -43z m60 -40 c-2 -56 -7
-83 -16 -86 -9 -3 -11 5 -7 31 3 20 1 39 -4 42 -6 3 -10 26 -10 51 0 37 3 44
19 44 18 0 20 -7 18 -82z m940 5 c-2 -16 -4 -3 -4 27 0 30 2 43 4 28 2 -16 2
-40 0 -55z m-2611 -11 c-11 -10 -15 4 -8 28 l7 25 3 -23 c2 -13 1 -26 -2 -30z
m4 -112 c0 -5 -4 -10 -10 -10 -5 0 -10 5 -10 10 0 6 5 10 10 10 6 0 10 -4 10
-10z m-13 -122 c-3 -8 -6 -5 -6 6 -1 11 2 17 5 13 3 -3 4 -12 1 -19z m1463
-163 c0 -110 -4 -175 -10 -175 -6 0 -10 65 -10 175 0 110 4 175 10 175 6 0 10
-65 10 -175z m-1686 149 c4 -9 4 -19 1 -22 -2 -3 -7 3 -11 12 -3 9 -11 13 -17
9 -6 -3 -7 -1 -3 5 10 17 23 15 30 -4z m-193 -57 c-10 -9 -11 -8 -5 6 3 10 9
15 12 12 3 -3 0 -11 -7 -18z m112 -19 c26 -10 38 -28 17 -28 -5 0 -10 5 -10
10 0 6 -9 10 -19 10 -11 0 -23 5 -26 10 -4 6 -11 8 -16 5 -5 -4 -9 -1 -9 5 0
8 7 9 18 5 9 -4 29 -12 45 -17z m146 -26 c-21 -2 -47 1 -56 7 -14 8 -10 10 24
11 23 0 45 5 49 12 5 8 10 6 14 -8 6 -16 2 -19 -31 -22z m335 23 c-4 -8 -11
-15 -16 -15 -6 0 -5 6 2 15 7 8 14 15 16 15 2 0 1 -7 -2 -15z m-544 -25 c0 -5
-5 -10 -11 -10 -5 0 -7 5 -4 10 3 6 8 10 11 10 2 0 4 -4 4 -10z m3093 -67
c-18 -2 -48 -2 -65 0 -18 2 -4 4 32 4 36 0 50 -2 33 -4z m-2517 -50 c-11 -11
-17 4 -9 23 7 18 8 18 11 1 2 -10 1 -21 -2 -24z m2282 -109 c27 -5 31 -43 5
-39 -35 5 -63 17 -57 26 5 8 -10 13 -29 10 -5 -1 -6 3 -3 7 5 9 28 8 84 -4z
m-68 -69 c0 -8 -2 -15 -4 -15 -2 0 -6 7 -10 15 -3 8 -1 15 4 15 6 0 10 -7 10
-15z m-12 -39 c-7 -8 -15 -12 -17 -11 -5 6 10 25 20 25 5 0 4 -6 -3 -14z
m-230 -21 c2 -2 -2 -14 -9 -27 -7 -12 -14 -34 -15 -47 -7 -61 -34 -32 -34 36
l0 55 27 -7 c16 -4 29 -8 31 -10z m495 -62 c-13 -2 -33 -2 -45 0 -13 2 -3 4
22 4 25 0 35 -2 23 -4z m-3140 -73 c-6 -23 -51 -50 -83 -50 -15 0 -19 4 -13
13 4 6 8 16 8 20 0 10 53 35 77 36 11 1 15 -5 11 -19z m495 8 c7 -7 12 -16 12
-20 0 -13 -89 -9 -113 4 -21 12 -19 13 23 19 25 3 50 7 56 7 5 1 15 -3 22 -10z
m2106 -25 c-15 -82 -22 -90 -23 -25 -1 50 2 62 14 62 13 0 15 -7 9 -37z
m-2784 -29 c0 -13 -4 -24 -10 -24 -5 0 -10 14 -10 31 0 17 4 28 10 24 6 -3 10
-17 10 -31z m-70 11 c0 -8 -7 -15 -16 -15 -14 0 -14 3 -4 15 7 8 14 15 16 15
2 0 4 -7 4 -15z m1175 6 c-6 -5 -21 -12 -35 -15 -24 -7 -24 -6 -6 8 21 17 57
23 41 7z m-275 -11 c0 -5 -9 -10 -20 -10 -11 0 -20 5 -20 10 0 6 9 10 20 10
11 0 20 -4 20 -10z m340 -40 c0 -29 -4 -40 -15 -40 -16 0 -19 5 -29 53 -6 24
-3 27 19 27 23 0 25 -4 25 -40z m-70 20 c-13 -8 -12 -10 3 -10 9 0 17 -5 17
-10 0 -7 -6 -7 -20 0 -25 13 -26 30 -2 30 14 0 15 -2 2 -10z m-22 -28 c27 -21
27 -59 0 -76 -22 -14 -32 -3 -19 22 8 14 7 24 -4 38 -28 37 -15 45 23 16z
m2149 -19 c-3 -10 -5 -4 -5 12 0 17 2 24 5 18 2 -7 2 -21 0 -30z m-2239 -28
c-1 -42 -3 -45 -27 -45 -20 0 -23 2 -11 10 12 8 11 10 -6 10 -12 0 -25 -7 -28
-16 -4 -9 -13 -14 -22 -10 -8 3 -25 -3 -37 -15 -14 -13 -17 -19 -7 -17 8 2 14
-3 13 -9 -4 -18 9 -16 77 11 33 14 60 21 60 16 0 -11 -77 -40 -110 -42 -14 -1
-43 -1 -65 1 -39 2 -39 2 -16 15 17 9 20 15 10 18 -9 3 0 11 23 22 29 14 36
22 33 42 -1 15 3 24 12 24 8 0 21 7 29 15 9 8 28 15 44 15 27 0 28 -2 28 -45z
m180 -20 c1 -20 -3 -25 -21 -26 l-22 -2 23 -4 c12 -2 22 -11 22 -18 0 -15 -58
-50 -67 -41 -3 3 -11 -1 -18 -8 -8 -8 -26 -11 -47 -7 l-33 5 35 7 c19 3 26 7
15 8 -17 1 -15 5 13 22 26 17 35 19 47 9 10 -9 15 -9 15 -1 0 6 -3 11 -7 11
-5 0 -14 4 -22 9 -11 7 -9 14 14 35 35 33 50 33 53 1z m2147 -9 c30 -9 40 -14
25 -14 -28 0 -114 25 -90 27 8 0 38 -6 65 -13z m-2607 -39 c-1 -2 4 -12 12
-22 13 -16 13 -18 0 -13 -8 2 -16 15 -16 27 -1 12 1 20 3 17 3 -2 3 -6 1 -9z
m2635 -4 c-7 -2 -19 -2 -25 0 -7 3 -2 5 12 5 14 0 19 -2 13 -5z m-2649 -29 c3
-8 2 -12 -4 -9 -6 3 -10 -3 -10 -14 0 -17 -6 -21 -31 -21 -18 0 -28 4 -24 10
4 6 11 8 16 5 5 -4 9 -2 9 2 0 5 -12 14 -27 19 l-28 10 32 0 c22 -1 33 -6 33
-16 0 -13 2 -13 9 0 6 8 7 18 5 22 -3 4 -1 8 4 8 6 0 13 -7 16 -16z m-221 -11
c-7 -2 -19 -2 -25 0 -7 3 -2 5 12 5 14 0 19 -2 13 -5z m42 -13 c-10 -11 -25
-20 -34 -19 -11 0 -9 3 5 9 12 5 25 13 29 19 3 6 9 11 12 11 3 0 -2 -9 -12
-20z m2789 -16 c5 -13 2 -15 -16 -10 -13 3 -27 6 -31 6 -5 0 -5 5 -2 10 10 16
42 12 49 -6z m-3010 -26 c-3 -5 12 -9 33 -9 31 -2 33 -3 10 -6 -16 -3 -36 -1
-45 3 -23 10 -28 11 -54 13 -22 2 -22 2 -5 15 14 11 23 11 42 3 13 -7 21 -15
19 -19z m161 22 c3 -6 -1 -7 -9 -4 -18 7 -21 14 -7 14 6 0 13 -4 16 -10z m140
0 c-3 -5 -13 -10 -21 -10 -8 0 -12 5 -9 10 3 6 13 10 21 10 8 0 12 -4 9 -10z
m-218 -22 c-3 -8 -6 -5 -6 6 -1 11 2 17 5 13 3 -3 4 -12 1 -19z m530 8 c0 -8
-6 -12 -15 -9 -11 5 -11 7 0 14 7 5 13 9 14 9 0 0 1 -6 1 -14z m-167 -41 c-14
-17 -65 -21 -55 -4 4 6 13 8 20 5 8 -3 19 2 26 10 6 8 14 12 17 9 3 -2 -1 -11
-8 -20z m-757 8 c-7 -2 -21 -2 -30 0 -10 3 -4 5 12 5 17 0 24 -2 18 -5z m360
-10 c-7 -2 -19 -2 -25 0 -7 3 -2 5 12 5 14 0 19 -2 13 -5z m187 -8 c-7 -9 -15
-13 -19 -10 -3 3 1 10 9 15 21 14 24 12 10 -5z m357 9 c-3 -3 -12 -4 -19 -1
-8 3 -5 6 6 6 11 1 17 -2 13 -5z m-309 -21 c-12 -15 -22 -18 -14 -4 4 5 0 11
-6 14 -7 3 -3 4 9 4 17 -1 19 -4 11 -14z m-101 -5 c-6 -3 0 -8 14 -11 13 -2 2
-2 -26 1 -76 7 -99 20 -34 18 32 0 52 -4 46 -8z m-517 -29 c0 -5 -4 -9 -10 -9
-5 0 -10 7 -10 16 0 8 5 12 10 9 6 -3 10 -10 10 -16z m227 6 c0 -8 -4 -12 -9
-9 -5 3 -6 10 -3 15 9 13 12 11 12 -6z m-97 1 c0 -2 -9 -6 -20 -9 -11 -3 -18
-1 -14 4 5 9 34 13 34 5z m180 0 c0 -2 -13 -6 -29 -8 -17 -2 -28 -1 -25 4 5 8
54 12 54 4z m317 -2 c-3 -3 -12 -4 -19 -1 -8 3 -5 6 6 6 11 1 17 -2 13 -5z
m-667 -14 c0 -5 -2 -10 -4 -10 -3 0 -8 5 -11 10 -3 6 -1 10 4 10 6 0 11 -4 11
-10z m105 0 c-11 -5 -27 -9 -35 -9 -9 0 -8 4 5 9 11 5 27 9 35 9 9 0 8 -4 -5
-9z m498 3 c-7 -2 -21 -2 -30 0 -10 3 -4 5 12 5 17 0 24 -2 18 -5z m-365 -30
c-21 -2 -57 -2 -80 0 -24 2 -7 4 37 4 44 0 63 -2 43 -4z m2602 -43 c0 -5 -2
-10 -4 -10 -3 0 -8 5 -11 10 -3 6 -1 10 4 10 6 0 11 -4 11 -10z m-163 -6 c-3
-3 -12 -4 -19 -1 -8 3 -5 6 6 6 11 1 17 -2 13 -5z m-362 -84 c-3 -5 -12 -10
-18 -10 -7 0 -6 4 3 10 19 12 23 12 15 0z"/>
<path d="M1689 3638 c-1 -31 -1 -32 -9 -8 -5 15 -8 18 -9 8 -2 -26 10 -48 25
-48 10 0 14 12 14 40 0 48 -20 55 -21 8z"/>
<path d="M1601 3637 c-1 -5 4 -18 10 -30 12 -22 12 -22 -10 -3 -11 11 -21 15
-21 9 0 -14 39 -47 47 -40 4 4 -1 22 -10 40 -8 17 -16 28 -16 24z"/>
<path d="M1823 3545 c-18 -16 -23 -24 -13 -24 22 -1 65 35 52 43 -6 3 -23 -5
-39 -19z"/>
<path d="M1520 3520 c8 -5 24 -10 34 -10 26 0 18 6 -19 14 -22 5 -26 4 -15 -4z"/>
<path d="M1827 3453 c-18 -17 -5 -33 28 -33 28 0 35 4 35 20 0 15 -7 20 -28
20 -16 0 -32 -3 -35 -7z"/>
<path d="M1515 3425 c-16 -7 -23 -14 -14 -14 8 -1 24 6 35 14 24 18 18 18 -21
0z"/>
<path d="M1498 3393 c7 -3 16 -2 19 1 4 3 -2 6 -13 5 -11 0 -14 -3 -6 -6z"/>
<path d="M1667 3330 c-22 -37 -21 -76 2 -99 10 -10 21 -25 23 -32 3 -8 8 13
12 46 5 44 4 67 -7 87 l-13 27 -17 -29z"/>
<path d="M1587 3266 c-9 -14 -17 -30 -17 -36 0 -18 17 -11 28 13 11 20 11 20
7 -8 -5 -27 -4 -27 4 -7 6 12 7 31 3 43 -8 21 -9 21 -25 -5z"/>
<path d="M1759 3262 c6 -12 16 -24 22 -28 8 -4 8 -1 0 14 -6 12 -16 24 -22 28
-8 4 -8 1 0 -14z"/>
<path d="M1053 1823 c9 -2 23 -2 30 0 6 3 -1 5 -18 5 -16 0 -22 -2 -12 -5z"/>
<path d="M1056 1801 c-4 -7 -5 -15 -2 -18 9 -9 19 4 14 18 -4 11 -6 11 -12 0z"/>
<path d="M0 4355 c0 -56 16 -67 79 -50 26 6 56 18 68 25 25 16 39 52 17 43 -8
-3 -20 0 -28 6 -7 6 -41 13 -75 16 l-61 5 0 -45z"/>
<path d="M3188 3943 c6 -2 18 -2 25 0 6 3 1 5 -13 5 -14 0 -19 -2 -12 -5z"/>
<path d="M429 3848 c0 -2 -2 -23 -4 -48 -2 -25 -6 -58 -9 -75 l-5 -30 14 32
c18 39 35 51 35 25 0 -11 6 -25 14 -32 8 -6 12 -19 9 -28 -4 -14 -3 -15 6 -2
8 12 12 10 20 -10 9 -23 10 -23 9 10 -1 19 -6 41 -11 47 -5 7 -7 33 -6 57 4
42 2 45 -25 50 -31 6 -46 7 -47 4z m61 -113 c0 -8 -2 -15 -4 -15 -2 0 -6 7
-10 15 -3 8 -1 15 4 15 6 0 10 -7 10 -15z"/>
<path d="M487 3623 c-16 -16 -4 -23 36 -21 l42 1 -38 4 c-20 2 -35 8 -32 14 7
10 2 12 -8 2z"/>
<path d="M377 3614 c-4 -4 -7 -14 -7 -23 0 -11 3 -12 11 -4 6 6 10 16 7 23 -2
6 -7 8 -11 4z"/>
<path d="M500 3531 c0 -5 7 -11 15 -15 26 -9 16 -36 -17 -51 l-33 -13 28 -11
c35 -14 47 -7 47 24 0 13 4 35 10 49 9 24 8 26 -20 26 -17 0 -30 -4 -30 -9z"/>
<path d="M211 3507 c2 -1 11 -8 20 -15 13 -10 19 -9 29 3 11 13 8 15 -20 15
-19 0 -31 -1 -29 -3z"/>
<path d="M1021 3474 c0 -11 3 -14 6 -6 3 7 2 16 -1 19 -3 4 -6 -2 -5 -13z"/>
<path d="M3500 3438 c0 -31 3 -39 10 -28 13 20 13 57 0 65 -6 4 -10 -11 -10
-37z"/>
<path d="M385 3463 c-41 -10 -41 -26 0 -19 22 3 47 6 55 6 13 0 13 1 0 10 -16
10 -23 11 -55 3z"/>
<path d="M320 3450 c-8 -5 -11 -12 -7 -16 4 -4 13 -2 19 4 15 15 7 24 -12 12z"/>
<path d="M280 3430 c-13 -8 -12 -10 3 -10 9 0 17 5 17 10 0 12 -1 12 -20 0z"/>
<path d="M15 3370 c-3 -5 -1 -10 4 -10 6 0 11 5 11 10 0 6 -2 10 -4 10 -3 0
-8 -4 -11 -10z"/>
<path d="M1102 3285 c0 -16 2 -22 5 -12 2 9 2 23 0 30 -3 6 -5 -1 -5 -18z"/>
<path d="M742 3115 c0 -16 2 -22 5 -12 2 9 2 23 0 30 -3 6 -5 -1 -5 -18z"/>
<path d="M521 2946 c-10 -17 -10 -29 -2 -42 6 -11 11 -14 11 -6 0 7 5 10 11 7
6 -4 10 -1 8 6 -3 28 1 40 12 33 7 -4 10 -1 7 7 -8 24 -34 21 -47 -5z"/>
<path d="M550 2859 c0 -5 5 -7 10 -4 6 3 10 8 10 11 0 2 -4 4 -10 4 -5 0 -10
-5 -10 -11z"/>
<path d="M341 2781 c-9 -6 -11 -14 -4 -26 9 -15 11 -14 15 9 3 14 5 26 4 26 0
0 -7 -4 -15 -9z"/>
<path d="M595 2770 c3 -5 11 -10 16 -10 6 0 7 5 4 10 -3 6 -11 10 -16 10 -6 0
-7 -4 -4 -10z"/>
<path d="M630 2750 c0 -5 -14 -10 -32 -10 -38 0 -32 -10 11 -15 25 -3 31 -1
31 15 0 11 -2 20 -5 20 -3 0 -5 -4 -5 -10z"/>
<path d="M600 2710 c0 -5 5 -10 11 -10 5 0 7 5 4 10 -3 6 -8 10 -11 10 -2 0
-4 -4 -4 -10z"/>
<path d="M430 2706 c0 -2 9 -6 20 -9 11 -3 18 -1 14 4 -5 9 -34 13 -34 5z"/>
<path d="M580 2697 c0 -9 -4 -17 -10 -17 -5 0 -10 5 -10 11 0 8 -5 8 -15 -1
-16 -14 -20 -40 -6 -40 5 0 22 6 39 13 27 11 29 14 16 32 -12 16 -14 17 -14 2z"/>
<path d="M6 2653 c-3 -3 -6 -70 -6 -148 l0 -141 78 9 c132 15 119 1 118 127
-1 106 -3 115 -33 111 -7 -1 -29 7 -50 17 -21 11 -43 17 -50 15 -7 -2 -21 0
-31 6 -11 6 -22 7 -26 4z"/>
<path d="M516 2604 c-5 -14 -4 -15 9 -4 17 14 19 20 6 20 -5 0 -12 -7 -15 -16z"/>
<path d="M262 2451 c4 -13 18 -16 19 -4 0 4 -5 9 -11 12 -7 2 -11 -2 -8 -8z"/>
<path d="M282 2428 c-19 -19 -14 -30 8 -18 11 6 20 15 20 20 0 14 -14 12 -28
-2z"/>
<path d="M1155 1630 c-13 -5 -14 -9 -5 -9 8 0 24 4 35 9 13 5 14 9 5 9 -8 0
-24 -4 -35 -9z"/>
<path d="M2530 1392 c0 -5 7 -13 16 -16 10 -4 14 -1 12 6 -5 15 -28 23 -28 10z"/>
<path d="M50 1280 c107 -36 484 -139 509 -140 26 0 6 9 -49 24 -206 54 -268
71 -369 102 -118 35 -187 46 -91 14z"/>
<path d="M0 1234 c0 -24 14 -30 64 -24 35 3 66 -9 59 -26 -6 -16 -74 -54 -95
-54 -7 1 2 9 21 18 34 17 52 52 26 52 -7 0 -12 -8 -11 -17 0 -10 -5 -17 -11
-15 -7 1 -13 -2 -13 -7 0 -5 -8 -11 -18 -13 -10 -3 -19 -13 -19 -23 0 -17 11
-17 152 0 11 1 30 3 43 4 13 0 21 5 18 9 -2 4 4 8 14 8 10 0 17 -3 15 -6 -2
-4 24 -4 58 -2 52 4 60 2 49 -9 -7 -8 -17 -15 -23 -15 -5 -1 -10 -2 -11 -3 -2
-1 -32 -3 -68 -5 -36 -1 -107 -6 -157 -11 -80 -7 -93 -11 -93 -26 0 -13 12
-21 43 -29 23 -7 115 -36 205 -66 89 -30 167 -52 171 -49 5 3 11 0 13 -7 3 -7
20 -12 41 -11 24 1 35 -3 30 -10 -4 -6 -1 -7 6 -3 7 5 20 1 30 -8 10 -9 25
-14 35 -10 9 3 16 1 16 -5 0 -6 7 -8 17 -4 12 5 14 3 8 -7 -5 -8 -4 -11 3 -6
6 3 13 2 17 -4 3 -5 18 -7 32 -4 17 5 24 3 19 -4 -8 -13 89 -46 105 -36 8 4 9
3 5 -4 -4 -7 3 -14 18 -18 31 -7 55 4 35 17 -11 7 -10 9 4 9 14 0 17 -5 12
-21 -5 -15 -4 -19 4 -15 6 4 11 2 11 -4 0 -7 7 -10 15 -6 8 3 15 0 15 -5 0 -6
9 -9 20 -6 13 3 18 1 13 -6 -4 -6 0 -8 10 -4 10 4 17 1 17 -6 0 -9 3 -8 9 1 6
11 10 10 15 -3 4 -11 13 -15 26 -12 11 3 18 2 15 -2 -6 -11 172 -64 186 -55 8
5 9 3 4 -6 -6 -10 -3 -12 13 -8 14 4 20 2 15 -5 -4 -6 0 -8 10 -4 9 3 17 2 19
-2 4 -11 158 -62 168 -56 13 8 127 -31 146 -49 9 -10 24 -14 35 -11 11 4 26
-2 39 -15 16 -16 28 -20 50 -15 19 4 31 2 37 -8 4 -7 16 -16 26 -20 11 -4 16
-3 12 3 -3 6 -1 10 4 10 6 0 11 -4 11 -10 0 -5 7 -6 17 -3 10 4 14 2 10 -4 -9
-14 18 -24 40 -16 11 5 14 3 8 -6 -6 -10 -2 -11 15 -6 14 5 20 3 16 -3 -8 -14
45 -31 76 -25 17 3 33 -3 52 -20 41 -38 256 -84 256 -55 0 5 6 8 13 7 26 -3
36 2 31 16 -4 9 -1 15 7 15 8 0 5 6 -7 15 -18 13 -18 14 -1 15 15 0 16 2 5 14
-7 8 -16 12 -20 9 -4 -2 -5 3 -2 11 3 9 10 16 16 16 5 0 7 -4 3 -9 -3 -6 3 -9
14 -8 11 0 17 6 14 14 -3 7 2 13 11 13 9 0 16 5 16 11 0 6 9 9 20 6 11 -3 20
-1 20 4 0 5 10 8 23 8 12 -1 32 1 44 4 13 3 25 2 28 -4 4 -5 11 -9 16 -9 6 0
8 4 5 9 -4 5 3 7 14 4 11 -3 20 -9 20 -14 0 -5 7 -6 15 -3 9 4 15 0 15 -9 0
-10 7 -13 21 -10 15 4 22 0 26 -16 3 -11 9 -21 13 -21 4 0 10 -9 13 -20 4 -14
0 -20 -11 -20 -13 0 -14 -2 -4 -9 27 -17 -31 -70 -77 -71 -24 -1 -59 -31 -43
-37 6 -3 10 -9 7 -13 -10 -16 -34 1 -30 21 3 13 0 19 -8 16 -7 -3 -11 -10 -9
-16 1 -6 -4 -11 -10 -12 -7 0 5 -9 27 -20 22 -10 34 -19 27 -19 -7 0 -22 5
-33 11 -11 6 -25 9 -30 7 -6 -2 20 -14 57 -27 96 -33 102 -34 74 -18 -14 9
-24 19 -22 23 2 5 -5 11 -15 15 -15 7 -14 8 6 8 17 1 22 -3 17 -14 -4 -11 3
-17 24 -22 16 -3 27 -9 24 -14 -3 -5 2 -6 10 -3 8 3 23 1 33 -6 16 -9 15 -10
-7 -5 l-25 6 25 -15 c29 -18 44 -20 35 -6 -3 6 -2 10 3 10 16 0 73 -22 69 -26
-2 -3 -16 0 -31 5 -14 6 -26 7 -26 3 0 -9 121 -45 128 -37 3 3 -3 5 -14 6 -18
0 -18 1 1 9 19 9 19 9 -2 16 -13 3 -23 10 -23 15 0 5 -6 6 -14 3 -8 -3 -17 -1
-20 4 -6 10 36 8 52 -2 6 -3 12 1 16 9 3 9 0 15 -8 15 -8 0 -20 14 -28 30 -7
17 -16 30 -19 30 -4 0 -12 21 -19 46 -13 44 -14 46 -44 40 -20 -4 -26 -3 -17
3 11 7 11 10 0 15 -8 3 -3 4 11 1 14 -3 19 -2 13 1 -7 3 -13 14 -13 25 0 14
-7 19 -27 20 -16 0 -23 3 -16 5 7 3 9 12 6 20 -3 9 1 14 12 14 11 0 15 -5 11
-15 -4 -13 1 -14 34 -9 43 7 95 -9 104 -32 3 -8 13 -14 21 -14 9 0 13 -5 10
-10 -4 -7 3 -8 21 -4 19 5 25 4 20 -5 -4 -6 0 -11 9 -11 11 0 15 5 11 15 -3 9
0 15 9 15 9 0 12 -6 8 -17 -4 -11 -3 -14 5 -9 8 5 10 2 6 -8 -3 -9 -10 -16
-15 -16 -5 0 -8 -5 -7 -12 4 -18 -29 -21 -35 -3 -4 10 -1 15 11 15 16 1 16 1
-1 11 -21 12 -42 2 -29 -14 14 -17 42 -117 34 -117 -4 0 0 -6 9 -13 8 -7 23
-24 33 -39 12 -18 23 -25 33 -21 11 4 14 2 9 -5 -3 -6 2 -16 13 -21 23 -13 36
8 14 24 -21 16 -35 75 -18 81 7 3 15 15 18 26 3 11 10 17 15 14 6 -3 13 1 16
10 4 10 14 14 26 11 11 -3 20 -1 20 5 0 6 13 8 30 6 17 -3 30 0 30 5 0 5 8 6
18 2 9 -4 28 -7 42 -6 29 1 110 -35 110 -49 0 -6 5 -10 11 -10 6 0 9 7 5 15
-4 12 -2 13 15 2 16 -10 17 -13 4 -15 -13 -3 -14 -7 -4 -18 6 -8 8 -14 4 -14
-4 0 -2 -7 6 -16 10 -13 10 -17 -2 -25 -11 -7 -10 -9 5 -9 15 0 17 -5 11 -28
-8 -34 -44 -63 -69 -56 -13 4 -16 3 -11 -6 6 -10 1 -12 -18 -8 -33 6 -45 -18
-14 -28 13 -4 23 -2 25 5 3 8 8 9 16 2 14 -12 182 20 170 32 -4 4 -3 7 3 7 5
0 10 14 11 30 0 17 -4 30 -9 30 -6 0 -7 -4 -4 -10 11 -17 -9 -40 -25 -30 -10
6 -11 10 -3 10 7 0 10 6 7 14 -3 8 4 24 16 36 16 16 19 25 10 35 -8 10 -8 14
2 19 7 3 -2 3 -19 0 -24 -3 -33 0 -33 10 0 9 10 12 33 10 l32 -2 -30 13 c-16
8 -23 15 -15 15 8 1 4 6 -10 11 -14 6 -33 8 -42 5 -10 -2 -16 -1 -13 4 3 4 -4
10 -15 13 -13 3 -18 1 -14 -6 5 -9 4 -9 -6 0 -7 6 -19 9 -28 6 -10 -5 -13 -2
-8 6 5 8 3 11 -5 10 -8 -2 -23 2 -35 8 -11 7 -43 15 -70 19 -27 3 -53 9 -59
12 -5 3 -16 7 -25 8 -28 2 -100 27 -100 34 0 11 -73 29 -102 26 -16 -2 -28 1
-28 6 0 6 -7 7 -16 4 -8 -3 -13 -2 -10 2 3 5 -10 9 -27 9 -18 1 -45 7 -62 14
-16 7 -38 11 -49 10 -10 -2 -15 2 -12 7 3 5 0 10 -7 9 -33 -1 -48 4 -41 14 4
8 0 9 -15 4 -14 -4 -21 -2 -21 6 0 7 -3 9 -7 6 -3 -4 -12 -2 -19 4 -8 6 -21 9
-29 5 -11 -4 -14 -2 -9 6 5 7 0 9 -14 6 -12 -4 -20 -3 -17 2 3 4 -5 8 -18 8
-20 0 -58 7 -64 12 -2 2 -7 4 -13 5 -5 1 -13 4 -17 5 -5 1 -11 2 -15 1 -5 0
-8 2 -8 6 0 5 -15 8 -33 9 -18 1 -50 9 -70 19 -20 9 -41 13 -48 9 -8 -4 -9 -3
-5 4 7 13 -68 37 -84 27 -6 -3 -10 -2 -10 4 0 5 -13 9 -29 9 -15 -1 -34 3 -42
8 -17 10 -38 15 -61 15 -10 0 -18 4 -18 8 0 7 -15 11 -53 12 -9 0 -17 5 -17
10 0 6 -5 7 -10 4 -6 -3 -10 -1 -10 5 0 6 -8 10 -17 9 -10 -2 -27 2 -38 8 -39
20 -117 35 -128 24 -8 -8 -7 -11 2 -11 11 0 11 -3 1 -15 -6 -8 -8 -20 -4 -26
4 -8 3 -9 -4 -5 -7 4 -10 22 -7 42 2 21 0 32 -5 29 -6 -4 -10 -1 -10 5 0 6 -5
8 -10 5 -6 -4 -17 -2 -24 4 -13 11 -291 93 -441 130 -44 10 -93 23 -110 27
-16 4 -33 7 -37 6 -5 -1 -8 3 -8 9 0 5 -4 7 -10 4 -5 -3 -10 -2 -10 4 0 5 -19
12 -42 16 -23 4 -49 11 -58 16 -15 8 -116 37 -154 45 -10 2 -44 11 -75 20 -31
9 -68 18 -83 20 -15 1 -36 7 -46 13 -10 6 -30 12 -43 15 -13 2 -78 21 -144 41
-66 20 -142 41 -170 47 -27 5 -79 20 -115 33 -36 12 -89 30 -117 38 l-53 16 0
-25z m185 -86 c5 -4 0 -6 -12 -6 -13 1 -19 7 -16 15 3 8 8 10 12 6 3 -4 10
-11 16 -15z m169 -50 c-5 -8 -2 -9 12 -4 23 10 64 19 47 10 -7 -3 -13 -9 -13
-12 0 -10 60 -35 67 -28 4 3 -1 6 -11 6 -14 0 -15 2 -4 14 15 16 38 10 38 -10
0 -22 -41 -45 -57 -32 -10 8 -17 8 -26 -1 -9 -10 -8 -11 6 -6 9 4 17 3 17 -3
0 -5 -17 -13 -37 -17 -21 -3 -49 -9 -62 -12 -17 -4 -22 -2 -17 6 4 6 2 11 -3
11 -6 0 -11 -4 -11 -10 0 -13 -37 -13 -45 0 -4 6 -11 8 -16 5 -5 -4 -17 -1
-26 4 -14 8 -15 11 -3 11 12 0 11 3 -3 11 -9 5 -21 8 -25 5 -4 -2 -15 2 -25 9
-12 8 -14 15 -8 20 6 3 11 2 11 -3 0 -13 52 -22 65 -12 18 15 67 31 60 20 -3
-6 1 -10 9 -10 9 0 16 6 16 14 0 8 10 17 23 19 12 2 23 5 25 6 2 0 0 -4 -4
-11z m-131 -15 c-7 -2 -19 -2 -25 0 -7 3 -2 5 12 5 14 0 19 -2 13 -5z m-113
-7 c0 -3 -4 -8 -10 -11 -5 -3 -10 -1 -10 4 0 6 5 11 10 11 6 0 10 -2 10 -4z
m485 -14 c6 -4 10 -14 10 -22 -1 -24 -28 -90 -37 -90 -10 0 10 -42 24 -51 6
-4 -2 -9 -16 -11 -15 -3 -24 -3 -21 0 3 3 -9 13 -25 23 -22 14 -30 26 -30 48
0 17 5 33 10 36 6 3 10 17 10 30 0 34 47 58 75 37z m50 -12 c3 -5 1 -10 -4
-10 -6 0 -11 5 -11 10 0 6 2 10 4 10 3 0 8 -4 11 -10z m55 -20 c8 -5 11 -10 5
-10 -5 0 -17 5 -25 10 -8 5 -10 10 -5 10 6 0 17 -5 25 -10z m-227 -17 c4 -3
-2 -13 -14 -21 -11 -8 -23 -11 -26 -8 -4 3 -1 6 5 6 7 0 11 3 11 8 -4 21 10
30 24 15z m188 -2 c-11 -7 -10 -10 5 -13 17 -3 17 -4 -4 -10 -12 -3 -20 -2
-16 3 3 5 -3 9 -13 10 -16 0 -16 1 2 9 27 11 44 12 26 1z m144 -19 c-3 -3 -11
0 -18 7 -9 10 -8 11 6 5 10 -3 15 -9 12 -12z m98 -18 c9 -3 17 -9 17 -14 0 -5
8 -7 18 -4 10 3 7 0 -6 -8 -21 -13 -21 -15 -5 -33 17 -18 17 -18 -1 -4 -15 11
-20 11 -23 2 -3 -7 -12 -13 -20 -13 -8 0 -13 -6 -10 -12 3 -9 -9 -13 -41 -13
-27 0 -47 -5 -50 -12 -2 -9 7 -13 28 -13 22 0 29 4 24 13 -6 8 -3 8 9 -1 9 -8
24 -11 34 -8 10 3 52 10 93 16 105 15 112 18 105 43 -5 21 -5 21 6 0 7 -13 16
-23 21 -23 5 0 7 4 4 8 -2 4 7 8 22 9 23 1 24 1 7 -7 -15 -6 -6 -9 34 -11 40
-3 55 -8 56 -20 2 -11 -5 -16 -24 -16 -33 1 -54 -5 -63 -18 -12 -16 13 -23 49
-13 78 21 133 26 145 11 8 -10 13 -11 18 -2 5 6 16 8 29 4 12 -3 19 -11 16
-16 -4 -5 3 -9 13 -9 11 0 23 -7 26 -16 5 -12 2 -15 -11 -10 -15 5 -15 4 1 -9
11 -8 14 -15 7 -15 -7 0 -10 -4 -7 -9 3 -5 -4 -11 -15 -14 -13 -4 -18 -10 -13
-18 4 -7 3 -10 -3 -6 -12 8 -116 -9 -150 -23 -14 -6 -24 -6 -28 0 -4 6 -14 10
-24 10 -10 0 -32 7 -47 15 -16 8 -25 15 -20 15 5 0 3 7 -4 15 -7 8 -9 15 -5
15 4 0 1 8 -6 17 -12 14 -12 15 0 9 15 -10 33 12 23 29 -4 5 -7 15 -7 20 0 11
-87 8 -148 -5 -32 -7 -89 -6 -250 1 -34 2 -15 19 21 19 13 0 21 4 17 10 -4 6
-15 6 -31 0 -32 -13 -37 -12 -29 0 4 6 -7 10 -24 10 -17 0 -31 5 -31 10 0 6
-6 9 -12 8 -8 -2 -13 7 -13 21 0 29 46 58 108 67 43 7 44 -8 2 -19 -11 -3 0
-4 23 -2 46 4 69 14 36 16 -15 1 -14 3 6 9 23 8 61 5 103 -6z m-433 -4 c-8 -5
-22 -9 -30 -9 -10 0 -8 3 5 9 27 12 43 12 25 0z m-40 -21 l25 -20 -32 16 c-18
8 -33 18 -33 20 0 10 16 4 40 -16z m550 1 c0 -5 -5 -10 -11 -10 -5 0 -7 5 -4
10 3 6 8 10 11 10 2 0 4 -4 4 -10z m37 -6 c-3 -3 -12 -4 -19 -1 -8 3 -5 6 6 6
11 1 17 -2 13 -5z m-533 -12 c3 -5 -1 -9 -9 -9 -8 0 -12 4 -9 9 3 4 7 8 9 8 2
0 6 -4 9 -8z m573 -15 c0 -8 -13 -19 -29 -25 -16 -6 -28 -6 -28 -1 0 5 -7 9
-15 9 -8 0 -15 5 -15 10 0 13 13 13 27 -1 14 -14 47 -4 38 11 -3 5 0 10 8 10
7 0 14 -6 14 -13z m143 -71 c0 -2 -7 -7 -16 -10 -8 -3 -12 -2 -9 4 6 10 25 14
25 6z m-101 -36 c-7 -5 -22 -4 -33 3 -20 11 -19 11 9 17 32 6 47 -7 24 -20z
m-83 11 c-4 -5 0 -11 6 -13 7 -3 -9 -5 -37 -4 l-50 0 40 12 c22 7 41 13 43 13
2 1 1 -3 -2 -8z m-106 -21 c-18 -12 -30 -13 -30 -2 0 4 10 9 22 9 18 2 20 0 8
-7z m168 -28 c4 -25 -13 -30 -22 -7 -3 8 0 15 7 15 8 0 7 4 -3 11 -13 9 -13
10 0 6 8 -2 16 -13 18 -25z m408 13 c-8 -8 -17 -15 -20 -15 -3 0 -3 7 0 15 4
8 13 15 21 15 12 0 12 -2 -1 -15z m-519 -1 c-3 -3 -12 -4 -19 -1 -8 3 -5 6 6
6 11 1 17 -2 13 -5z m70 0 c-3 -3 -12 -4 -19 -1 -8 3 -5 6 6 6 11 1 17 -2 13
-5z m549 -19 c15 -14 23 -25 18 -25 -5 0 -2 -5 6 -10 11 -7 11 -10 2 -10 -7 0
-10 -5 -6 -12 4 -6 6 -29 6 -50 -2 -45 23 -102 40 -92 6 4 8 3 4 -4 -3 -6 2
-16 11 -22 28 -18 -23 -1 -76 24 -59 28 -85 64 -85 121 -1 25 -3 45 -6 45 -3
0 -6 10 -7 22 -4 44 51 52 93 13z m-116 -9 c0 -2 -7 -7 -16 -10 -8 -3 -12 -2
-9 4 6 10 25 14 25 6z m221 -19 c-6 -6 -6 -16 2 -28 9 -14 7 -21 -14 -38 -13
-11 -28 -20 -34 -20 -5 0 -2 4 8 10 9 5 17 16 17 24 0 7 6 16 13 18 7 3 5 6
-5 6 -10 1 -18 -3 -18 -9 0 -5 -7 -10 -15 -10 -21 0 -19 13 6 28 11 7 18 19
16 26 -4 10 1 12 14 9 14 -4 17 -9 10 -16z m-591 -7 c8 -5 11 -10 5 -10 -5 0
-17 5 -25 10 -8 5 -10 10 -5 10 6 0 17 -5 25 -10z m557 4 c-3 -3 -12 -4 -19
-1 -8 3 -5 6 6 6 11 1 17 -2 13 -5z m89 -28 c-1 -6 -5 -16 -9 -23 -4 -6 -2
-14 3 -16 6 -3 5 -4 -2 -3 -7 2 -12 15 -11 29 1 18 -3 27 -13 27 -8 0 -12 4
-9 10 7 12 43 -9 41 -24z m-276 -3 c0 -8 -4 -11 -10 -8 -5 3 -10 -1 -10 -10 0
-11 5 -15 15 -12 8 4 17 2 20 -3 4 -6 -9 -9 -29 -8 -33 3 -52 18 -23 18 8 1 7
4 -3 13 -26 21 -21 34 11 29 17 -2 29 -10 29 -19z m-111 -24 c-15 -9 -32 -2
-24 11 3 5 13 6 21 3 12 -4 13 -8 3 -14z m-89 1 c0 -5 -5 -10 -11 -10 -5 0 -7
5 -4 10 3 6 8 10 11 10 2 0 4 -4 4 -10z m126 -17 c-10 -10 -19 5 -10 18 6 11
8 11 12 0 2 -7 1 -15 -2 -18z m574 -4 c30 -11 58 -49 38 -49 -9 0 -8 -4 2 -11
11 -7 12 -12 3 -15 -7 -3 -9 -12 -6 -20 3 -8 1 -14 -3 -14 -5 0 -18 -7 -29
-16 -17 -13 -18 -16 -5 -24 22 -14 -25 -13 -52 1 -17 9 -19 8 -16 -8 4 -24 36
-22 187 8 112 22 136 33 124 52 -3 5 0 7 8 5 8 -3 13 -10 12 -16 -1 -6 21 -8
62 -5 109 9 151 -16 80 -49 -19 -8 -32 -11 -28 -5 3 5 0 7 -8 5 -8 -3 -13 -14
-11 -24 3 -18 3 -18 -10 -1 -12 16 -19 16 -73 6 -33 -7 -64 -16 -70 -22 -7 -7
-4 -8 8 -4 15 6 16 4 7 -14 -6 -11 -16 -16 -22 -13 -7 4 -8 3 -4 -4 5 -8 -2
-12 -18 -12 -16 0 -26 6 -26 15 0 8 6 12 14 9 7 -3 16 2 20 11 5 13 0 15 -32
9 -20 -4 -48 -9 -62 -10 -40 -3 -42 -3 -35 -15 4 -6 13 -8 21 -5 8 3 11 0 8
-9 -5 -12 -10 -12 -30 2 -13 8 -24 20 -24 25 0 5 -4 7 -9 4 -15 -9 -165 33
-178 50 -6 8 -20 15 -30 14 -35 -4 -54 0 -48 10 3 6 -5 10 -18 10 -18 0 -26 6
-29 25 -3 14 0 25 6 26 6 0 2 4 -9 9 -11 5 -14 9 -7 9 7 1 11 5 8 10 -8 12 32
37 74 45 19 4 43 10 52 12 13 4 16 1 12 -10 -3 -9 -15 -16 -27 -16 -11 0 -17
-3 -14 -7 4 -3 -1 -15 -10 -26 -18 -19 -17 -19 5 -6 12 8 22 17 22 22 0 4 4 6
9 3 5 -3 12 2 15 11 5 11 10 14 14 7 4 -7 15 -8 27 -3 19 7 19 8 -2 8 -27 1
-31 17 -5 24 21 7 79 -1 112 -14z m-615 -9 c3 -5 1 -10 -4 -10 -6 0 -11 5 -11
10 0 6 2 10 4 10 3 0 8 -4 11 -10z m74 -16 c25 -13 35 -13 46 -4 11 9 15 9 15
1 0 -6 -5 -11 -11 -11 -5 0 -7 -4 -4 -10 3 -5 -10 -3 -30 5 -19 9 -38 15 -42
14 -4 0 -9 4 -11 10 -5 14 -1 14 37 -5z m34 9 c-7 -2 -19 -2 -25 0 -7 3 -2 5
12 5 14 0 19 -2 13 -5z m572 -3 c3 -5 1 -10 -4 -10 -6 0 -11 5 -11 10 0 6 2
10 4 10 3 0 8 -4 11 -10z m32 -22 c-3 -8 -6 -5 -6 6 -1 11 2 17 5 13 3 -3 4
-12 1 -19z m74 -7 c-11 -7 -12 -13 -3 -23 8 -11 6 -17 -9 -26 -11 -7 -24 -10
-29 -7 -6 4 -10 1 -10 -4 0 -6 -5 -11 -11 -11 -8 0 -8 5 1 15 7 8 21 15 31 15
29 0 20 31 -11 43 -8 3 1 6 20 6 25 1 31 -2 21 -8z m-486 -11 c3 -5 2 -10 -4
-10 -5 0 -13 5 -16 10 -3 6 -2 10 4 10 5 0 13 -4 16 -10z m-125 -9 c0 -5 -9
-7 -20 -4 -11 3 -20 7 -20 9 0 2 9 4 20 4 11 0 20 -4 20 -9z m650 -1 c0 -5 -4
-10 -9 -10 -6 0 -13 5 -16 10 -3 6 1 10 9 10 9 0 16 -4 16 -10z m41 -8 c-7 -2
-18 1 -23 6 -8 8 -4 9 13 5 13 -4 18 -8 10 -11z m-114 2 c-3 -3 -12 -4 -19 -1
-8 3 -5 6 6 6 11 1 17 -2 13 -5z m-57 -14 c0 -5 -2 -10 -4 -10 -3 0 -8 5 -11
10 -3 6 -1 10 4 10 6 0 11 -4 11 -10z m150 -10 c0 -5 -7 -6 -17 -3 -11 4 -14
3 -9 -5 4 -7 3 -12 -3 -12 -5 0 -17 -3 -25 -6 -25 -10 -10 20 17 32 23 11 37
9 37 -6z m120 4 c0 -2 -11 -4 -25 -4 -14 0 -25 4 -25 9 0 4 11 6 25 3 14 -2
25 -6 25 -8z m155 -53 c15 -6 12 -9 -20 -14 -21 -4 -41 -4 -44 -2 -2 3 3 5 13
5 9 0 14 5 11 10 -7 12 11 12 40 1z m-85 -25 c0 -3 -4 -8 -10 -11 -5 -3 -10
-1 -10 4 0 6 5 11 10 11 6 0 10 -2 10 -4z m-85 -56 c-3 -5 -18 -7 -34 -4 -17
4 -41 -1 -59 -10 -25 -13 -30 -13 -26 -2 3 7 19 16 35 20 17 3 28 10 24 15 -3
5 7 11 22 13 28 3 49 -14 38 -32z m395 10 c0 -5 -2 -10 -4 -10 -3 0 -8 5 -11
10 -3 6 -1 10 4 10 6 0 11 -4 11 -10z m-590 -10 c0 -5 -10 -10 -22 -9 -22 0
-22 1 -3 9 11 5 21 9 23 9 1 1 2 -3 2 -9z m10 -29 c0 -4 11 -6 24 -4 13 3 27
0 31 -7 5 -9 -3 -10 -31 -6 -22 3 -42 5 -46 6 -15 0 -8 20 7 20 8 0 15 -4 15
-9z m130 -1 c0 -5 -9 -10 -20 -10 -11 0 -20 -5 -20 -11 0 -6 7 -9 15 -5 8 3
15 1 15 -4 0 -6 -15 -10 -32 -10 -25 0 -29 3 -18 10 8 5 11 10 6 10 -14 0 27
29 42 30 6 0 12 -4 12 -10z m34 -2 c-5 -7 -1 -9 13 -6 12 3 20 0 20 -8 0 -7
-5 -10 -10 -7 -6 4 -8 0 -4 -10 8 -21 -2 -21 -27 -2 -16 12 -17 17 -6 30 15
18 24 20 14 3z m630 -7 c11 -4 15 -10 9 -14 -5 -3 -19 0 -29 8 -20 15 -11 18
20 6z m-174 -10 c0 -5 -7 -11 -15 -15 -15 -5 -20 5 -8 17 9 10 23 9 23 -2z
m-470 -31 c0 -5 -5 -10 -11 -10 -5 0 -7 5 -4 10 3 6 8 10 11 10 2 0 4 -4 4
-10z m760 -10 c0 -5 -4 -10 -10 -10 -5 0 -10 5 -10 10 0 6 5 10 10 10 6 0 10
-4 10 -10z m64 -22 c-4 -13 -1 -24 7 -29 11 -7 11 -9 1 -9 -7 0 -15 8 -18 18
-3 9 -9 24 -14 33 -7 14 -5 16 11 12 14 -4 18 -11 13 -25z m-394 18 c0 -3 -4
-8 -10 -11 -5 -3 -10 -1 -10 4 0 6 5 11 10 11 6 0 10 -2 10 -4z m65 -15 c-3
-5 -1 -12 5 -16 5 -3 10 -13 10 -22 0 -13 -2 -14 -17 -2 -15 13 -16 11 -10
-13 4 -15 3 -30 -3 -33 -10 -6 -14 7 -11 32 2 16 -16 26 -24 13 -3 -5 -14 -10
-23 -9 -14 0 -13 2 3 9 11 5 15 9 8 9 -26 2 0 30 30 34 18 2 33 5 35 5 2 1 1
-2 -3 -7z m380 -1 c3 -6 -4 -10 -17 -10 -18 0 -20 2 -8 10 19 12 18 12 25 0z
m-125 -9 c0 -5 9 -7 20 -4 12 3 20 0 20 -7 0 -7 -7 -10 -15 -6 -9 3 -20 -3
-27 -14 -8 -12 -23 -19 -38 -19 -23 2 -24 2 -2 6 12 2 22 9 22 14 0 6 -5 7
-11 4 -6 -4 -5 2 3 14 13 22 28 28 28 12z m165 -11 c3 -5 -1 -10 -9 -10 -9 0
-16 5 -16 10 0 6 4 10 9 10 6 0 13 -4 16 -10z m-544 -9 c-11 -7 -9 -10 8 -16
12 -3 19 -10 16 -15 -7 -11 -74 -10 -81 1 -3 5 1 9 9 9 8 0 20 7 27 15 7 8 18
15 24 15 6 0 5 -4 -3 -9z m430 -29 c-7 -2 -18 1 -23 6 -8 8 -4 9 13 5 13 -4
18 -8 10 -11z m-271 -32 c-9 -6 -6 -10 9 -15 24 -7 28 -25 5 -25 -8 0 -13 3
-11 8 3 4 -6 7 -19 7 -13 0 -24 -3 -24 -7 0 -5 7 -8 16 -8 8 0 13 -4 10 -9 -9
-13 -49 0 -64 21 -14 19 -42 25 -42 8 0 -7 -7 -7 -20 0 -11 6 -18 16 -14 22 4
7 9 6 14 -2 6 -9 12 -10 26 -1 11 6 13 11 7 11 -7 0 -13 5 -13 11 0 6 8 9 18
7 9 -2 16 -11 14 -20 -3 -19 37 -31 55 -16 8 6 11 13 8 16 -3 3 0 11 7 19 10
12 13 12 21 -3 6 -11 5 -19 -3 -24z m654 -6 c18 -17 22 -39 6 -29 -11 7 -33
45 -26 45 2 0 12 -7 20 -16z m-424 -8 c0 -2 -7 -7 -16 -10 -8 -3 -12 -2 -9 4
6 10 25 14 25 6z m-7 -52 c-4 -11 -7 -11 -19 1 -19 19 -18 24 5 18 12 -3 17
-11 14 -19z m496 7 c9 -6 10 -11 2 -15 -13 -8 -31 1 -31 15 0 11 11 11 29 0z
m-49 -66 c-7 -19 -6 -27 8 -34 9 -6 12 -11 7 -11 -6 0 -17 6 -24 12 -12 11
-13 9 -7 -7 6 -20 6 -20 -9 -1 -11 14 -12 22 -4 27 7 4 8 12 4 19 -5 9 -4 11
3 6 7 -4 12 -2 12 3 0 6 4 11 10 11 6 0 6 -9 0 -25z m-40 -62 c0 -3 -7 -3 -15
1 -8 3 -15 0 -15 -6 0 -6 -3 -9 -6 -5 -11 10 6 26 21 20 8 -3 15 -7 15 -10z"/>
<path d="M250 1060 c0 -5 5 -10 11 -10 5 0 7 5 4 10 -3 6 -8 10 -11 10 -2 0
-4 -4 -4 -10z"/>
<path d="M348 1023 c6 -2 18 -2 25 0 6 3 1 5 -13 5 -14 0 -19 -2 -12 -5z"/>
<path d="M847 953 c5 -12 3 -14 -8 -8 -8 4 -5 -1 6 -12 12 -12 23 -16 27 -10
8 14 0 34 -17 41 -10 3 -12 0 -8 -11z"/>
<path d="M678 941 c-16 -9 -28 -22 -28 -30 0 -11 6 -9 19 6 11 12 26 23 33 26
7 2 11 6 8 9 -3 3 -17 -2 -32 -11z"/>
<path d="M714 919 c-3 -5 1 -9 8 -9 7 0 23 -3 36 -6 17 -5 21 -3 17 9 -7 16
-52 20 -61 6z"/>
<path d="M820 900 c-8 -5 -10 -10 -5 -10 6 0 17 5 25 10 8 5 11 10 5 10 -5 0
-17 -5 -25 -10z"/>
<path d="M1240 820 c-18 -12 -2 -12 25 0 13 6 15 9 5 9 -8 0 -22 -4 -30 -9z"/>
<path d="M1316 815 c4 -8 16 -15 27 -15 20 0 20 0 1 15 -25 19 -35 19 -28 0z"/>
<path d="M1190 800 c0 -5 4 -10 9 -10 6 0 13 5 16 10 3 6 -1 10 -9 10 -9 0
-16 -4 -16 -10z"/>
<path d="M1380 780 c0 -5 5 -10 10 -10 6 0 10 5 10 10 0 6 -4 10 -10 10 -5 0
-10 -4 -10 -10z"/>
<path d="M1170 769 c0 -5 5 -7 10 -4 6 3 10 8 10 11 0 2 -4 4 -10 4 -5 0 -10
-5 -10 -11z"/>
<path d="M1356 751 c-3 -4 6 -6 19 -3 14 2 25 6 25 8 0 8 -39 4 -44 -5z"/>
<path d="M1175 740 c3 -5 8 -10 11 -10 2 0 4 5 4 10 0 6 -5 10 -11 10 -5 0 -7
-4 -4 -10z"/>
<path d="M1300 730 c-10 -6 -5 -9 18 -8 22 1 29 4 20 9 -16 11 -20 11 -38 -1z"/>
<path d="M1235 720 c28 -12 47 -12 40 0 -3 6 -18 10 -33 9 -24 0 -25 -1 -7 -9z"/>
<path d="M1905 650 c3 -5 8 -10 11 -10 2 0 4 5 4 10 0 6 -5 10 -11 10 -5 0 -7
-4 -4 -10z"/>
<path d="M1930 638 c0 -9 5 -20 10 -23 13 -8 13 5 0 25 -8 13 -10 13 -10 -2z"/>
<path d="M1742 619 c-7 -10 -8 -19 -3 -19 13 0 33 28 23 33 -4 3 -13 -3 -20
-14z"/>
<path d="M1960 605 c-11 -13 -11 -18 0 -28 10 -10 11 -9 5 2 -5 9 -1 19 10 28
11 7 14 13 8 13 -6 0 -16 -7 -23 -15z"/>
<path d="M1716 587 c3 -10 9 -15 12 -12 3 3 0 11 -7 18 -10 9 -11 8 -5 -6z"/>
<path d="M1790 580 c0 -8 9 -10 25 -6 18 5 25 2 25 -9 0 -16 15 -21 24 -7 9
15 -9 27 -41 30 -21 2 -33 -1 -33 -8z"/>
<path d="M1930 555 c-7 -9 -11 -17 -9 -20 3 -2 10 5 17 15 14 24 10 26 -8 5z"/>
<path d="M1935 520 c-3 -5 -1 -10 4 -10 6 0 11 5 11 10 0 6 -2 10 -4 10 -3 0
-8 -4 -11 -10z"/>
<path d="M1856 501 c-3 -5 0 -11 8 -14 8 -3 17 1 20 9 6 15 -19 20 -28 5z"/>
<path d="M0 1190 c0 -5 6 -10 14 -10 8 0 18 5 21 10 3 6 -3 10 -14 10 -12 0
-21 -4 -21 -10z"/>
<path d="M595 1130 c22 -9 37 -13 250 -71 302 -83 474 -131 690 -194 341 -98
415 -118 423 -111 3 3 -1 8 -9 10 -15 5 -324 92 -449 127 -41 11 -104 29 -140
39 -36 11 -126 36 -200 56 -74 20 -187 51 -250 69 -235 66 -305 85 -320 84
-10 0 -8 -3 5 -9z"/>
<path d="M2 998 c3 -7 19 -15 37 -19 48 -10 122 -40 117 -47 -2 -4 9 -7 25 -8
29 -1 139 -33 139 -40 0 -2 -15 -1 -32 2 -27 4 -29 3 -12 -5 47 -21 37 -61
-14 -55 -15 2 -21 1 -14 -2 10 -5 10 -9 0 -22 -11 -13 -10 -14 9 -4 27 15 55
16 33 2 -12 -8 -11 -10 7 -10 12 0 24 -6 26 -12 4 -9 8 -10 14 -3 4 6 22 19
38 29 17 10 27 16 23 12 -3 -4 1 -16 9 -26 16 -18 17 -18 32 1 22 26 74 26
158 0 18 -5 33 -6 33 -1 0 8 -47 26 -85 32 -11 2 -22 5 -25 8 -3 3 -32 14 -65
24 -33 11 -146 50 -251 88 -105 37 -194 68 -198 68 -4 0 -6 -6 -4 -12z m392
-143 c15 -8 39 -15 52 -15 31 0 40 -18 12 -22 -31 -5 -79 11 -101 33 -22 23
-4 25 37 4z"/>
<path d="M0 876 c0 -2 8 -10 18 -17 15 -13 16 -12 3 4 -13 16 -21 21 -21 13z"/>
<path d="M246 855 c-4 -12 2 -15 27 -14 18 0 25 3 17 6 -8 3 -20 10 -26 15 -8
5 -14 3 -18 -7z"/>
<path d="M660 770 c8 -5 20 -10 25 -10 6 0 3 5 -5 10 -8 5 -19 10 -25 10 -5 0
-3 -5 5 -10z"/>
<path d="M720 750 c0 -7 20 -15 56 -25 6 -2 21 -6 33 -10 14 -4 21 -2 21 6 0
7 -3 9 -7 6 -3 -4 -11 -3 -17 2 -16 13 -86 31 -86 21z"/>
<path d="M2 733 c3 -15 14 -18 62 -18 32 0 60 4 63 8 2 4 -10 7 -29 6 -18 -2
-43 3 -55 9 -31 17 -45 15 -41 -5z"/>
<path d="M2060 720 c90 -28 123 -33 83 -12 -22 12 -144 42 -164 41 -8 0 29
-13 81 -29z"/>
<path d="M840 709 c0 -5 5 -7 10 -4 6 3 10 8 10 11 0 2 -4 4 -10 4 -5 0 -10
-5 -10 -11z"/>
<path d="M36 695 c-11 -8 -17 -16 -13 -16 4 -1 12 -3 17 -4 6 -1 15 -3 20 -4
6 0 10 -8 10 -16 0 -20 19 -19 27 1 3 9 13 14 24 11 11 -3 22 -1 25 4 3 5 0 9
-6 9 -6 0 -9 4 -6 9 7 11 -34 22 -48 14 -5 -4 -1 -10 10 -14 18 -7 18 -8 0 -8
-10 -1 -24 6 -30 14 -10 12 -13 12 -30 0z"/>
<path d="M864 699 c-5 -9 -2 -10 9 -6 10 3 17 2 17 -3 0 -6 7 -10 15 -10 8 0
15 5 15 10 0 6 -4 10 -9 10 -5 0 -16 3 -24 6 -8 3 -18 0 -23 -7z"/>
<path d="M2184 689 c11 -6 49 -20 85 -29 68 -18 361 -101 511 -145 96 -28 100
-29 100 -14 0 5 -5 7 -10 4 -6 -4 -16 -2 -23 3 -14 11 -92 34 -287 86 -112 30
-321 87 -380 103 -8 3 -6 -1 4 -8z"/>
<path d="M930 682 c0 -10 70 -36 77 -28 4 3 4 6 1 6 -3 0 -22 7 -42 15 -20 8
-36 12 -36 7z"/>
<path d="M458 643 c7 -3 16 -2 19 1 4 3 -2 6 -13 5 -11 0 -14 -3 -6 -6z"/>
<path d="M1030 641 c8 -6 47 -20 85 -32 125 -38 190 -67 187 -83 -1 -8 2 -18
8 -21 20 -12 69 -16 86 -7 11 6 30 4 56 -6 32 -13 41 -13 51 -2 10 10 9 12 -5
7 -10 -4 -18 -2 -18 4 0 6 -7 9 -15 5 -8 -3 -15 -2 -15 3 0 5 -13 11 -29 13
-19 3 -28 1 -24 -6 3 -6 -4 -1 -17 12 -12 13 -29 21 -37 18 -9 -4 -11 -2 -7 6
5 7 0 9 -14 6 -12 -4 -22 -3 -22 2 0 6 -158 63 -215 77 -57 14 -70 15 -55 4z"/>
<path d="M358 623 c7 -3 16 -2 19 1 4 3 -2 6 -13 5 -11 0 -14 -3 -6 -6z"/>
<path d="M610 626 c0 -2 7 -7 16 -10 8 -3 12 -2 9 4 -6 10 -25 14 -25 6z"/>
<path d="M408 607 c-57 -18 -81 -43 -68 -68 6 -11 21 -24 33 -28 46 -17 189 5
209 33 3 5 4 15 1 23 -3 7 0 13 7 13 7 0 6 6 -4 16 -21 20 -130 27 -178 11z
m120 -18 c-6 -4 -6 -8 2 -11 9 -3 8 -9 -4 -21 -11 -11 -13 -17 -5 -17 34 0 -4
-10 -56 -15 -49 -5 -65 -2 -88 13 -26 17 -27 20 -10 27 10 4 23 9 30 10 6 2
19 7 29 13 19 11 119 11 102 1z m27 -37 c-17 -15 -18 -15 -6 0 7 9 9 23 5 30
-6 10 -4 11 7 0 11 -10 10 -15 -6 -30z"/>
<path d="M459 571 c11 -7 11 -9 0 -14 -8 -3 -2 -6 12 -6 15 -1 29 6 33 14 4
11 -2 15 -27 15 -22 0 -28 -3 -18 -9z"/>
<path d="M623 568 c0 -18 2 -27 5 -20 2 6 16 12 31 12 18 0 28 5 28 15 0 8 -8
15 -18 15 -9 0 -24 2 -32 5 -10 4 -14 -3 -14 -27z"/>
<path d="M167 556 c-16 -12 -16 -14 -2 -20 9 -3 14 -2 11 3 -3 5 1 12 10 15
23 9 36 7 29 -4 -7 -12 15 -13 33 -1 10 6 4 10 -18 15 -42 8 -42 8 -63 -8z"/>
<path d="M598 514 c-16 -8 -28 -19 -28 -24 0 -15 7 -12 36 15 31 29 30 30 -8
9z"/>
<path d="M240 516 c0 -2 9 -6 20 -9 11 -3 18 -1 14 4 -5 9 -34 13 -34 5z"/>
<path d="M770 496 c0 -2 7 -7 16 -10 8 -3 12 -2 9 4 -6 10 -25 14 -25 6z"/>
<path d="M2903 493 c9 -2 17 -8 17 -12 0 -5 12 -11 28 -14 15 -3 35 -9 45 -12
9 -4 17 -3 17 4 0 10 -92 42 -114 40 -6 -1 -3 -3 7 -6z"/>
<path d="M510 480 c-18 -12 -2 -12 25 0 13 6 15 9 5 9 -8 0 -22 -4 -30 -9z"/>
<path d="M1501 474 l-25 -13 27 -6 c15 -4 25 -11 22 -15 -3 -5 1 -11 7 -13 9
-4 7 -6 -3 -6 -9 -1 -23 -9 -30 -18 -12 -15 -12 -16 4 -10 10 4 28 7 39 7 17
0 19 4 13 30 -6 29 6 42 20 20 4 -6 9 -8 13 -6 4 2 23 -5 42 -15 l35 -19 -31
4 c-16 2 -39 -3 -49 -10 -15 -12 -16 -14 -3 -14 9 0 18 -7 22 -15 3 -9 17 -15
33 -14 27 1 27 1 4 8 -20 5 -21 8 -9 18 7 7 27 17 43 23 21 8 26 13 16 19 -7
5 -21 7 -31 4 -9 -3 -25 4 -35 14 -10 10 -20 17 -22 15 -5 -5 -67 10 -73 17
-3 4 -16 2 -29 -5z"/>
<path d="M428 473 c7 -3 16 -2 19 1 4 3 -2 6 -13 5 -11 0 -14 -3 -6 -6z"/>
<path d="M994 469 c-6 -10 11 -20 28 -16 7 2 10 2 6 0 -14 -8 -9 -31 7 -37 12
-4 15 0 11 22 -2 15 -5 29 -5 32 -1 8 -42 7 -47 -1z"/>
<path d="M1099 456 c11 -12 51 -29 51 -21 0 2 -14 10 -31 19 -23 12 -28 12
-20 2z"/>
<path d="M2456 461 c-4 -5 1 -8 9 -7 21 3 31 16 12 16 -9 0 -18 -4 -21 -9z"/>
<path d="M2534 454 c10 -10 28 -14 48 -11 l33 4 -32 1 c-18 1 -33 7 -33 12 0
6 -7 10 -16 10 -14 0 -14 -1 0 -16z"/>
<path d="M946 433 c-13 -18 -15 -27 -7 -34 6 -5 9 -6 6 -2 -3 3 2 14 11 24 9
10 14 22 13 27 -2 6 -12 -1 -23 -15z"/>
<path d="M3035 451 c17 -16 65 -25 65 -11 0 6 -6 10 -12 7 -7 -2 -24 0 -38 5
-17 6 -22 6 -15 -1z"/>
<path d="M1210 437 c0 -8 7 -20 15 -27 11 -9 15 -10 15 -1 0 7 -7 19 -15 27
-13 13 -15 13 -15 1z"/>
<path d="M3110 431 c0 -4 26 -16 57 -24 43 -13 60 -14 68 -5 7 8 5 9 -7 5 -9
-3 -18 -2 -20 3 -2 5 -15 10 -30 12 -15 2 -30 7 -34 11 -10 10 -34 9 -34 -2z"/>
<path d="M2400 420 c-13 -8 -13 -10 2 -10 9 0 20 5 23 10 8 13 -5 13 -25 0z"/>
<path d="M83 413 c4 -3 -1 -12 -11 -20 -9 -8 -11 -12 -4 -8 6 3 12 2 12 -4 0
-5 7 -8 15 -7 21 3 31 16 12 16 -10 0 -14 5 -11 15 4 8 1 15 -7 15 -7 0 -9 -3
-6 -7z"/>
<path d="M123 413 c9 -2 17 -11 17 -19 0 -15 12 -19 23 -7 11 11 -14 33 -37
32 -17 -1 -17 -2 -3 -6z"/>
<path d="M1160 390 c11 -11 22 -20 25 -20 3 0 0 9 -7 20 -7 11 -18 20 -25 20
-8 0 -5 -8 7 -20z"/>
<path d="M1296 380 c-8 -16 -11 -30 -6 -30 5 0 12 10 16 23 4 12 12 25 18 29
8 6 8 8 -1 8 -6 0 -18 -13 -27 -30z"/>
<path d="M2470 406 c0 -2 8 -10 18 -17 15 -13 16 -12 3 4 -13 16 -21 21 -21
13z"/>
<path d="M2395 390 c-3 -5 -1 -10 4 -10 6 0 11 5 11 10 0 6 -2 10 -4 10 -3 0
-8 -4 -11 -10z"/>
<path d="M3245 390 c-3 -5 -2 -10 4 -10 5 0 13 5 16 10 3 6 2 10 -4 10 -5 0
-13 -4 -16 -10z"/>
<path d="M1784 381 c3 -5 26 -14 51 -21 42 -12 83 -50 54 -50 -7 0 -10 -2 -7
-5 8 -9 38 6 32 16 -6 10 2 11 33 3 14 -4 20 -11 16 -22 -4 -15 -3 -15 7 -2 9
11 13 12 17 2 2 -6 8 -10 13 -7 4 2 29 -3 55 -11 37 -13 49 -14 58 -4 9 10 7
11 -12 5 -17 -5 -21 -4 -16 5 5 9 1 10 -15 5 -15 -5 -20 -4 -16 4 7 10 -19 16
-53 12 -7 -2 -10 2 -6 8 3 6 -2 12 -12 13 -27 2 -36 4 -63 15 -14 6 -28 9 -32
6 -5 -2 -8 1 -8 7 0 6 -4 9 -9 6 -5 -3 -28 1 -50 9 -23 8 -39 11 -37 6z"/>
<path d="M3274 378 c-5 -7 -2 -9 7 -6 8 3 23 0 34 -8 21 -15 55 -19 55 -6 0 5
-17 14 -39 20 -47 15 -48 15 -57 0z"/>
<path d="M861 364 c0 -11 3 -14 6 -6 3 7 2 16 -1 19 -3 4 -6 -2 -5 -13z"/>
<path d="M930 360 c0 -11 2 -20 4 -20 2 0 6 9 9 20 3 11 1 20 -4 20 -5 0 -9
-9 -9 -20z"/>
<path d="M1218 369 c6 -7 12 -22 12 -33 0 -17 2 -18 10 -6 14 22 12 28 -12 41
-19 9 -21 9 -10 -2z"/>
<path d="M2615 369 c-9 -14 -2 -20 14 -10 8 6 9 11 3 15 -6 3 -14 1 -17 -5z"/>
<path d="M1016 349 c-33 -26 -33 -52 -1 -69 13 -7 22 -17 19 -21 -3 -5 2 -6
10 -3 22 8 20 18 -6 29 -13 6 -24 20 -26 33 -3 18 2 23 27 28 17 4 31 10 31
15 0 16 -26 10 -54 -12z"/>
<path d="M1080 365 c0 -3 11 -10 25 -15 26 -10 34 -43 14 -56 -8 -4 -7 -9 2
-15 8 -4 18 -1 26 9 22 30 15 52 -22 68 -37 15 -45 17 -45 9z"/>
<path d="M2420 345 c7 -9 15 -13 17 -11 7 7 -7 26 -19 26 -6 0 -6 -6 2 -15z"/>
<path d="M3390 350 c0 -11 139 -54 148 -46 11 12 -13 24 -74 40 -73 19 -74 19
-74 6z"/>
<path d="M429 348 c0 -2 -2 -12 -4 -22 -2 -10 -10 -23 -17 -27 -8 -5 -2 -8 17
-6 27 2 30 5 27 30 -2 15 -8 27 -13 27 -5 0 -9 -1 -10 -2z"/>
<path d="M523 340 c2 -8 -3 -20 -12 -27 -15 -11 -14 -12 1 -13 9 0 20 5 23 11
4 6 13 8 21 5 8 -3 11 0 7 9 -3 8 -10 12 -15 9 -6 -4 -15 0 -20 7 -8 12 -9 11
-5 -1z"/>
<path d="M2351 336 c-7 -9 -20 -16 -27 -16 -10 0 -8 -6 6 -20 21 -21 35 -27
25 -10 -3 6 -1 10 4 10 6 0 11 -8 12 -17 0 -11 3 -13 6 -5 6 16 23 15 23 -2 0
-7 9 -16 20 -19 13 -3 18 -1 13 5 -4 8 5 9 26 5 23 -5 31 -3 29 5 -3 7 -16 13
-30 13 -35 2 -60 13 -54 24 3 4 -9 7 -27 5 -21 -3 -27 -1 -18 5 7 5 12 14 9
21 -3 9 -8 8 -17 -4z"/>
<path d="M1043 333 c-28 -11 -11 -24 25 -19 20 3 38 5 40 6 2 0 0 5 -3 10 -6
10 -41 12 -62 3z"/>
<path d="M1312 318 c-18 -11 -31 -23 -28 -25 3 -3 17 4 33 14 15 11 35 23 43
26 13 5 13 5 0 5 -8 0 -30 -9 -48 -20z"/>
<path d="M1860 330 c0 -5 5 -10 11 -10 5 0 7 5 4 10 -3 6 -8 10 -11 10 -2 0
-4 -4 -4 -10z"/>
<path d="M2555 330 c-8 -13 5 -13 25 0 13 8 13 10 -2 10 -9 0 -20 -4 -23 -10z"/>
<path d="M810 324 c0 -9 32 -33 44 -34 5 0 -1 9 -14 20 -25 21 -30 24 -30 14z"/>
<path d="M2500 320 c0 -5 7 -7 15 -4 8 4 15 8 15 10 0 2 -7 4 -15 4 -8 0 -15
-4 -15 -10z"/>
<path d="M329 299 c13 -10 27 -16 32 -13 15 9 2 21 -28 27 l-28 5 24 -19z"/>
<path d="M877 307 c-3 -8 1 -14 9 -14 8 0 14 6 14 14 0 17 -16 17 -23 0z"/>
<path d="M1320 291 c0 -6 4 -13 10 -16 6 -3 7 1 4 9 -7 18 -14 21 -14 7z"/>
<path d="M247 269 c7 -7 15 -10 18 -7 3 3 -2 9 -12 12 -14 6 -15 5 -6 -5z"/>
<path d="M530 269 c-29 -6 -26 -7 19 -4 29 2 56 6 59 9 7 8 -35 5 -78 -5z"/>
<path d="M2130 270 c-9 -6 -10 -10 -3 -10 6 0 15 5 18 10 8 12 4 12 -15 0z"/>
<path d="M118 263 c7 -3 16 -2 19 1 4 3 -2 6 -13 5 -11 0 -14 -3 -6 -6z"/>
<path d="M1087 257 c3 -4 -2 -16 -9 -25 -31 -35 -31 -46 -1 -22 17 14 28 29
25 34 -2 4 2 12 9 17 10 6 8 8 -8 6 -12 0 -19 -5 -16 -10z"/>
<path d="M1185 260 c-3 -6 1 -7 9 -4 18 7 21 14 7 14 -6 0 -13 -4 -16 -10z"/>
<path d="M835 250 c3 -5 16 -10 27 -10 26 0 16 13 -13 17 -12 2 -18 -1 -14 -7z"/>
<path d="M3148 238 c-10 -10 -14 -18 -9 -18 10 0 36 29 30 34 -2 1 -12 -6 -21
-16z"/>
<path d="M3237 252 c-9 -2 -15 -8 -11 -13 4 -6 11 -6 20 2 11 9 14 9 14 0 0
-7 4 -9 10 -6 5 3 21 -6 35 -21 14 -15 25 -23 25 -18 0 12 -41 49 -60 55 -8 3
-23 4 -33 1z"/>
<path d="M10 225 c-19 -36 -7 -40 14 -5 9 17 13 30 8 30 -5 0 -15 -11 -22 -25z"/>
<path d="M310 240 c25 -4 49 -4 53 0 4 4 -16 7 -45 7 l-53 1 45 -8z"/>
<path d="M494 239 c-8 -14 10 -32 37 -36 18 -3 20 -1 9 12 -7 8 -19 15 -27 15
-8 0 -11 5 -8 10 3 6 4 10 1 10 -3 0 -8 -5 -12 -11z"/>
<path d="M670 240 c0 -5 4 -10 9 -10 6 0 13 5 16 10 3 6 -1 10 -9 10 -9 0 -16
-4 -16 -10z"/>
<path d="M1195 241 c-3 -2 -5 -9 -5 -15 0 -6 5 -4 10 4 5 8 10 10 10 4 0 -6 6
-11 13 -11 8 0 14 5 14 12 0 10 -33 15 -42 6z"/>
<path d="M1258 243 c7 -3 16 -2 19 1 4 3 -2 6 -13 5 -11 0 -14 -3 -6 -6z"/>
<path d="M2198 237 c14 -6 26 -7 32 -1 5 5 -4 9 -23 10 -30 1 -30 1 -9 -9z"/>
<path d="M3186 235 c4 -8 7 -15 9 -15 2 0 5 7 9 15 3 9 0 15 -9 15 -9 0 -12
-6 -9 -15z"/>
<path d="M970 231 c0 -5 9 -7 20 -4 11 3 20 7 20 9 0 2 -9 4 -20 4 -11 0 -20
-4 -20 -9z"/>
<path d="M450 219 c0 -5 5 -7 10 -4 6 3 10 8 10 11 0 2 -4 4 -10 4 -5 0 -10
-5 -10 -11z"/>
<path d="M1128 223 c7 -3 16 -2 19 1 4 3 -2 6 -13 5 -11 0 -14 -3 -6 -6z"/>
<path d="M1746 223 c-12 -12 -6 -25 8 -20 8 3 17 1 20 -6 2 -7 5 -5 5 4 1 17
-22 32 -33 22z"/>
<path d="M2278 224 c-4 -4 -5 -11 -2 -15 8 -13 44 -11 44 2 0 6 -6 9 -14 6 -8
-3 -16 -1 -18 4 -2 6 -7 7 -10 3z"/>
<path d="M331 204 c-19 -8 -32 -17 -29 -19 7 -7 55 11 63 24 8 14 8 13 -34 -5z"/>
<path d="M416 204 c-10 -25 -7 -46 6 -42 14 5 23 58 9 58 -5 0 -12 -7 -15 -16z"/>
<path d="M985 210 c-3 -5 3 -10 14 -10 12 0 21 5 21 10 0 6 -6 10 -14 10 -8 0
-18 -4 -21 -10z"/>
<path d="M1640 210 c-13 -8 -13 -10 2 -10 9 0 20 5 23 10 8 13 -5 13 -25 0z"/>
<path d="M3097 205 c-4 -11 -10 -27 -14 -35 -4 -10 -1 -10 11 3 10 9 16 25 14
35 -3 15 -5 15 -11 -3z"/>
<path d="M850 200 c0 -5 5 -10 11 -10 5 0 7 5 4 10 -3 6 -8 10 -11 10 -2 0 -4
-4 -4 -10z"/>
<path d="M903 203 c9 -2 23 -2 30 0 6 3 -1 5 -18 5 -16 0 -22 -2 -12 -5z"/>
<path d="M1810 201 c0 -6 5 -13 12 -17 7 -5 8 -3 3 6 -5 9 -2 10 13 6 11 -4
23 -2 27 4 4 6 -6 10 -24 10 -17 0 -31 -4 -31 -9z"/>
<path d="M2330 200 c0 -5 5 -10 11 -10 5 0 7 5 4 10 -3 6 -8 10 -11 10 -2 0
-4 -4 -4 -10z"/>
<path d="M268 193 c7 -3 16 -2 19 1 4 3 -2 6 -13 5 -11 0 -14 -3 -6 -6z"/>
<path d="M1909 193 c-1 -5 -1 -11 0 -15 0 -4 -6 -5 -14 -2 -8 4 -15 2 -15 -4
0 -5 13 -12 30 -14 27 -4 29 -3 15 12 -8 9 -12 20 -8 23 3 4 3 7 0 7 -4 0 -8
-3 -8 -7z"/>
<path d="M2360 188 c0 -6 6 -8 14 -5 7 3 19 1 25 -4 8 -6 8 -5 1 3 -13 15 -40
19 -40 6z"/>
<path d="M3348 176 c3 -12 10 -24 16 -29 7 -5 5 -12 -7 -21 -15 -12 -17 -18
-7 -33 10 -15 11 -16 6 -1 -3 11 3 23 15 31 18 13 18 15 4 27 -9 8 -14 21 -12
30 2 9 -1 17 -8 17 -7 0 -10 -9 -7 -21z"/>
<path d="M1057 169 c7 -7 15 -10 18 -7 3 3 -2 9 -12 12 -14 6 -15 5 -6 -5z"/>
<path d="M331 154 c0 -11 3 -14 6 -6 3 7 2 16 -1 19 -3 4 -6 -2 -5 -13z"/>
<path d="M365 160 c-3 -6 1 -7 9 -4 18 7 21 14 7 14 -6 0 -13 -4 -16 -10z"/>
<path d="M1117 164 c7 -3 11 -11 9 -17 -1 -7 -1 -9 1 -4 3 4 12 7 21 7 22 0 6
13 -21 16 -12 2 -17 0 -10 -2z"/>
<path d="M1701 159 c-24 -5 -49 -6 -55 -2 -6 3 -8 2 -3 -2 4 -5 0 -16 -9 -26
-14 -16 -13 -20 8 -53 13 -20 31 -39 42 -42 35 -11 142 6 165 27 26 24 29 49
4 27 -33 -28 -133 -49 -133 -28 0 5 -3 9 -7 8 -15 -3 -43 14 -37 23 3 5 -5 9
-18 10 -18 0 -13 5 22 21 42 20 57 23 105 27 17 1 18 3 5 11 -17 11 -28 11
-89 -1z"/>
<path d="M2445 160 c3 -5 8 -10 11 -10 2 0 4 5 4 10 0 6 -5 10 -11 10 -5 0 -7
-4 -4 -10z"/>
<path d="M3205 161 c-4 -7 0 -8 11 -4 11 4 15 3 10 -5 -3 -6 -2 -13 3 -16 5
-4 8 2 7 11 -3 20 -21 28 -31 14z"/>
<path d="M2887 142 c2 -10 28 -27 61 -40 46 -18 50 -21 22 -17 -19 3 10 -11
64 -30 55 -19 101 -33 104 -31 2 2 -28 15 -67 27 -39 13 -69 24 -67 27 2 2 43
-9 90 -24 62 -19 86 -31 86 -43 0 -9 3 -12 8 -6 9 13 32 18 32 7 0 -4 15 -9
33 -10 l32 -2 -28 18 c-15 10 -25 21 -22 24 3 3 -15 4 -40 4 -25 -1 -49 4 -53
11 -4 6 -33 16 -65 22 -60 11 -177 59 -177 73 0 4 -4 8 -9 8 -5 0 -7 -8 -4
-18z"/>
<path d="M3170 149 c0 -5 5 -7 10 -4 6 3 10 8 10 11 0 2 -4 4 -10 4 -5 0 -10
-5 -10 -11z"/>
<path d="M1882 143 c-6 -2 -10 -9 -6 -14 8 -14 21 -11 21 6 0 8 -1 15 -1 14
-1 0 -7 -3 -14 -6z"/>
<path d="M2499 133 c18 -8 36 -12 39 -9 3 4 0 6 -7 6 -7 0 -10 4 -7 8 3 5 -9
9 -27 9 l-32 0 34 -14z"/>
<path d="M486 132 c-3 -6 -1 -14 5 -17 15 -10 25 3 12 16 -7 7 -13 7 -17 1z"/>
<path d="M803 122 c-13 -2 -23 -7 -23 -12 0 -5 -9 -12 -20 -15 -14 -4 -20 -15
-20 -36 0 -22 5 -29 20 -29 11 0 20 -5 20 -11 0 -16 93 -6 114 12 41 34 44 40
38 61 -3 12 -7 17 -10 10 -2 -6 -10 -12 -18 -12 -8 0 -14 -8 -15 -17 0 -13 -2
-14 -6 -4 -3 8 1 19 10 26 14 10 13 12 -4 23 -19 12 -24 6 -20 -20 1 -10 -13
-10 -22 -1 -4 3 -2 12 4 19 11 13 5 14 -48 6z m17 -22 c0 -5 -4 -10 -10 -10
-5 0 -10 5 -10 10 0 6 5 10 10 10 6 0 10 -4 10 -10z m-31 -32 c-1 -17 -3 -18
-6 -6 -3 11 -10 15 -20 11 -11 -4 -14 -2 -9 5 13 21 36 13 35 -10z m72 3 c0
-3 2 -14 4 -24 2 -9 -1 -15 -6 -11 -5 3 -7 10 -4 15 4 5 2 9 -2 9 -5 0 -14 -9
-21 -20 -7 -11 -18 -20 -25 -20 -7 1 -5 6 6 14 18 14 24 32 7 21 -5 -3 -10 0
-10 9 0 22 48 30 51 7z m-91 -21 c0 -5 -5 -10 -11 -10 -5 0 -7 5 -4 10 3 6 8
10 11 10 2 0 4 -4 4 -10z"/>
<path d="M1515 121 c-3 -5 -2 -12 3 -15 5 -3 9 1 9 9 0 17 -3 19 -12 6z"/>
<path d="M1765 120 c-10 -16 4 -30 28 -29 12 0 16 3 10 6 -7 2 -13 11 -13 19
0 16 -16 19 -25 4z"/>
<path d="M1934 105 c-17 -13 -17 -14 -2 -15 9 0 20 5 23 11 11 17 0 20 -21 4z"/>
<path d="M2590 106 c0 -2 7 -7 16 -10 8 -3 12 -2 9 4 -6 10 -25 14 -25 6z"/>
<path d="M2900 100 c8 -5 20 -10 25 -10 6 0 3 5 -5 10 -8 5 -19 10 -25 10 -5
0 -3 -5 5 -10z"/>
<path d="M2644 85 c19 -15 19 -15 -1 -15 -12 0 -24 -3 -26 -7 -9 -16 13 -53
30 -52 15 0 15 2 3 7 -8 4 -16 15 -16 25 -2 17 10 21 56 17 33 -2 16 14 -30
28 -32 11 -33 10 -16 -3z"/>
<path d="M3210 91 c0 -6 4 -13 10 -16 6 -3 7 1 4 9 -7 18 -14 21 -14 7z"/>
<path d="M145 50 c4 -6 11 -8 16 -5 14 9 11 15 -7 15 -8 0 -12 -5 -9 -10z"/>
<path d="M1400 45 c-6 -8 -9 -19 -5 -25 11 -18 20 -11 20 15 0 29 1 29 -15 10z"/>
<path d="M2734 52 c-5 -4 -10 -18 -11 -32 -1 -14 1 -19 4 -12 4 10 8 10 21 0
14 -12 14 -10 3 10 -7 13 -11 26 -9 28 8 7 98 -28 93 -36 -3 -4 14 -8 38 -7
23 0 34 2 24 4 -9 3 -14 9 -11 15 4 6 -2 8 -16 3 -14 -4 -20 -3 -16 3 3 5 -2
13 -12 17 -24 10 -97 14 -108 7z"/>
<path d="M410 37 c-20 -16 -23 -37 -7 -37 8 0 19 11 25 25 13 27 6 32 -18 12z"/>
<path d="M271 23 c-15 -16 -10 -26 12 -21 9 2 12 9 8 19 -5 15 -8 15 -20 2z"/>
<path d="M537 26 c-18 -14 -22 -26 -9 -26 15 0 45 27 36 33 -5 3 -17 0 -27 -7z"/>
<path d="M588 33 c7 -3 16 -2 19 1 4 3 -2 6 -13 5 -11 0 -14 -3 -6 -6z"/>
<path d="M1905 20 c-16 -7 -17 -9 -3 -9 9 -1 20 4 23 9 7 11 7 11 -20 0z"/>
<path d="M2255 10 c-8 -13 5 -13 25 0 13 8 13 10 -2 10 -9 0 -20 -4 -23 -10z"/>
<path d="M2305 10 c-3 -5 1 -10 9 -10 9 0 16 5 16 10 0 6 -4 10 -9 10 -6 0
-13 -4 -16 -10z"/>
<path d="M2685 10 c-19 -8 -19 -9 3 -9 12 -1 22 4 22 9 0 6 -1 10 -2 9 -2 0
-12 -4 -23 -9z"/>
<path d="M343 3 c9 -2 23 -2 30 0 6 3 -1 5 -18 5 -16 0 -22 -2 -12 -5z"/>
<path d="M453 3 c9 -2 23 -2 30 0 6 3 -1 5 -18 5 -16 0 -22 -2 -12 -5z"/>
<path d="M2178 3 c6 -2 18 -2 25 0 6 3 1 5 -13 5 -14 0 -19 -2 -12 -5z"/>
</g>
</svg>
