<?xml version="1.0" standalone="no"?>
<!DOCTYPE svg PUBLIC "-//W3C//DTD SVG 20010904//EN"
 "http://www.w3.org/TR/2001/REC-SVG-20010904/DTD/svg10.dtd">
<svg version="1.0" xmlns="http://www.w3.org/2000/svg"
 width="354.000000pt" height="365.000000pt" viewBox="0 0 354.000000 365.000000"
 preserveAspectRatio="xMidYMid meet">

<g transform="translate(0.000000,365.000000) scale(0.100000,-0.100000)"
fill="#000000" stroke="none">
<path d="M0 3630 c0 -11 5 -20 10 -20 6 0 10 -5 10 -11 0 -5 -4 -7 -10 -4 -7
4 -10 -77 -10 -234 0 -137 4 -241 9 -241 5 0 14 -13 20 -30 10 -29 5 -35 -22
-31 -4 0 -6 -38 -5 -86 1 -49 3 -71 5 -50 l4 37 28 -19 28 -20 11 22 11 22 0
-22 c1 -12 -3 -24 -9 -28 -5 -3 -7 -12 -4 -19 4 -10 -2 -12 -22 -8 -24 4 -26
2 -20 -19 3 -13 3 -18 0 -11 -3 6 -12 12 -20 12 -21 0 -19 -86 3 -98 11 -7 17
-25 18 -55 2 -37 -1 -46 -16 -50 -16 -4 -19 -15 -19 -63 l0 -57 25 47 c14 26
25 55 25 65 0 20 19 41 37 41 9 0 10 -6 2 -27 -10 -27 -10 -27 10 -8 12 10 21
13 21 8 0 -17 -28 -36 -44 -30 -8 3 -13 0 -12 -8 4 -25 15 -29 36 -10 19 18
20 17 20 -2 0 -21 -29 -66 -30 -45 0 6 -6 12 -14 12 -8 0 -16 6 -18 12 -3 7
-13 0 -24 -16 -13 -21 -15 -31 -6 -34 17 -5 15 -22 -3 -22 -31 0 -13 -87 27
-132 17 -18 26 -26 21 -18 -19 29 -22 60 -6 60 8 0 12 4 9 9 -3 4 0 16 7 25
14 19 42 13 51 -11 7 -17 -23 -44 -39 -36 -5 3 -4 0 3 -8 6 -7 12 -24 12 -37
0 -22 3 -23 60 -20 63 3 73 13 41 40 -17 14 -18 21 -8 47 6 17 13 28 16 26 2
-3 10 0 18 7 11 9 15 7 20 -10 3 -13 13 -22 25 -22 17 0 19 -5 14 -25 -5 -18
-2 -25 8 -25 7 0 13 -8 12 -17 -1 -15 9 -19 52 -21 47 -3 54 -1 59 18 3 11 17
23 32 26 14 3 33 8 42 10 10 3 27 -8 43 -26 24 -29 46 -33 46 -8 0 5 9 22 19
37 11 15 19 36 18 46 -1 13 4 20 16 20 23 0 49 -68 41 -102 -7 -28 0 -29 25
-4 10 10 23 20 29 22 7 3 6 20 -2 53 -7 28 -16 44 -20 38 -12 -20 -22 -14 -21
12 0 31 13 45 25 27 6 -10 14 0 30 38 13 28 32 57 44 63 17 9 16 6 -6 -21 -39
-45 -65 -149 -36 -138 7 2 12 13 10 23 -2 14 -1 16 6 5 7 -9 12 -10 16 -2 4 6
15 11 25 11 20 0 37 52 20 58 -13 5 -11 36 3 50 10 10 10 14 0 21 -10 6 -10
10 3 21 8 7 15 11 16 9 7 -39 6 -66 -2 -76 -8 -9 -7 -17 5 -28 20 -20 20 -30
1 -49 -19 -19 -19 -32 0 -40 17 -6 21 -46 5 -46 -5 0 -10 -12 -10 -26 0 -14
-4 -23 -10 -19 -5 3 -10 1 -10 -4 0 -6 -5 -11 -10 -11 -14 0 -33 52 -23 59 8
6 33 57 33 67 0 3 -12 -4 -26 -15 -15 -12 -33 -21 -40 -21 -20 0 -17 -20 7
-60 18 -28 18 -32 4 -20 -16 13 -18 13 -13 0 4 -12 27 -16 106 -18 104 -3 121
3 81 31 -17 12 -19 21 -13 51 5 28 9 34 19 26 10 -8 15 -8 21 1 5 9 10 5 16
-10 5 -15 14 -21 23 -17 11 4 15 -2 15 -19 0 -14 5 -25 10 -25 6 0 10 -8 8
-17 -3 -15 6 -18 54 -21 49 -2 59 1 68 18 7 13 21 20 40 20 16 0 32 5 35 10 3
6 18 -3 32 -20 13 -16 28 -30 33 -30 10 0 54 70 56 90 0 8 2 21 3 28 0 8 8 12
17 10 20 -4 46 -75 39 -105 -6 -26 7 -30 25 -8 7 8 19 15 26 15 17 0 17 4 0
59 -9 31 -15 40 -21 31 -6 -10 -10 -8 -16 8 -12 31 -1 54 22 47 12 -4 19 -2
19 7 0 7 12 31 26 52 26 38 24 55 -9 60 -8 1 -21 7 -28 13 -8 5 -27 13 -42 17
-23 5 -27 10 -17 21 9 10 7 20 -5 39 -11 17 -13 26 -6 26 7 0 9 5 6 10 -7 11
22 13 76 4 l36 -6 -2 -59 c-2 -63 3 -71 23 -39 7 11 21 20 32 20 22 0 26 -10
9 -27 -13 -13 35 -7 67 9 16 7 36 6 75 -6 75 -22 78 -25 64 -60 l-12 -28 -6
31 c-4 18 -13 31 -22 31 -19 0 -19 -14 0 -34 9 -8 15 -18 15 -21 0 -3 6 -13
15 -21 13 -14 15 -12 16 18 1 30 2 29 15 -10 2 -7 8 -10 14 -7 6 4 5 16 -5 34
-8 16 -11 31 -8 34 3 4 -2 9 -11 13 -10 4 -22 17 -27 31 -5 13 -20 28 -35 33
-24 9 -25 13 -19 53 4 23 12 45 17 48 5 3 6 14 2 23 -6 16 -5 17 16 6 20 -11
21 -14 9 -24 -24 -18 -29 -43 -12 -63 12 -15 14 -15 9 -1 -8 26 31 68 63 68
14 0 37 7 49 16 19 13 22 13 22 1 0 -10 7 -13 21 -10 20 6 20 6 -4 27 -18 16
-23 26 -16 37 16 26 9 28 -16 5 -14 -13 -25 -28 -25 -35 0 -6 -13 -11 -28 -11
-21 0 -32 7 -40 24 -9 21 -8 26 8 31 11 4 24 4 29 1 5 -4 12 0 14 6 3 8 6 6 6
-5 1 -10 6 -15 11 -12 17 10 11 44 -10 65 -12 12 -18 25 -15 31 4 5 2 16 -4
23 -15 18 -3 48 18 44 20 -4 27 -38 9 -49 -9 -6 -9 -9 -1 -9 7 0 10 -6 7 -14
-4 -10 6 -16 35 -21 41 -7 53 -19 29 -28 -8 -3 -6 -6 5 -6 11 -1 17 6 17 19 0
13 -7 20 -18 20 -20 0 -52 29 -52 47 0 6 10 8 23 6 20 -4 22 -1 22 36 0 48 3
50 52 62 34 8 40 6 61 -17 27 -31 28 -55 2 -72 -13 -8 -20 -23 -20 -41 0 -16
-6 -36 -14 -43 -11 -12 -8 -20 22 -53 19 -22 32 -34 28 -27 -4 7 -1 24 8 37
21 33 20 36 -8 25 -33 -12 -39 -3 -14 22 15 15 17 22 8 28 -8 5 -6 16 9 41 12
19 21 41 21 49 0 9 12 33 26 54 25 36 25 38 5 31 -12 -4 -21 -2 -21 4 0 6 6
11 14 11 8 0 17 7 20 16 17 45 73 -41 61 -94 -8 -32 3 -62 21 -62 8 0 17 -7
20 -15 7 -18 72 -51 81 -41 4 4 -3 9 -15 13 -17 4 -22 13 -22 37 0 22 5 33 15
33 8 0 15 -7 15 -16 1 -12 6 -10 20 8 11 13 20 28 20 35 0 7 -3 6 -9 -2 -6
-11 -10 -11 -18 0 -16 20 -26 58 -15 58 5 0 12 8 15 18 2 9 8 26 12 37 6 17 5
17 -9 -2 -10 -13 -26 -23 -36 -23 -30 0 -34 -20 -11 -51 l22 -29 -23 4 c-13 3
-27 5 -33 5 -6 1 -5 5 2 9 8 5 8 19 -2 57 -8 28 -14 45 -14 39 -1 -7 -7 -14
-15 -17 -10 -4 -13 2 -12 21 2 38 16 59 27 41 4 -7 9 -11 11 -9 23 35 54 108
51 118 -3 6 -16 12 -29 12 -14 0 -27 7 -30 15 -4 8 -17 15 -31 15 -20 0 -23 4
-18 21 4 13 0 27 -11 40 -11 12 -13 19 -5 19 7 0 9 5 6 10 -7 11 37 13 72 4
26 -7 45 -56 37 -90 -7 -27 7 -32 26 -9 7 8 21 15 32 15 17 0 18 -2 8 -15 -19
-23 -10 -24 48 -5 57 19 72 12 45 -20 -20 -23 -40 -26 -45 -6 -2 11 -12 9 -45
-11 -24 -14 -40 -29 -37 -35 3 -5 17 0 30 13 23 21 24 21 24 3 -1 -10 -7 -30
-15 -44 -12 -22 -14 -23 -20 -8 -4 10 -12 15 -17 12 -6 -4 -14 -1 -18 6 -6 9
-13 4 -24 -18 -17 -34 -22 -107 -6 -97 5 3 6 13 3 22 -4 10 -2 14 4 10 6 -4
19 -4 27 -1 15 6 15 8 1 31 -9 14 -14 27 -11 31 3 3 6 0 6 -7 0 -7 4 -10 9 -6
5 3 13 -4 16 -16 7 -20 8 -19 28 12 l22 34 3 -28 c2 -18 -4 -37 -15 -49 -17
-19 -17 -20 0 -29 18 -11 24 -59 7 -59 -5 0 -10 -13 -10 -30 0 -16 5 -30 10
-30 6 0 10 7 10 15 0 8 7 15 15 15 8 0 15 -5 15 -11 0 -29 30 17 35 54 6 38 9
42 36 43 21 1 29 -3 29 -16 0 -12 8 -18 28 -18 41 0 45 8 17 33 -14 13 -25 34
-25 46 0 22 0 22 14 3 12 -15 19 -17 32 -8 28 17 28 32 -1 27 -15 -3 -25 -1
-25 6 0 8 -5 9 -19 1 -27 -14 -31 -13 -31 10 0 25 25 36 45 20 13 -11 15 -8
16 16 1 21 3 24 6 9 3 -11 9 -24 14 -30 12 -13 12 21 -1 45 -7 13 -7 21 0 25
6 4 10 3 9 -2 -3 -11 23 -63 31 -63 4 0 13 7 20 15 9 11 17 12 31 4 23 -12 25
-35 2 -47 -10 -6 -14 -16 -10 -26 4 -10 3 -15 -3 -11 -6 3 -10 11 -10 16 0 6
-7 17 -15 25 -13 14 -15 11 -15 -20 0 -33 7 -41 32 -37 4 0 10 -9 12 -22 12
-56 15 -59 14 -22 0 60 1 67 11 60 5 -3 13 0 17 6 4 8 3 9 -4 5 -15 -9 -15 -6
3 36 l14 35 -43 31 c-34 24 -46 28 -56 19 -10 -9 -14 -9 -17 1 -3 6 -13 12
-24 12 -10 0 -26 12 -36 26 -9 14 -27 30 -41 35 -22 8 -23 13 -17 52 4 23 11
44 16 45 5 2 9 10 9 18 0 8 5 14 10 14 13 0 13 -2 -4 -36 -11 -19 -12 -33 -5
-46 13 -24 22 -23 14 1 -8 27 27 61 63 61 15 0 38 7 51 16 23 16 23 16 16 -7
-7 -22 -6 -23 9 -10 15 13 19 13 27 0 5 -8 9 -17 9 -21 0 -4 11 -3 24 3 30 14
39 45 20 67 -7 9 -19 25 -26 34 -12 17 -14 16 -25 -7 -10 -23 -9 -25 13 -25
28 0 29 -7 7 -35 -13 -17 -15 -17 -9 -2 3 10 2 16 -3 13 -17 -11 -50 30 -45
55 5 21 4 22 -6 7 -13 -22 -34 -24 -26 -3 4 12 -6 15 -59 15 -61 0 -65 -1 -65
-23 0 -22 -16 -47 -31 -47 -9 0 1 41 14 58 7 9 3 12 -17 12 -25 0 -27 -2 -21
-37 5 -28 4 -34 -4 -23 -6 8 -11 22 -11 31 0 9 -7 20 -16 23 -23 9 -31 7 -15
-3 9 -6 11 -16 7 -27 -7 -17 -9 -16 -24 9 -19 32 -43 37 -35 7 3 -11 0 -20 -6
-20 -6 0 -11 -6 -11 -14 0 -9 -7 -12 -20 -9 -14 4 -20 0 -20 -11 0 -9 -4 -16
-10 -16 -5 0 -10 5 -10 10 0 6 -6 10 -14 10 -7 0 -19 7 -26 15 -10 12 -10 15
4 15 9 0 16 8 16 20 0 13 -7 20 -20 20 -11 0 -20 -4 -20 -9 0 -17 -34 -22 -46
-7 -19 26 -32 18 -45 -25 -9 -29 -9 -43 -2 -47 15 -9 -37 -118 -71 -149 -28
-26 -27 -43 3 -43 29 0 46 -26 34 -52 -10 -22 -10 -22 -24 7 -13 27 -53 50
-47 26 2 -5 -4 -16 -13 -23 -40 -32 -29 -88 17 -88 3 0 -2 -10 -10 -22 -20
-28 -20 -38 0 -38 8 0 12 -4 9 -10 -3 -5 -16 -10 -29 -10 -12 0 -37 -15 -55
-34 -18 -19 -42 -36 -52 -39 -22 -6 -26 8 -4 17 8 3 15 18 16 33 l1 28 7 -25
7 -25 8 23 c5 15 13 21 22 18 11 -4 13 1 8 22 -4 15 -11 36 -17 47 -5 11 -6
17 -2 12 8 -7 44 57 44 78 1 17 -77 76 -84 65 -4 -7 -11 -7 -18 -2 -7 5 -24
12 -38 16 -15 3 -29 15 -32 26 -3 11 -16 24 -30 29 -31 12 -38 23 -27 41 7 12
12 12 22 2 18 -18 30 -15 23 7 -9 28 27 61 67 61 17 0 40 7 50 17 24 22 23 6
-3 -37 l-21 -34 22 -18 c28 -23 35 -23 37 0 1 9 5 28 9 42 7 24 7 25 -11 6
-22 -21 -35 -5 -15 19 13 16 40 9 40 -10 0 -8 9 -10 25 -7 18 3 25 0 25 -11 0
-8 6 -18 13 -20 8 -4 3 -14 -17 -32 -22 -20 -31 -23 -42 -14 -12 10 -13 9 -8
-5 3 -9 10 -16 15 -16 5 0 9 -8 8 -17 0 -11 -3 -13 -6 -5 -6 14 -33 16 -33 2
0 -17 59 -77 60 -60 1 22 56 100 65 92 5 -4 5 1 2 11 -4 10 -7 29 -7 42 0 15
-6 22 -16 21 -9 0 -21 7 -28 17 -9 15 -7 21 13 36 24 18 24 20 8 45 -13 20
-26 26 -52 26 -24 0 -35 -5 -35 -15 0 -8 -5 -15 -11 -15 -5 0 -8 -4 -5 -9 3
-5 15 -7 26 -4 21 6 29 -20 10 -32 -5 -3 -10 -2 -10 2 0 5 -10 13 -22 18 -17
7 -22 17 -20 35 4 22 2 23 -14 10 -13 -12 -18 -12 -21 -2 -3 8 -31 12 -93 12
-61 0 -90 -4 -93 -12 -4 -10 -6 -10 -6 0 -1 6 -10 12 -20 12 -15 0 -18 -5 -14
-22 l5 -23 -20 23 c-11 12 -28 22 -39 21 -10 0 -13 -3 -7 -5 20 -8 -8 -55 -28
-48 -10 3 -21 -3 -27 -13 -6 -10 -11 -12 -11 -5 0 6 -9 12 -20 12 -11 0 -20 5
-20 10 0 6 5 10 10 10 6 0 10 9 10 20 0 22 -28 27 -60 10 -13 -7 -21 -7 -25 0
-11 18 -56 11 -77 -12 l-20 -23 5 23 c5 21 2 22 -57 22 -36 0 -68 -5 -75 -12
-10 -10 -15 -10 -18 -2 -3 8 -62 12 -193 13 -177 2 -188 1 -184 -16 6 -23 -33
-50 -49 -34 -8 8 -8 11 1 11 7 0 12 9 12 20 0 19 -8 20 -375 20 -368 0 -375
-1 -375 -20z m990 3 c0 -5 -5 -15 -10 -23 -8 -12 -10 -11 -10 8 0 12 5 22 10
22 6 0 10 -3 10 -7z m93 1 c8 -8 -3 -34 -14 -34 -5 0 -9 9 -9 20 0 19 11 26
23 14z m652 -4 c7 -11 -12 -40 -25 -40 -5 0 -7 8 -5 18 2 9 4 20 4 25 1 11 19
9 26 -3z m113 -17 c3 -19 -1 -23 -22 -23 -14 0 -30 8 -35 19 -13 23 -4 33 29
29 17 -2 26 -10 28 -25z m740 15 c23 -23 14 -48 -18 -48 -35 0 -62 36 -39 51
20 12 43 11 57 -3z m-1243 -96 c-10 -56 -17 -29 -9 35 6 42 9 50 12 29 2 -16
1 -45 -3 -64z m805 71 c0 -3 -7 -3 -15 1 -8 3 -15 0 -15 -6 0 -6 -3 -9 -6 -5
-11 10 6 26 21 20 8 -3 15 -7 15 -10z m40 2 c0 -8 -7 -15 -15 -15 -13 0 -14 3
-3 15 16 18 18 18 18 0z m-555 -19 c0 0 5 -11 12 -22 13 -23 8 -34 -14 -34 -8
0 -13 7 -11 18 2 9 -6 25 -17 35 -20 18 -20 18 5 11 14 -3 25 -7 25 -8z m-357
-34 c3 -25 2 -26 -14 -10 -10 10 -14 23 -10 34 8 22 19 11 24 -24z m1116 13
c8 -30 1 -45 -20 -45 -8 0 -14 9 -14 21 0 12 -8 28 -17 35 -16 12 -15 13 13
14 26 0 33 -5 38 -25z m-1861 -4 c3 -14 1 -18 -9 -14 -15 6 -18 16 -7 26 9 10
10 9 16 -12z m915 -6 c-8 -8 -48 8 -42 16 3 5 14 4 25 -2 12 -6 19 -12 17 -14z
m738 11 c17 -13 18 -15 2 -21 -9 -4 -22 -4 -28 0 -6 4 -20 -3 -31 -16 -10 -12
-19 -17 -19 -12 0 6 7 16 15 23 9 7 14 19 11 27 -7 18 25 17 50 -1z m-1074
-37 c-18 -17 -29 -35 -26 -41 4 -7 9 -7 13 1 9 13 81 -21 107 -51 19 -21 19
-21 -3 -7 -12 7 -25 10 -28 7 -10 -9 22 -65 47 -82 l22 -16 -21 0 c-12 0 -35
12 -52 26 -19 15 -48 28 -73 31 -49 5 -61 11 -52 24 3 5 -5 18 -18 29 l-23 19
24 17 c21 15 22 18 8 23 -27 10 -4 31 49 44 27 7 51 12 54 10 2 -2 -10 -18
-28 -34z m464 13 c-22 -5 -30 3 -21 18 5 8 11 7 22 -2 15 -12 14 -13 -1 -16z
m119 -8 l-15 -29 0 27 c0 14 6 28 13 31 18 7 19 3 2 -29z m75 32 c0 -3 -4 -8
-10 -11 -5 -3 -10 -1 -10 4 0 6 5 11 10 11 6 0 10 -2 10 -4z m-590 -10 c0 -3
-4 -8 -10 -11 -5 -3 -10 -1 -10 4 0 6 5 11 10 11 6 0 10 -2 10 -4z m1148 -13
c2 -8 -5 -13 -17 -13 -12 0 -21 6 -21 16 0 18 31 15 38 -3z m121 5 c0 -7 -4
-22 -9 -33 -7 -18 -8 -19 -15 -2 -4 9 -5 24 -1 32 7 18 26 20 25 3z m-2113
-70 c-3 -13 2 -18 15 -18 10 0 19 5 19 12 0 6 9 1 20 -12 11 -13 20 -30 20
-38 0 -9 3 -13 6 -9 4 3 1 21 -5 39 -9 28 -9 30 3 16 7 -10 15 -16 18 -13 2 3
2 -9 0 -26 -4 -25 2 -36 29 -60 28 -24 29 -28 9 -18 -14 7 -27 15 -30 18 -13
17 -62 41 -71 35 -6 -3 -20 -3 -33 0 -20 5 -23 11 -22 61 1 40 -2 54 -11 50
-20 -7 -15 13 5 24 14 8 18 5 25 -17 4 -15 5 -35 3 -44z m971 40 c-3 -7 -5 -2
-5 12 0 14 2 19 5 13 2 -7 2 -19 0 -25z m-62 1 c4 -13 1 -27 -10 -39 -16 -17
-19 -18 -41 -4 -26 18 -23 37 9 52 31 15 35 14 42 -9z m495 11 c0 -5 -2 -10
-4 -10 -3 0 -8 5 -11 10 -3 6 -1 10 4 10 6 0 11 -4 11 -10z m-1285 -19 c3 -5
1 -12 -5 -16 -5 -3 -10 1 -10 9 0 18 6 21 15 7z m1040 -17 c11 -8 16 -14 11
-14 -5 0 -4 -6 3 -13 6 -7 9 -28 8 -45 -2 -35 -25 -43 -47 -17 -7 8 -20 15
-30 15 -13 0 -16 6 -12 25 2 14 0 25 -6 25 -5 0 -9 10 -8 23 1 19 5 22 31 19
16 -3 39 -11 50 -18z m93 -10 c-25 -25 -42 -14 -22 14 12 17 19 21 27 13 8 -8
7 -16 -5 -27z m742 -9 c-7 -8 -19 -15 -26 -15 -17 0 -8 30 15 48 13 11 17 10
19 -3 2 -9 -2 -22 -8 -30z m-1598 -12 c-2 -18 -8 -33 -13 -33 -5 0 -12 -1 -16
-2 -9 -4 -24 53 -17 63 3 5 15 8 27 7 19 -2 22 -7 19 -35z m268 15 c0 -16 -3
-19 -11 -11 -6 6 -8 16 -5 22 11 17 16 13 16 -11z m700 -19 c0 -21 -1 -22 -24
-13 -19 7 -21 30 -3 37 18 6 27 -2 27 -24z m-810 7 c0 -8 -4 -18 -10 -21 -5
-3 -10 3 -10 14 0 12 5 21 10 21 6 0 10 -6 10 -14z m60 4 c0 -5 -7 -10 -15
-10 -8 0 -15 5 -15 10 0 6 7 10 15 10 8 0 15 -4 15 -10z m687 -19 c0 -20 -4
-28 -14 -24 -7 3 -13 16 -13 29 0 13 6 24 13 24 8 0 14 -12 14 -29z m743 -1
c0 -31 -16 -41 -26 -15 -8 19 2 45 16 45 5 0 10 -13 10 -30z m62 5 c6 -28 0
-31 -27 -12 -10 8 -15 19 -11 25 12 20 33 13 38 -13z m-1076 -20 c-7 -18 -26
-20 -26 -2 0 18 24 41 28 27 2 -6 1 -17 -2 -25z m752 8 c-4 -32 -38 -46 -38
-16 0 20 18 43 33 43 4 0 7 -12 5 -27z m-1357 -6 c-10 -9 -11 -8 -5 6 3 10 9
15 12 12 3 -3 0 -11 -7 -18z m-11 -32 c0 -8 -2 -15 -4 -15 -2 0 -6 7 -10 15
-3 8 -1 15 4 15 6 0 10 -7 10 -15z m824 -10 c-14 -22 -44 -35 -44 -19 0 18 24
44 41 44 18 0 19 -1 3 -25z m121 15 c3 -5 0 -10 -8 -10 -8 0 -17 -7 -21 -15
-7 -18 -26 -20 -26 -2 0 28 42 49 55 27z m-765 -9 c0 -12 -20 -25 -27 -18 -7
7 6 27 18 27 5 0 9 -4 9 -9z m1140 -12 c-43 -12 -54 -11 -41 5 7 8 22 11 39 8
l27 -6 -25 -7z m-480 -14 c-7 -9 -15 -13 -18 -10 -3 2 1 11 8 20 7 9 15 13 18
10 3 -2 -1 -11 -8 -20z m914 15 c14 -5 26 -16 26 -25 0 -20 -10 -19 -26 2 -18
25 -30 8 -16 -22 10 -22 9 -25 -8 -25 -27 0 -40 28 -27 57 12 26 15 27 51 13z
m-1085 -12 c18 -11 18 -48 1 -48 -5 0 -16 -7 -24 -16 -10 -10 -16 -11 -16 -4
0 7 -6 10 -14 7 -19 -8 -15 51 4 63 20 13 27 12 49 -2z m356 2 c3 -6 -1 -7 -9
-4 -18 7 -21 14 -7 14 6 0 13 -4 16 -10z m388 -2 c20 -10 25 -18 20 -33 -7
-23 -29 -47 -40 -43 -4 2 -14 -9 -21 -24 -8 -17 -21 -28 -33 -28 -25 0 -24 8
3 31 11 11 17 19 11 19 -8 0 -11 48 -4 83 2 11 34 8 64 -5z m-1163 -40 c0 -12
-7 -10 -24 8 -9 8 -13 20 -10 26 7 11 34 -17 34 -34z m739 20 c10 -28 5 -39
-14 -32 -16 7 -27 32 -19 45 9 16 24 10 33 -13z m-423 -34 c-6 -16 -8 -16 -16
-4 -6 8 -10 24 -10 35 0 18 1 18 16 3 10 -10 14 -23 10 -34z m164 17 c0 -22
-15 -35 -30 -26 -7 4 -7 13 0 26 14 25 30 25 30 0z m112 -30 c-14 -20 -18 -22
-20 -9 -5 26 18 64 28 48 5 -8 1 -24 -8 -39z m630 19 c-4 -30 -32 -43 -32 -16
0 24 12 46 24 46 8 0 11 -11 8 -30z m-2043 6 c15 -18 27 -86 15 -86 -24 1 -38
22 -39 59 -1 43 5 50 24 27z m759 -22 l37 -36 -24 -19 c-39 -32 -56 -21 -59
39 -2 28 0 52 3 52 3 0 23 -16 43 -36z m579 -4 c-19 -35 -20 -42 -7 -51 13 -9
12 -10 -2 -5 -27 8 -24 -69 3 -114 28 -46 56 -73 64 -60 3 6 1 10 -5 10 -14 0
-33 52 -22 59 5 3 12 18 16 34 7 31 14 33 42 13 15 -12 17 -18 8 -33 -7 -10
-19 -17 -27 -17 -9 1 -14 -4 -12 -10 14 -42 12 -73 -7 -85 -14 -8 -18 -9 -13
-1 4 6 -3 22 -16 36 -26 28 -50 33 -25 5 9 -10 14 -25 10 -35 -8 -20 -43 -21
-50 -1 -4 8 -12 15 -20 15 -17 0 -17 5 -4 31 6 10 20 19 31 19 16 0 19 4 14
18 -23 58 -17 126 15 180 28 45 33 40 7 -8z m168 4 c40 -40 40 -52 3 -73 -42
-24 -58 -9 -58 54 0 30 4 55 10 55 5 0 25 -16 45 -36z m161 -1 c16 -37 12
-116 -6 -138 -4 -5 -10 -21 -12 -35 l-5 -25 -10 25 c-6 14 -7 29 -2 34 4 5 -3
17 -17 28 -15 13 -24 29 -23 46 1 17 3 21 6 10 6 -23 49 -24 57 -2 11 28 6 38
-8 18 -11 -15 -17 -16 -27 -7 -17 17 -4 44 17 36 14 -5 16 -2 12 20 -7 38 0
34 18 -10z m579 3 c41 -39 44 -58 10 -80 -31 -20 -51 -20 -59 0 -10 26 -7 114
4 114 6 0 27 -15 45 -34z m-1584 -3 c-8 -15 -10 -15 -11 -2 0 17 10 32 18 25
2 -3 -1 -13 -7 -23z m-401 0 c0 -3 -7 -3 -15 1 -9 3 -15 0 -15 -9 0 -8 -4 -15
-10 -15 -13 0 -13 13 1 27 11 11 39 7 39 -4z m726 9 c15 -9 3 -37 -16 -37 -21
0 -31 17 -18 32 12 15 18 16 34 5z m394 4 c0 -3 -4 -8 -10 -11 -5 -3 -10 -1
-10 4 0 6 5 11 10 11 6 0 10 -2 10 -4z m357 -12 c3 -8 0 -26 -7 -39 l-13 -24
-19 21 c-21 24 -23 44 -5 51 23 10 38 7 44 -9z m-807 -50 c0 -63 -44 -83 -71
-32 -11 20 -10 21 3 10 32 -26 66 13 53 61 -5 17 -4 19 4 7 6 -8 11 -29 11
-46z m670 31 c0 -7 -9 -15 -20 -18 -14 -4 -20 0 -20 12 0 10 3 20 6 24 9 9 34
-4 34 -18z m-756 6 c3 -5 -1 -11 -9 -15 -9 -3 -15 0 -15 9 0 16 16 20 24 6z
m254 -8 c2 -8 -6 -13 -22 -13 -17 0 -26 5 -26 16 0 19 41 16 48 -3z m747 7
c10 -17 -14 -38 -35 -33 -20 5 -26 23 -13 36 10 11 41 8 48 -3z m-945 -10 c0
-5 -7 -10 -15 -10 -8 0 -15 5 -15 10 0 6 7 10 15 10 8 0 15 -4 15 -10z m287
-15 c-4 -8 -14 -15 -23 -15 -16 0 -16 2 1 20 20 22 31 20 22 -5z m231 -36
c-18 -12 -22 14 -6 43 l13 23 3 -29 c2 -16 -2 -32 -10 -37z m-968 47 c0 -3 -4
-8 -10 -11 -5 -3 -10 -1 -10 4 0 6 5 11 10 11 6 0 10 -2 10 -4z m42 -18 c-7
-7 -12 -8 -12 -2 0 14 12 26 19 19 2 -3 -1 -11 -7 -17z m198 8 c0 -17 -14 -29
-23 -20 -8 8 3 34 14 34 5 0 9 -6 9 -14z m560 -5 c-12 -23 -29 -35 -36 -28
-10 9 16 47 32 47 11 0 12 -4 4 -19z m750 -1 c0 -18 -26 -40 -49 -40 -5 0 -3
14 5 30 17 34 44 40 44 10z m-712 -36 c-1 -9 -8 -19 -14 -21 -11 -4 -16 22 -8
46 7 21 27 -2 22 -25z m-745 -7 c-3 -5 -9 -3 -14 4 -4 7 -5 17 -2 22 3 5 9 3
14 -4 4 -7 5 -17 2 -22z m1547 23 c0 -5 -4 -10 -10 -10 -5 0 -10 5 -10 10 0 6
5 10 10 10 6 0 10 -4 10 -10z m-1040 -9 c0 -10 -30 -24 -37 -17 -3 3 -2 9 2
15 8 13 35 15 35 2z m-425 -30 c-3 -6 -11 -11 -17 -11 -6 0 -6 6 2 15 14 17
26 13 15 -4z m355 -10 c0 -16 -28 -20 -34 -5 -11 28 -7 35 14 24 11 -6 20 -15
20 -19z m400 20 c0 -14 -24 -31 -43 -31 -16 0 -17 3 -8 14 9 11 9 15 -1 18 -7
3 2 5 20 6 17 0 32 -3 32 -7z m334 -7 c19 -18 20 -30 6 -39 -15 -9 -40 14 -40
36 0 23 13 24 34 3z m216 6 c0 -5 -4 -10 -10 -10 -5 0 -10 5 -10 10 0 6 5 10
10 10 6 0 10 -4 10 -10z m-1827 -52 c19 3 23 -13 7 -23 -6 -4 -8 -11 -5 -16
12 -18 -7 -9 -26 14 -16 18 -20 20 -28 7 -6 -8 -13 -12 -16 -8 -10 10 5 49 16
43 5 -4 12 2 16 12 6 16 8 15 13 -7 4 -16 12 -24 23 -22z m377 32 c0 -5 -8
-10 -17 -10 -15 0 -16 2 -3 10 19 12 20 12 20 0z m758 -30 c16 -53 16 -55 -13
-117 -17 -36 -32 -53 -44 -53 -10 0 -26 -11 -35 -25 -9 -14 -23 -25 -31 -25
-13 0 -13 3 1 25 15 23 15 25 0 25 -12 0 -11 7 9 36 14 20 25 45 25 55 0 9 11
31 24 47 17 19 23 36 19 50 -4 17 -1 22 13 22 13 0 23 -12 32 -40z m343 0 c14
0 19 -7 19 -25 0 -14 6 -25 13 -25 8 0 13 -10 12 -22 -1 -18 -9 -24 -35 -26
-26 -3 -38 3 -62 28 -24 27 -28 37 -22 66 5 28 10 33 25 29 12 -4 20 -1 20 7
1 7 4 3 6 -9 3 -15 12 -23 24 -23z m279 29 c0 -6 6 -9 14 -6 11 4 12 -2 4 -34
-12 -44 -28 -43 -28 2 0 16 -4 29 -10 29 -5 0 -10 5 -10 10 0 6 7 10 15 10 8
0 15 -5 15 -11z m-1184 -12 c13 17 13 17 14 -3 0 -12 -6 -24 -14 -27 -19 -7
-40 18 -30 35 7 10 9 8 12 -5 4 -18 4 -18 18 0z m118 2 c10 15 27 14 24 -1 -2
-7 6 -14 18 -16 16 -2 20 -8 16 -28 -2 -13 0 -24 6 -24 5 0 12 -8 15 -19 3
-14 -2 -18 -26 -19 -44 -1 -90 50 -81 91 4 19 9 25 14 17 5 -9 9 -9 14 -1z
m257 -6 c12 -15 12 -16 -4 -10 -10 4 -23 7 -28 7 -6 0 -7 5 -4 10 9 15 21 12
36 -7z m-670 -20 c-8 -15 -10 -15 -11 -2 0 17 10 32 18 25 2 -3 -1 -13 -7 -23z
m749 2 c0 -14 -4 -25 -10 -25 -5 0 -10 11 -10 25 0 14 5 25 10 25 6 0 10 -11
10 -25z m-631 -68 c-5 -20 -14 -39 -20 -43 -6 -3 -14 -17 -19 -30 -6 -15 -15
-22 -24 -18 -10 4 -20 -3 -27 -19 -6 -14 -20 -27 -30 -30 -17 -5 -17 -3 -2 20
13 19 14 27 4 32 -9 6 -9 11 2 20 8 6 20 32 27 57 8 29 24 53 44 69 l31 24 12
-23 c9 -17 9 -33 2 -59z m1173 51 c-7 -7 -12 -8 -12 -2 0 14 12 26 19 19 2 -3
-1 -11 -7 -17z m-775 -10 c-3 -8 -6 -5 -6 6 -1 11 2 17 5 13 3 -3 4 -12 1 -19z
m-244 -24 c-7 -19 -23 -7 -23 18 0 17 3 18 14 8 8 -6 12 -18 9 -26z m-743 5
c0 -6 -4 -7 -10 -4 -5 3 -10 11 -10 16 0 6 5 7 10 4 6 -3 10 -11 10 -16z m451
-1 c24 -30 24 -40 -5 -66 -28 -23 -40 -16 -57 35 l-9 28 4 -27 c3 -27 -18 -57
-31 -44 -3 3 -6 20 -6 37 0 31 18 52 39 45 6 -2 17 0 25 5 19 12 18 12 40 -13z
m740 0 c26 -29 24 -54 -5 -73 -18 -12 -30 -14 -43 -7 -26 14 -53 -2 -46 -28 7
-25 -13 -26 -39 -3 -24 21 -23 36 1 23 24 -13 34 0 25 34 -9 36 11 64 49 69
17 2 34 5 36 5 2 1 12 -8 22 -20z m-1034 -10 c-3 -8 -6 -5 -6 6 -1 11 2 17 5
13 3 -3 4 -12 1 -19z m520 -14 c7 -15 10 -31 7 -35 -8 -14 -34 -10 -40 6 -4 8
-13 15 -20 15 -12 0 -12 4 -4 20 15 28 43 25 57 -6z m873 11 c0 -8 -4 -15 -10
-15 -5 0 -10 7 -10 15 0 8 5 15 10 15 6 0 10 -7 10 -15z m583 -11 c9 -3 13
-13 10 -25 -4 -13 -11 -18 -20 -15 -8 3 -17 6 -19 6 -2 0 -4 9 -4 20 0 21 8
24 33 14z m-1853 -39 c0 -8 -7 -15 -15 -15 -16 0 -20 12 -8 23 11 12 23 8 23
-8z m510 5 c0 -5 -4 -10 -10 -10 -5 0 -10 5 -10 10 0 6 5 10 10 10 6 0 10 -4
10 -10z m104 -9 c10 -11 15 -25 11 -30 -11 -19 -23 -12 -34 19 -11 34 -2 39
23 11z m124 -4 c2 -10 -3 -17 -12 -17 -18 0 -29 16 -21 31 9 14 29 6 33 -14z
m521 9 c11 -14 6 -15 -27 -7 -4 1 8 21 12 21 2 0 9 -6 15 -14z m-1379 -6 c12
-7 12 -12 2 -22 -10 -10 -15 -10 -22 2 -19 29 -9 39 20 20z m1230 -34 c0 -21
-17 -39 -24 -27 -8 13 -80 -38 -95 -68 -16 -29 -25 -95 -12 -87 23 15 -41
-110 -75 -144 -39 -41 -42 -50 -15 -43 26 7 61 -14 61 -37 0 -32 -18 -32 -35
0 -18 35 -35 39 -42 10 -3 -11 -12 -20 -19 -20 -8 0 -14 -6 -14 -12 0 -7 -3
-23 -6 -35 -5 -18 -1 -25 17 -32 16 -6 29 -5 39 2 8 6 4 -1 -9 -16 -18 -20
-27 -24 -33 -15 -9 15 -10 6 -2 -16 3 -9 12 -16 20 -16 8 0 14 -4 14 -10 0 -5
-13 -10 -30 -10 -16 0 -33 -1 -37 -2 -11 -4 -20 56 -12 78 4 11 8 13 8 5 2
-30 13 0 17 42 3 39 0 46 -28 67 -17 13 -45 25 -62 27 -51 6 -67 14 -76 39 -5
13 -21 29 -35 34 -14 5 -25 16 -25 24 0 19 17 30 25 16 9 -15 28 -12 22 4 -9
23 22 56 51 56 15 0 39 6 53 14 24 12 26 12 22 -5 -3 -10 -11 -24 -19 -30 -19
-15 -18 -29 4 -45 19 -15 43 -18 41 -6 -4 26 5 41 31 52 17 7 32 11 33 9 26
-46 26 -46 2 -69 -13 -12 -29 -19 -35 -15 -9 6 -9 2 -1 -13 15 -29 14 -31 -11
-24 l-22 5 20 -33 c19 -33 44 -51 44 -31 0 6 14 32 30 58 21 33 30 59 29 87 0
28 -3 35 -8 23 -6 -17 -8 -17 -25 2 -20 22 -15 51 9 51 20 0 19 8 -5 50 l-21
35 26 -28 c14 -15 25 -35 25 -43 0 -8 5 -12 11 -9 6 4 8 13 5 21 -6 16 13 64
26 64 4 0 8 -10 8 -22 0 -19 5 -15 28 20 15 23 37 45 50 48 20 6 22 11 17 36
l-7 30 26 -17 c14 -10 26 -22 26 -29z m258 12 c5 -39 -20 -36 -35 3 -11 28
-10 30 10 27 16 -2 23 -11 25 -30z m-1001 -12 c-6 -19 -29 -12 -38 11 -7 21
-6 21 17 11 13 -6 23 -16 21 -22z m1069 -18 c-2 -10 0 -18 5 -18 5 0 9 -12 8
-27 0 -28 -1 -28 -11 -5 -13 25 -36 29 -44 7 -4 -8 -12 -15 -20 -15 -8 0 -14
-9 -14 -21 0 -11 5 -17 10 -14 6 3 10 -4 9 -17 0 -13 -3 -17 -6 -10 -3 8 -11
5 -24 -10 l-18 -23 -1 31 c0 16 5 35 12 42 14 14 -2 51 -42 96 l-25 29 28 -18
c15 -9 27 -21 27 -26 0 -5 9 -18 21 -30 l20 -20 25 36 c26 38 31 61 12 49 -7
-5 -8 -3 -3 6 11 18 38 -18 31 -42z m-1494 10 c-8 -8 -9 -4 -5 13 4 13 8 18
11 10 2 -7 -1 -18 -6 -23z m134 -5 c-8 -8 -44 7 -49 21 -4 11 1 11 24 -1 17
-8 28 -17 25 -20z m614 17 c0 -10 -9 -24 -20 -30 -19 -10 -19 -10 -2 20 20 35
22 36 22 10z m-905 -10 c-3 -5 -11 -10 -16 -10 -6 0 -7 5 -4 10 3 6 11 10 16
10 6 0 7 -4 4 -10z m737 -5 c0 -5 -5 -11 -11 -13 -6 -2 -11 4 -11 13 0 9 5 15
11 13 6 -2 11 -8 11 -13z m651 -38 c-6 -10 -46 2 -55 17 -4 5 -2 16 3 22 7 9
16 6 34 -9 13 -12 21 -25 18 -30z m95 36 c-5 -25 -28 -28 -28 -4 0 12 6 21 16
21 9 0 14 -7 12 -17z m-378 -11 c0 -10 -13 -28 -30 -40 -25 -19 -29 -20 -23
-5 5 15 42 60 51 62 1 1 2 -7 2 -17z m-1210 -2 c12 -8 11 -10 -7 -10 -13 0
-23 5 -23 10 0 13 11 13 30 0z m150 6 c0 -3 -4 -8 -10 -11 -5 -3 -10 -1 -10 4
0 6 5 11 10 11 6 0 10 -2 10 -4z m300 -26 c-14 -10 -27 -16 -30 -14 -2 3 6 14
20 24 14 10 27 16 30 14 2 -3 -6 -14 -20 -24z m291 14 c11 -14 10 -15 -11 -12
-13 1 -25 9 -28 16 -5 17 23 15 39 -4z m139 1 c0 -8 -4 -15 -10 -15 -5 0 -10
7 -10 15 0 8 5 15 10 15 6 0 10 -7 10 -15z m753 8 c8 -7 -11 -33 -24 -33 -5 0
-9 9 -9 20 0 19 20 27 33 13z m-705 -38 c-3 -3 -9 2 -12 12 -6 14 -5 15 5 6 7
-7 10 -15 7 -18z m97 16 c3 -5 1 -12 -5 -16 -5 -3 -10 1 -10 9 0 18 6 21 15 7z
m63 -23 c2 -13 -3 -30 -11 -36 -12 -10 -14 -5 -13 28 1 43 19 49 24 8z m32 7
c-10 -12 -10 -15 4 -15 13 0 14 -5 6 -26 -14 -35 -13 -36 10 -29 21 7 24 -2
14 -29 -5 -13 -11 -11 -34 12 -21 21 -25 31 -18 45 5 9 6 22 3 27 -8 12 2 30
17 30 7 0 6 -6 -2 -15z m-774 -32 c-11 -11 -19 6 -11 24 8 17 8 17 12 0 3 -10
2 -21 -1 -24z m403 7 c5 0 11 8 14 18 3 13 7 10 16 -13 8 -20 9 -31 2 -33 -6
-2 -11 -13 -11 -25 0 -16 -3 -18 -12 -9 -17 17 -28 15 -28 -4 0 -11 -6 -14
-22 -9 -31 10 -47 26 -30 32 6 3 12 21 12 40 0 35 0 35 25 19 13 -9 29 -16 34
-16z m723 14 c16 -16 18 -16 24 0 9 22 24 20 24 -3 0 -11 4 -22 9 -26 6 -3 3
-18 -7 -35 -11 -19 -19 -25 -25 -17 -5 9 -11 7 -21 -6 -11 -14 -19 -16 -40 -7
-25 9 -37 40 -16 40 6 0 10 16 10 35 0 38 13 44 42 19z m-918 -29 c5 -21 4
-26 -3 -15 -8 12 -11 12 -17 -4 -5 -13 -9 -14 -15 -5 -4 7 0 23 8 36 18 27 18
27 27 -12z m96 20 c0 -7 -8 -16 -17 -19 -18 -7 -38 7 -30 21 9 14 47 13 47 -2z
m190 -34 c0 -11 -3 -11 -15 -1 -8 7 -15 22 -15 33 0 20 0 20 15 1 8 -10 15
-25 15 -33z m550 30 c0 -22 -29 -36 -43 -22 -15 15 0 41 23 41 13 0 20 -7 20
-19z m203 1 c5 16 57 22 57 8 0 -6 -6 -10 -13 -10 -9 0 -11 -13 -9 -42 5 -49
-14 -43 -21 7 -4 28 -5 29 -12 8 -4 -13 -10 -23 -13 -23 -10 0 -31 36 -32 54
0 18 1 18 19 2 14 -13 20 -14 24 -4z m-1502 -9 c13 -16 12 -17 -3 -4 -10 7
-18 15 -18 17 0 8 8 3 21 -13z m299 3 c0 -15 -18 -31 -26 -23 -7 7 7 37 17 37
5 0 9 -6 9 -14z m-190 -20 c0 -7 -7 -19 -15 -26 -12 -10 -15 -9 -15 7 0 11 3
23 7 26 11 12 23 8 23 -7z m94 8 c9 -3 16 -12 16 -20 0 -18 -46 -18 -53 0 -9
23 7 32 37 20z m646 -3 c0 -17 -12 -41 -21 -41 -10 0 -12 33 -2 43 9 10 23 9
23 -2z m108 -18 c3 -19 -1 -23 -22 -23 -28 0 -41 14 -32 36 9 24 50 13 54 -13z
m347 -12 c-3 -6 -11 -11 -17 -11 -6 0 -6 6 2 15 14 17 26 13 15 -4z m-980 -1
c-3 -5 -14 -10 -23 -10 -15 0 -15 2 -2 10 20 13 33 13 25 0z m940 0 c3 -6 -1
-7 -9 -4 -18 7 -21 14 -7 14 6 0 13 -4 16 -10z m-510 -20 c-3 -5 -12 -10 -20
-10 -8 0 -17 5 -20 10 -4 6 5 10 20 10 15 0 24 -4 20 -10z m749 -14 c3 -13 8
-31 12 -39 4 -11 -1 -13 -20 -10 -15 3 -26 12 -26 21 0 8 -7 24 -17 34 -15 17
-15 18 14 18 24 0 32 -5 37 -24z m-1110 -12 c4 -15 5 -28 3 -30 -8 -8 -39 35
-32 45 11 18 23 12 29 -15z m172 5 c3 -5 -6 -9 -20 -9 -24 0 -41 12 -30 23 7
7 43 -3 50 -14z m728 10 c14 -7 23 -16 20 -20 -8 -14 -50 -10 -63 5 -11 14
-11 15 16 25 1 1 13 -4 27 -10z m-1344 -9 c0 -5 -5 -10 -11 -10 -5 0 -7 5 -4
10 3 6 8 10 11 10 2 0 4 -4 4 -10z m310 0 c0 -5 -10 -18 -22 -30 l-22 -20 24
-18 c14 -9 38 -24 54 -32 36 -18 47 -41 17 -33 -32 8 -26 -14 14 -54 19 -19
35 -37 35 -40 0 -11 -56 10 -76 28 -12 11 -36 22 -54 24 -51 7 -65 13 -75 37
-6 13 -20 27 -32 33 -23 10 -32 45 -13 45 6 0 10 -4 10 -10 0 -5 7 -10 15 -10
11 0 14 7 9 24 -7 28 0 33 64 51 26 7 48 13 50 14 1 0 2 -3 2 -9z m200 -17 c0
-16 -4 -34 -8 -40 -5 -7 -8 4 -7 27 0 22 3 40 8 40 4 0 7 -12 7 -27z m420 17
c0 -5 -4 -10 -10 -10 -5 0 -10 5 -10 10 0 6 5 10 10 10 6 0 10 -4 10 -10z
m-850 -10 c0 -5 -7 -10 -15 -10 -8 0 -15 5 -15 10 0 6 7 10 15 10 8 0 15 -4
15 -10z m246 -18 c-18 -16 -18 -16 -6 6 6 13 14 21 18 18 3 -4 -2 -14 -12 -24z
m419 17 c4 -6 5 -12 2 -15 -7 -7 -37 7 -37 17 0 13 27 11 35 -2z m68 -4 c1 -5
-6 -11 -15 -13 -11 -2 -18 3 -18 13 0 17 30 18 33 0z m57 8 c0 -5 -7 -17 -15
-27 -14 -19 -15 -19 -15 7 0 17 5 27 15 27 8 0 15 -3 15 -7z m224 -10 c4 -10
4 -14 0 -10 -4 4 -16 0 -26 -10 -18 -16 -23 -8 -12 21 8 21 30 20 38 -1z m395
4 c6 -8 8 -17 4 -20 -3 -4 -1 -7 6 -7 15 0 6 -38 -14 -59 -23 -24 -37 -3 -20
30 14 26 14 30 0 35 -19 8 -20 34 -1 34 7 0 19 -6 25 -13z m127 1 c-3 -7 -9
-21 -12 -30 -4 -10 -10 -18 -14 -18 -13 0 -18 49 -6 54 22 9 38 6 32 -6z
m-1203 -29 c6 -22 -11 -59 -26 -59 -20 0 -47 22 -47 38 0 16 30 38 56 41 7 0
14 -9 17 -20z m54 -26 c-3 -10 -5 -2 -5 17 0 19 2 27 5 18 2 -10 2 -26 0 -35z
m823 27 c-8 -5 -17 -7 -19 -4 -3 3 1 9 9 14 8 5 17 7 19 4 3 -3 -1 -9 -9 -14z
m-1284 -38 c-14 -14 -16 -14 -16 -1 0 20 23 44 29 28 2 -6 -4 -18 -13 -27z
m754 20 c0 -9 -9 -23 -20 -30 -17 -10 -20 -10 -20 6 0 19 18 42 32 42 4 0 8
-8 8 -18z m-110 -5 c27 -22 38 -53 32 -83 -7 -27 -42 -48 -42 -24 0 6 -13 16
-29 21 -20 7 -28 15 -24 25 3 8 0 20 -6 28 -29 35 32 64 69 33z m-590 -43 c0
-14 -4 -23 -10 -19 -5 3 -10 15 -10 26 0 10 5 19 10 19 6 0 10 -12 10 -26z
m60 6 c0 -13 -5 -18 -15 -14 -8 4 -15 12 -15 20 0 8 7 14 15 14 8 0 15 -9 15
-20z m680 -11 c0 -38 -24 -35 -28 4 -2 19 1 27 12 27 11 0 16 -10 16 -31z m58
3 c3 -21 1 -22 -17 -12 -26 13 -28 43 -3 38 9 -2 18 -14 20 -26z m683 21 c3
-27 4 -63 3 -63 -27 0 -46 44 -27 63 9 9 23 9 24 0z m63 -19 c8 -31 5 -37 -17
-28 -18 6 -30 32 -21 45 11 18 32 9 38 -17z m-1066 -6 c-4 -27 -28 -36 -28
-10 0 20 8 32 22 32 5 0 8 -10 6 -22z m742 -3 c0 -24 -24 -44 -37 -31 -9 8 14
56 27 56 5 0 10 -11 10 -25z m-820 -10 c-7 -9 -15 -13 -17 -11 -7 7 7 26 19
26 6 0 6 -6 -2 -15z m-350 -21 c0 -13 -21 -44 -30 -44 -15 0 -12 37 3 43 17 8
27 8 27 1z m640 -4 c0 -5 -4 -10 -10 -10 -5 0 -10 -6 -10 -14 0 -12 -20 -26
-36 -26 -10 0 -3 25 13 42 17 19 43 24 43 8z m110 -11 c0 -6 -5 -7 -10 -4 -6
3 -13 -1 -16 -9 -6 -16 -34 -23 -34 -8 1 31 60 52 60 21z m-390 1 c0 -5 -5
-10 -11 -10 -5 0 -7 5 -4 10 3 6 8 10 11 10 2 0 4 -4 4 -10z m751 -4 c5 3 9 0
9 -5 0 -6 -12 -11 -26 -11 -23 0 -25 2 -13 16 8 10 15 12 17 5 2 -6 8 -9 13
-5z m-311 -6 c8 -5 11 -10 5 -10 -5 0 -17 5 -25 10 -8 5 -10 10 -5 10 6 0 17
-5 25 -10z m-328 -13 c20 -10 23 -17 17 -34 -10 -27 -40 -44 -65 -37 -34 9
-18 83 17 84 4 0 18 -6 31 -13z m741 -1 c22 -7 26 -12 21 -30 -9 -29 -22 -44
-45 -51 -10 -4 -19 -12 -19 -19 0 -20 -25 -37 -45 -30 -14 6 -13 10 12 30 15
13 24 23 18 24 -5 0 -10 20 -10 44 0 48 3 50 68 32z m-1154 -22 c10 -23 9 -25
-11 -22 -15 2 -24 11 -26 26 -5 31 22 29 37 -4z m731 7 c14 -27 13 -41 -5 -41
-17 0 -34 29 -28 48 7 18 21 15 33 -7z m45 9 c3 -5 1 -10 -4 -10 -6 0 -11 5
-11 10 0 6 2 10 4 10 3 0 8 -4 11 -10z m-470 -14 c11 -8 16 -19 12 -30 -9 -22
-27 -21 -27 2 0 10 -5 23 -12 30 -16 16 4 15 27 -2z m-372 -30 c45 -41 47 -67
7 -85 -45 -19 -59 -3 -55 62 1 29 3 53 4 55 2 5 9 1 44 -32z m537 10 c0 -14
-5 -28 -10 -31 -13 -8 -24 20 -16 40 9 24 26 17 26 -9z m746 -3 c-2 -16 -4
-34 -5 -42 -1 -11 -4 -11 -16 -1 -18 15 -19 42 -3 58 19 19 27 14 24 -15z
m-540 -18 c40 -40 39 -63 -3 -82 -39 -18 -53 -2 -53 63 0 31 5 54 10 54 6 0
27 -16 46 -35z m168 -54 c1 -49 -23 -141 -36 -141 -4 0 -8 7 -8 15 0 8 -6 15
-12 15 -8 1 -6 6 5 14 22 17 22 22 -2 29 -13 3 -22 17 -27 41 -5 27 -11 36
-21 32 -10 -4 -13 0 -11 16 2 13 11 24 21 26 13 3 17 -4 17 -31 0 -41 27 -59
47 -31 7 10 13 23 12 28 0 6 -3 5 -6 -1 -5 -15 -43 -18 -43 -4 0 5 3 17 6 25
5 14 9 14 22 4 14 -11 15 -9 8 22 l-6 35 17 -24 c9 -14 17 -44 17 -70z m-676
46 c2 -9 -3 -23 -10 -30 -11 -12 -16 -12 -26 -1 -13 15 -16 37 -5 48 12 12 38
2 41 -17z m382 13 c0 -5 -4 -10 -10 -10 -5 0 -10 5 -10 10 0 6 5 10 10 10 6 0
10 -4 10 -10z m344 4 c17 -7 22 -54 6 -54 -5 0 -11 -8 -11 -17 -1 -17 -2 -17
-6 0 -2 9 -8 17 -13 17 -14 0 -21 32 -9 46 13 16 12 16 33 8z m-870 -41 c-23
-17 -34 -17 -34 0 0 24 22 38 38 25 12 -10 11 -14 -4 -25z m81 -55 c-4 -27
-11 -50 -16 -54 -5 -3 -9 -14 -9 -25 0 -11 -4 -18 -10 -14 -5 3 -6 13 -3 22 5
12 3 14 -8 8 -11 -7 -11 -5 1 10 9 10 11 20 5 22 -22 7 -33 19 -40 41 -6 21
-5 22 13 11 31 -20 52 -5 53 38 0 36 1 36 10 13 6 -14 7 -46 4 -72z m101 62
c-5 -26 -2 -32 20 -40 24 -9 24 -11 8 -35 -15 -23 -15 -25 1 -31 12 -5 14 -9
4 -15 -7 -4 -22 -3 -35 1 -12 5 -25 6 -28 3 -3 -4 -5 12 -4 35 1 22 6 40 12
39 10 -2 11 3 14 51 1 12 5 22 8 22 4 0 4 -14 0 -30z m63 11 c17 -11 5 -31
-19 -31 -21 0 -34 15 -25 30 8 12 25 13 44 1z m749 -5 c10 -6 10 -11 1 -22
-23 -28 -68 -11 -55 21 6 15 31 16 54 1z m-1148 -20 c0 -16 -13 -35 -39 -55
-47 -38 -66 -39 -67 -6 -1 14 2 25 7 25 5 0 9 -5 9 -10 0 -6 11 -3 24 5 19 13
25 13 30 3 4 -9 5 -9 4 2 -3 22 12 60 23 60 5 0 9 -11 9 -24z m210 9 c0 -8 -7
-15 -15 -15 -8 0 -15 7 -15 15 0 8 7 15 15 15 8 0 15 -7 15 -15z m276 -23
c-11 -12 -19 -13 -27 -5 -8 8 -4 15 13 27 28 20 39 3 14 -22z m-537 2 c3 -16
1 -17 -13 -5 -19 16 -21 34 -3 29 6 -3 14 -13 16 -24z m611 12 c0 -14 -40 -49
-47 -42 -2 2 1 15 6 30 11 27 41 36 41 12z m740 -5 c0 -21 -38 -54 -51 -45 -5
3 -3 15 4 27 22 40 47 49 47 18z m-617 -11 c3 -11 1 -20 -4 -20 -5 0 -9 9 -9
20 0 11 2 20 4 20 2 0 6 -9 9 -20z m507 -36 c0 -8 -5 -12 -10 -9 -6 4 -8 11
-5 16 9 14 15 11 15 -7z m-914 -8 c15 -12 16 -17 7 -27 -10 -10 -15 -9 -28 1
-16 13 -21 40 -7 40 5 0 17 -6 28 -14z m214 4 c0 -5 -4 -10 -10 -10 -5 0 -10
5 -10 10 0 6 5 10 10 10 6 0 10 -4 10 -10z m540 -31 c0 -6 -7 -12 -16 -16 -18
-7 -34 12 -34 40 0 16 2 16 25 1 14 -9 25 -20 25 -25z m200 32 c0 -6 -4 -13
-10 -16 -5 -3 -10 1 -10 9 0 9 5 16 10 16 6 0 10 -4 10 -9z m-803 -26 c10 -10
13 -24 9 -41 -8 -29 -26 -23 -26 10 0 12 -5 27 -12 34 -9 9 -9 12 1 12 7 0 19
-7 28 -15z m748 -48 c-8 -32 -25 -26 -25 8 0 13 -5 27 -10 30 -6 4 -7 11 -4
17 4 6 14 3 26 -9 14 -14 17 -27 13 -46z m-695 23 c0 -5 -4 -10 -10 -10 -5 0
-10 5 -10 10 0 6 5 10 10 10 6 0 10 -4 10 -10z m740 -10 c0 -5 -4 -10 -10 -10
-5 0 -10 5 -10 10 0 6 5 10 10 10 6 0 10 -4 10 -10z m-937 -30 c4 0 4 6 1 13
-3 8 4 13 17 13 19 0 18 -3 -11 -29 -18 -16 -35 -25 -38 -21 -4 4 -1 9 5 11
10 3 10 10 2 26 -9 20 -9 20 4 5 8 -10 17 -18 20 -18z m697 20 c0 -5 -4 -10
-10 -10 -5 0 -10 5 -10 10 0 6 5 10 10 10 6 0 10 -4 10 -10z m60 -14 c0 -11
-40 -46 -53 -46 -2 0 -1 15 1 32 4 28 6 30 13 13 8 -19 8 -19 15 2 6 23 24 22
24 -1z m-1010 -24 c0 -13 -12 -22 -22 -16 -10 6 -1 24 13 24 5 0 9 -4 9 -8z
m730 -12 c0 -5 -4 -10 -10 -10 -5 0 -10 5 -10 10 0 6 5 10 10 10 6 0 10 -4 10
-10z"/>
<path d="M1327 2894 c-4 -4 -7 -16 -7 -26 0 -11 -4 -17 -9 -14 -5 4 -11 -23
-13 -59 -1 -36 -2 -65 0 -65 10 0 32 75 27 90 -3 11 -1 29 5 40 12 22 10 46
-3 34z"/>
<path d="M1277 2853 c-4 -3 -7 -11 -7 -17 0 -6 5 -5 12 2 6 6 9 14 7 17 -3 3
-9 2 -12 -2z"/>
<path d="M1180 2469 c0 -5 5 -7 10 -4 6 3 10 8 10 11 0 2 -4 4 -10 4 -5 0 -10
-5 -10 -11z"/>
<path d="M470 2499 c0 -5 5 -7 10 -4 6 3 10 8 10 11 0 2 -4 4 -10 4 -5 0 -10
-5 -10 -11z"/>
<path d="M440 2480 c0 -5 5 -10 10 -10 6 0 10 5 10 10 0 6 -4 10 -10 10 -5 0
-10 -4 -10 -10z"/>
<path d="M2027 3624 c13 -21 14 -30 5 -45 -17 -27 -14 -38 3 -15 14 18 15 15
15 -38 0 -70 16 -66 22 6 3 29 9 62 14 73 7 18 6 18 -9 7 -8 -8 -13 -21 -11
-30 4 -14 3 -13 -6 1 -7 11 -10 30 -7 43 3 20 0 24 -20 24 -23 0 -23 -1 -6
-26z"/>
<path d="M2710 3641 c0 -9 46 -61 54 -61 8 0 -6 33 -22 53 -16 18 -32 23 -32
8z"/>
<path d="M2767 3619 c15 -25 19 -27 22 -12 2 10 8 24 13 31 8 9 3 12 -21 12
l-32 0 18 -31z"/>
<path d="M2830 3639 c0 -5 5 -7 10 -4 6 3 10 8 10 11 0 2 -4 4 -10 4 -5 0 -10
-5 -10 -11z"/>
<path d="M2852 3625 c-7 -14 -12 -36 -11 -48 1 -16 3 -14 10 11 8 28 12 31 28
22 17 -9 18 -7 7 15 -14 31 -20 31 -34 0z"/>
<path d="M2935 3629 c6 -29 13 -35 26 -22 15 15 4 43 -15 43 -10 0 -13 -7 -11
-21z"/>
<path d="M3071 3629 c6 -13 7 -24 2 -28 -20 -13 -21 -39 -1 -55 11 -10 22 -16
24 -13 3 2 -2 10 -11 17 -20 16 -19 40 1 40 9 0 13 5 10 13 -3 6 -9 20 -12 30
-4 9 -10 17 -16 17 -5 0 -4 -10 3 -21z"/>
<path d="M3181 3633 c-7 -8 -11 -16 -8 -19 2 -2 10 2 17 11 17 20 9 27 -9 8z"/>
<path d="M2811 3584 c0 -11 3 -14 6 -6 3 7 2 16 -1 19 -3 4 -6 -2 -5 -13z"/>
<path d="M2865 3580 c-3 -5 -1 -10 4 -10 6 0 11 5 11 10 0 6 -2 10 -4 10 -3 0
-8 -4 -11 -10z"/>
<path d="M2927 3583 c-12 -11 -8 -23 9 -23 26 0 10 -25 -19 -28 -14 -2 -31
-10 -37 -18 -7 -8 -16 -14 -21 -14 -16 0 -9 29 9 39 15 9 15 10 1 11 -10 0
-26 -21 -42 -54 -14 -30 -41 -71 -59 -92 -31 -36 -31 -38 -6 -21 19 12 34 14
50 8 20 -7 18 -9 -17 -16 l-40 -8 28 -9 c19 -7 27 -17 27 -33 0 -37 -19 -40
-31 -6 -7 20 -18 31 -31 31 -10 0 -17 -4 -13 -9 3 -6 -4 -15 -15 -21 -14 -8
-20 -21 -20 -45 0 -33 10 -41 43 -36 12 2 8 -9 -14 -32 -18 -19 -18 -22 -4
-25 28 -6 9 -27 -23 -26 -17 0 -29 -2 -27 -6 7 -11 -46 -61 -75 -72 -22 -8
-23 -10 -7 -19 21 -12 22 -23 1 -43 -8 -9 -11 -16 -5 -16 6 0 8 -7 5 -15 -4
-10 0 -15 13 -15 28 0 32 -7 23 -46 -4 -18 -4 -34 0 -34 5 0 10 14 12 31 2 22
10 34 26 40 16 6 22 5 22 -6 0 -9 -6 -12 -15 -9 -8 4 -15 1 -15 -5 0 -20 21
-12 51 20 33 36 35 44 13 57 -29 16 -55 3 -48 -24 5 -20 3 -23 -12 -18 -24 9
-54 34 -54 46 0 4 12 5 26 2 24 -6 25 -4 21 22 -8 50 7 71 54 77 37 5 46 2 65
-20 24 -28 22 -48 -8 -74 -10 -9 -18 -30 -18 -47 0 -21 -7 -35 -25 -46 -14 -9
-23 -21 -20 -26 10 -16 28 -11 21 5 -4 13 -2 14 14 5 11 -6 20 -15 20 -20 0
-15 17 -12 34 6 24 23 19 35 -10 28 -26 -7 -26 -7 -10 19 13 19 14 26 4 29 -9
3 -6 12 10 32 12 16 24 43 28 62 3 19 10 37 15 40 5 3 14 14 20 26 9 18 8 19
-10 13 -12 -4 -21 -2 -21 4 0 6 5 11 11 11 6 0 19 10 29 23 21 25 36 17 47
-24 13 -49 7 -98 -15 -129 -13 -17 -20 -35 -17 -40 3 -5 -5 -12 -19 -16 -32
-8 -57 -35 -38 -41 6 -3 12 -14 12 -25 0 -17 5 -14 30 17 17 21 30 34 30 30 0
-4 -11 -20 -25 -37 -29 -34 -34 -63 -9 -54 10 4 26 -1 37 -11 13 -11 21 -14
24 -7 2 6 15 9 28 6 26 -4 29 1 25 46 -1 12 3 22 9 22 6 0 11 -5 11 -12 0 -6
3 -8 7 -5 7 8 32 -22 33 -40 0 -6 -8 -9 -20 -6 -14 4 -20 0 -20 -11 0 -10 5
-14 10 -11 6 3 10 2 10 -2 0 -5 10 -13 23 -18 12 -6 22 -19 23 -31 1 -12 4
-26 7 -31 4 -6 2 -24 -3 -42 -7 -27 -6 -31 11 -31 12 0 19 7 19 20 0 31 17 24
24 -11 5 -26 9 -29 28 -23 31 9 31 9 18 33 -7 14 -7 21 -1 21 6 0 13 -11 17
-25 8 -32 53 -36 61 -5 5 18 15 20 97 22 50 1 102 1 116 1 14 -1 41 1 60 4
l35 6 -31 8 c-31 9 -31 9 -23 56 4 27 17 84 28 128 17 64 21 112 21 238 0 90
-4 156 -9 153 -5 -3 -14 1 -21 9 -7 8 -19 15 -28 15 -8 0 -21 8 -28 17 -17 24
-29 10 -14 -16 14 -28 -2 -28 -46 0 -18 11 -39 19 -46 18 -30 -4 -78 15 -93
38 -12 18 -24 23 -43 21 -37 -4 -30 -21 12 -31 20 -5 36 -13 36 -18 0 -5 -12
-6 -27 -3 -22 6 -25 4 -20 -10 4 -9 10 -23 13 -32 5 -12 2 -15 -12 -12 -14 2
-19 12 -19 34 0 22 -5 30 -18 31 -10 1 -21 -5 -24 -13 -7 -19 -33 -18 -33 1 0
12 -4 13 -19 6 -13 -7 -17 -18 -14 -35 3 -14 -2 -35 -11 -47 -13 -20 -16 -20
-22 -6 -3 9 -11 14 -16 11 -6 -4 -14 -1 -18 6 -6 9 -13 2 -24 -25 -18 -41 -22
-100 -6 -90 5 3 6 13 3 22 -5 12 -2 15 9 11 27 -11 40 6 22 28 -13 16 -15 16
-10 2 3 -12 0 -18 -9 -18 -18 0 -20 16 -2 27 23 14 39 12 44 -8 5 -18 8 -16
27 13 l21 33 3 -28 c2 -18 -4 -37 -15 -49 -17 -19 -17 -20 0 -33 21 -15 22
-32 3 -50 -10 -10 -16 -11 -25 -2 -8 8 -11 8 -11 0 0 -7 4 -14 10 -18 14 -8 1
-35 -15 -29 -14 6 -27 54 -15 54 5 0 13 14 19 32 11 30 10 30 -7 15 -10 -10
-29 -17 -41 -17 -19 0 -21 -4 -16 -22 4 -13 11 -27 16 -32 13 -14 11 -28 -3
-20 -8 5 -9 2 -4 -12 15 -35 11 -49 -11 -52 -16 -2 -23 2 -23 13 0 11 -5 15
-15 11 -27 -10 -16 23 13 42 28 17 28 17 12 58 -9 24 -20 39 -27 37 -9 -3 -13
6 -13 25 0 37 10 46 26 24 12 -16 13 -16 14 3 0 11 11 38 24 59 24 41 25 66 1
66 -17 0 -27 -15 -30 -44 -1 -11 -3 -26 -4 -33 -2 -20 -31 -3 -31 18 0 11 9
27 19 36 16 13 17 19 8 34 -7 11 -22 19 -35 19 -19 0 -22 4 -17 21 4 13 0 27
-11 40 -9 10 -12 19 -6 19 6 0 9 6 6 14 -4 11 6 13 53 10 60 -5 80 -14 68 -34
-10 -16 -13 -90 -4 -90 3 0 12 6 18 14 14 16 51 28 51 16 0 -5 -4 -12 -10 -15
-5 -3 -10 -10 -10 -15 0 -9 39 0 83 21 23 10 25 14 12 21 -8 5 -15 21 -16 36
l-1 27 -8 -28 c-5 -16 -6 -36 -3 -45 5 -12 2 -14 -11 -9 -10 4 -20 7 -22 7 -2
0 -4 14 -4 30 0 17 4 30 9 30 5 0 11 7 15 15 3 9 0 15 -9 15 -8 0 -15 -6 -15
-13 0 -22 -37 -50 -57 -43 -11 5 -14 10 -7 14 15 9 28 52 16 52 -5 0 -12 9
-15 20 -3 11 -1 20 4 20 5 0 9 5 9 10 0 16 -22 12 -36 -7 -8 -11 -13 -13 -14
-5 0 6 -5 12 -12 12 -6 0 -19 7 -28 15 -9 8 -20 12 -23 8z m-63 -140 c-9 -38
-13 -43 -30 -43 -18 0 -18 20 2 48 21 31 36 28 28 -5z m33 -75 c7 -5 17 -7 23
-3 14 9 12 -15 -3 -45 -7 -14 -19 -25 -27 -25 -8 0 -21 -12 -28 -27 -8 -17
-21 -28 -33 -28 -14 0 -19 -7 -20 -27 -2 -73 -12 -105 -28 -87 -13 14 -22 74
-11 74 6 0 10 -5 10 -12 0 -9 3 -9 11 -1 6 6 9 21 7 34 -2 15 5 30 19 42 14
11 21 28 21 50 -1 72 1 75 25 70 12 -3 27 -10 34 -15z m271 -69 c38 -44 39
-52 7 -73 -51 -33 -65 -18 -65 70 0 63 6 63 58 3z m-399 -8 c12 -7 12 -13 3
-24 -7 -7 -9 -18 -5 -23 4 -5 1 -3 -7 4 -8 6 -22 12 -32 12 -18 0 -25 20 -11
33 9 10 35 8 52 -2z m485 -9 c2 -4 -4 -13 -15 -20 -15 -10 -19 -10 -19 1 0 24
23 36 34 19z m73 -24 c-3 -7 -5 -2 -5 12 0 14 2 19 5 13 2 -7 2 -19 0 -25z
m-397 14 c0 -18 -33 -52 -50 -52 -17 0 -17 2 -4 30 14 27 54 43 54 22z m372
-7 c0 -5 -5 -11 -11 -13 -6 -2 -11 4 -11 13 0 9 5 15 11 13 6 -2 11 -8 11 -13z
m-38 -41 c3 -8 2 -12 -4 -9 -6 3 -10 10 -10 16 0 14 7 11 14 -7z m-414 -14 c0
-5 -4 -10 -10 -10 -5 0 -10 5 -10 10 0 6 5 10 10 10 6 0 10 -4 10 -10z m356
-43 c12 16 13 16 14 2 0 -9 -11 -24 -25 -33 -27 -18 -29 -15 -18 24 6 20 8 21
11 7 4 -18 4 -18 18 0z m-239 -171 c-7 -21 -26 -15 -40 12 l-14 29 28 -16 c16
-9 27 -20 26 -25z m-266 -3 c-12 -20 -14 -14 -5 12 4 9 9 14 11 11 3 -2 0 -13
-6 -23z m315 -28 c18 -15 18 -15 -5 -13 -14 2 -26 9 -29 16 -5 17 10 15 34 -3z
m34 -45 c0 -11 -4 -20 -9 -20 -5 0 -7 9 -4 20 3 11 7 20 9 20 2 0 4 -9 4 -20z
m-123 -7 c5 -14 -28 -26 -40 -14 -5 5 -6 14 -3 19 8 13 39 9 43 -5z m290 -195
c-3 -8 -6 -5 -6 6 -1 11 2 17 5 13 3 -3 4 -12 1 -19z"/>
<path d="M2794 3508 c-1 -44 1 -56 8 -43 13 22 14 83 2 94 -5 6 -9 -13 -10
-51z"/>
<path d="M2611 3516 c-12 -14 -11 -18 5 -31 18 -14 54 -21 41 -9 -3 3 -1 18 4
32 10 25 10 26 -10 8 -18 -16 -19 -17 -23 0 -3 16 -4 16 -17 0z"/>
<path d="M2730 3522 c0 -4 6 -14 13 -21 10 -10 5 -18 -21 -41 -21 -17 -29 -30
-23 -34 6 -4 11 -12 11 -19 0 -8 -3 -8 -12 1 -7 7 -18 12 -25 12 -11 0 -11 -5
1 -28 19 -37 46 -60 46 -41 0 8 14 34 30 58 19 28 30 57 30 79 0 20 -3 32 -6
29 -4 -3 -15 -2 -25 4 -11 5 -19 6 -19 1z"/>
<path d="M3150 3484 c0 -8 5 -12 10 -9 6 4 8 11 5 16 -9 14 -15 11 -15 -7z"/>
<path d="M3045 3336 c-11 -8 -14 -15 -8 -19 6 -4 16 0 23 8 17 21 8 28 -15 11z"/>
<path d="M1930 3200 c0 -5 5 -10 10 -10 6 0 10 5 10 10 0 6 -4 10 -10 10 -5 0
-10 -4 -10 -10z"/>
<path d="M2585 3179 c-5 -19 -8 -42 -7 -51 2 -25 -19 -23 -25 2 -4 16 -8 18
-20 9 -11 -10 -11 -14 -2 -20 7 -4 14 -19 16 -34 3 -23 1 -25 -21 -19 -14 3
-30 3 -36 -1 -17 -11 7 -34 30 -28 33 9 43 -29 20 -82 -25 -59 -26 -58 10 -40
17 9 35 13 40 10 19 -12 10 31 -9 44 -11 8 -17 20 -14 28 3 7 0 20 -6 27 -9
10 -9 16 -1 21 6 4 9 13 6 20 -4 12 20 30 37 27 7 -2 11 21 8 46 -3 19 17 14
22 -5 3 -11 5 -7 6 10 0 16 -3 26 -9 22 -5 -3 -15 6 -23 21 l-14 27 -8 -34z
m19 -34 c-4 -8 -10 -12 -15 -9 -11 6 -2 24 11 24 5 0 7 -7 4 -15z m-34 -201
c0 -8 -4 -14 -10 -14 -5 0 -10 9 -10 21 0 11 5 17 10 14 6 -3 10 -13 10 -21z"/>
<path d="M2670 3190 c0 -5 5 -10 10 -10 6 0 10 5 10 10 0 6 -4 10 -10 10 -5 0
-10 -4 -10 -10z"/>
<path d="M2147 3036 c-20 -30 -20 -33 3 -36 32 -5 43 0 32 13 -5 6 -11 21 -13
31 -4 18 -6 17 -22 -8z"/>
<path d="M1935 3012 c4 -9 9 -24 12 -34 4 -14 7 -14 29 5 28 24 19 41 -21 45
-22 2 -26 -1 -20 -16z"/>
<path d="M2516 3021 c-4 -7 -5 -15 -2 -18 9 -9 19 4 14 18 -4 11 -6 11 -12 0z"/>
<path d="M2362 2988 c7 -19 38 -22 38 -4 0 10 -9 16 -21 16 -12 0 -19 -5 -17
-12z"/>
<path d="M2080 2975 c-9 -11 -9 -19 3 -35 14 -21 14 -21 32 6 14 22 15 28 4
35 -19 12 -25 11 -39 -6z"/>
<path d="M2180 2983 c0 -7 -13 -19 -28 -27 -28 -15 -58 -63 -46 -75 4 -3 8 -1
11 4 14 39 31 60 48 60 16 0 21 -8 23 -42 2 -29 -1 -43 -9 -43 -8 0 -6 -6 4
-18 23 -26 21 -32 -10 -32 -14 0 -35 -7 -45 -17 -23 -21 -36 -10 -14 12 20 20
20 26 2 19 -8 -3 -23 -27 -34 -53 -10 -26 -34 -65 -53 -87 -23 -27 -25 -32 -7
-16 18 16 27 20 30 11 7 -20 28 0 28 26 0 14 9 29 20 35 18 10 20 8 20 -19 0
-18 -7 -34 -17 -40 -16 -9 -16 -10 -2 -11 9 0 27 9 40 19 21 17 22 22 11 41
-15 24 -7 61 11 55 7 -3 33 -6 59 -8 43 -3 47 -1 53 22 4 14 11 29 17 32 11 7
2 29 -12 29 -5 0 -12 -10 -16 -22 -6 -19 -7 -19 -16 -4 -5 9 -13 14 -17 11 -5
-2 -15 2 -22 11 -11 13 -10 17 3 25 13 7 15 18 11 46 -4 26 -3 34 5 29 8 -5
10 -2 6 8 -3 9 -10 16 -16 16 -5 0 -6 -4 -3 -10 11 -17 -7 -11 -21 8 -8 10
-13 12 -14 5z"/>
<path d="M2264 2941 c8 -7 19 -10 25 -7 19 12 12 24 -14 22 -20 -1 -22 -3 -11
-15z"/>
<path d="M1960 2922 c0 -5 14 -21 30 -35 35 -31 40 -22 9 17 -20 25 -39 34
-39 18z"/>
<path d="M1927 2900 c-4 -16 0 -20 19 -20 22 0 23 3 14 20 -6 11 -15 20 -19
20 -5 0 -11 -9 -14 -20z"/>
<path d="M2677 2906 c-3 -8 2 -16 14 -19 16 -4 17 -2 8 14 -12 23 -15 23 -22
5z"/>
<path d="M2140 2885 c7 -9 15 -13 17 -11 7 7 -7 26 -19 26 -6 0 -6 -6 2 -15z"/>
<path d="M2065 2871 c-3 -5 -1 -12 5 -16 5 -3 10 1 10 9 0 18 -6 21 -15 7z"/>
<path d="M2310 2858 c0 -12 1 -19 3 -17 1 2 9 12 16 22 12 14 11 17 -3 17 -10
0 -16 -8 -16 -22z"/>
<path d="M1957 2852 c-19 -20 -22 -42 -7 -42 14 0 50 42 44 52 -8 13 -19 10
-37 -10z"/>
<path d="M2090 2856 c0 -9 5 -16 10 -16 6 0 10 4 10 9 0 6 -4 13 -10 16 -5 3
-10 -1 -10 -9z"/>
<path d="M2120 2859 c0 -5 5 -7 10 -4 6 3 10 8 10 11 0 2 -4 4 -10 4 -5 0 -10
-5 -10 -11z"/>
<path d="M2050 2800 c0 -39 3 -51 10 -40 5 8 10 26 10 40 0 14 -5 32 -10 40
-7 11 -10 -1 -10 -40z"/>
<path d="M2392 2838 c3 -7 13 -15 22 -16 12 -3 17 1 14 10 -3 7 -13 15 -22 16
-12 3 -17 -1 -14 -10z"/>
<path d="M2950 2836 c0 -8 -3 -21 -6 -30 -10 -26 12 -18 24 8 9 19 8 25 -4 30
-8 3 -14 -1 -14 -8z"/>
<path d="M2756 2788 c-18 -20 -18 -21 -1 -35 22 -16 35 -17 35 -3 0 6 -5 10
-11 10 -7 0 -9 10 -5 25 8 29 7 30 -18 3z"/>
<path d="M1866 2792 c-9 -15 10 -42 30 -42 8 0 14 9 14 21 0 14 -5 19 -14 16
-8 -3 -16 -1 -19 6 -2 8 -6 8 -11 -1z"/>
<path d="M1996 2776 c4 -17 -1 -28 -20 -43 -18 -14 -24 -27 -20 -44 2 -13 2
-18 -2 -11 -6 13 -34 17 -34 5 0 -16 49 -68 50 -53 0 8 14 33 30 54 33 43 38
79 16 102 -21 20 -27 17 -20 -10z"/>
<path d="M2407 2773 c-10 -17 -19 -110 -18 -181 1 -68 0 -73 -23 -82 -31 -11
-42 -30 -25 -40 10 -7 9 -18 -8 -57 -20 -45 -75 -217 -109 -343 -14 -52 -19
-57 -71 -84 -30 -16 -69 -47 -85 -68 -26 -31 -34 -36 -46 -26 -12 10 -19 7
-38 -15 -26 -30 -31 -66 -13 -99 8 -16 8 -22 -2 -29 -7 -4 -17 -5 -22 -2 -5 3
-7 -16 -6 -43 l4 -48 -37 -9 c-53 -12 -47 -24 13 -29 39 -4 56 -11 69 -28 9
-12 23 -20 31 -18 8 3 32 -5 54 -18 22 -12 59 -27 82 -32 38 -9 44 -7 65 15
16 17 23 36 23 67 0 24 6 50 13 58 10 12 9 22 -3 49 l-14 34 -1 -32 c0 -18 -2
-33 -5 -33 -2 0 -19 10 -38 23 -36 25 -37 48 -2 77 13 11 15 23 10 60 -6 42
-4 48 14 53 26 6 31 -9 25 -80 -3 -41 -2 -52 5 -38 5 11 10 44 10 73 l1 52 43
0 c53 0 70 11 70 43 0 37 -35 68 -82 74 -23 3 -41 11 -41 18 0 16 41 133 85
243 32 80 40 92 61 92 24 0 28 10 28 82 0 22 49 19 58 -4 6 -14 37 -19 67 -9
2 0 -7 9 -19 19 -12 10 -23 30 -23 45 -1 18 -7 26 -17 24 -9 -1 -16 7 -18 21
-2 12 1 22 6 22 6 0 8 10 5 23 -4 21 -4 22 11 3 9 -11 16 -16 16 -11 0 5 7 0
15 -11 14 -19 14 -18 15 4 0 12 -4 22 -10 22 -5 0 -10 5 -10 10 0 22 19 8 30
-22 7 -18 14 -28 17 -21 2 7 -1 21 -7 32 -6 12 -7 21 -2 21 5 0 15 -11 22 -25
12 -23 15 -24 30 -10 22 20 36 19 53 -6 9 -12 17 -16 21 -10 4 6 -8 24 -26 40
-32 29 -33 30 -13 46 19 15 19 15 -10 9 -16 -4 -35 -13 -41 -20 -13 -17 -34
-18 -34 -3 0 5 -5 7 -12 3 -7 -5 -9 0 -6 14 3 12 1 23 -5 25 -9 3 -9 11 0 30
8 16 9 29 3 32 -6 4 -10 3 -10 -2 0 -4 -13 -23 -28 -41 l-28 -33 -17 33 c-35
66 -45 80 -50 71z m59 -122 c4 -18 0 -32 -10 -40 -14 -11 -16 -11 -16 3 0 10
-4 14 -10 11 -5 -3 -10 1 -10 10 0 9 -5 13 -10 10 -7 -4 -9 3 -5 19 3 14 8 38
11 53 l5 26 20 -32 c11 -18 22 -45 25 -60z m-47 -65 c9 -10 8 -16 -4 -26 -13
-11 -15 -8 -15 14 0 30 3 32 19 12z m32 -79 c-8 -8 -11 -7 -11 4 0 9 3 19 7
23 4 4 9 2 11 -4 3 -7 -1 -17 -7 -23z m-41 -7 c-6 -11 -13 -20 -16 -20 -2 0 0
9 6 20 6 11 13 20 16 20 2 0 0 -9 -6 -20z m-81 -191 c-11 -30 -23 -56 -26 -59
-7 -8 8 51 23 89 23 56 25 29 3 -30z m-179 -453 c0 -3 -4 -8 -10 -11 -5 -3
-10 -1 -10 4 0 6 5 11 10 11 6 0 10 -2 10 -4z m0 -136 c0 -7 -24 -20 -36 -20
-2 0 -4 9 -4 19 0 14 5 18 20 14 11 -3 20 -9 20 -13z"/>
<path d="M2812 2748 c-16 -16 -15 -28 2 -28 19 0 27 13 17 28 -5 9 -10 9 -19
0z"/>
<path d="M2263 2695 c-1 -25 0 -45 2 -45 1 0 10 10 18 23 13 21 13 25 -2 45
-16 21 -16 21 -18 -23z"/>
<path d="M2767 2723 c-12 -12 -7 -22 8 -17 8 4 15 10 15 15 0 11 -14 12 -23 2z"/>
<path d="M2890 2690 c0 -5 -8 -10 -17 -10 -10 0 -39 -11 -64 -23 -43 -21 -45
-24 -26 -33 32 -13 32 -41 2 -72 -30 -30 -18 -42 22 -21 16 9 23 19 20 31 -3
10 -1 18 5 18 6 0 7 7 4 16 -10 25 2 50 23 51 25 2 35 -47 17 -82 -8 -14 -16
-25 -19 -23 -7 4 -47 -33 -47 -44 0 -4 5 -8 10 -8 6 0 10 6 10 14 0 9 7 12 20
9 14 -4 20 0 20 11 0 9 5 16 10 16 6 0 10 9 10 19 0 12 7 18 17 17 18 -1 20
28 7 97 -5 25 -24 39 -24 17z"/>
<path d="M2143 2666 c4 -10 7 -20 7 -22 0 -2 9 -4 20 -4 14 0 18 -5 13 -16 -5
-14 -3 -14 16 -3 11 8 21 17 21 20 0 12 -25 27 -54 35 -25 6 -28 5 -23 -10z"/>
<path d="M3095 2670 c-3 -5 -1 -10 4 -10 6 0 11 5 11 10 0 6 -2 10 -4 10 -3 0
-8 -4 -11 -10z"/>
<path d="M1666 2653 c-3 -7 -13 -13 -23 -13 -13 0 -6 -11 25 -39 51 -47 54
-74 11 -96 -49 -26 -62 -7 -57 82 3 73 -6 98 -18 46 -9 -44 -23 -73 -34 -73
-5 0 -10 5 -10 10 0 6 -6 10 -14 10 -8 0 -16 5 -18 12 -8 22 -39 -63 -35 -95
l4 -32 1 36 c1 22 8 39 17 42 11 5 12 1 5 -19 -9 -22 -7 -25 7 -22 13 2 17 12
16 33 l-2 30 12 -27 13 -28 11 30 c6 17 16 30 22 30 17 0 13 -60 -4 -66 -19
-8 -20 -34 -1 -34 19 0 27 -37 10 -51 -15 -13 -19 -59 -5 -59 5 0 12 8 16 18
6 15 8 16 18 1 7 -9 27 -16 46 -17 l33 -1 -21 23 c-16 17 -20 30 -15 55 4 20
11 30 19 27 7 -2 18 1 24 7 9 9 13 6 17 -10 6 -22 44 -35 64 -23 8 5 4 16 -14
33 -14 14 -26 36 -26 48 0 15 -4 19 -16 15 -13 -5 -15 -1 -12 23 3 23 0 31
-15 35 -15 4 -19 12 -15 38 3 27 0 34 -14 34 -10 0 -20 -6 -22 -13z"/>
<path d="M1825 2633 c2 -10 4 -20 4 -23 1 -3 5 -11 10 -19 8 -12 12 -12 25 -2
8 7 24 10 36 6 23 -7 27 -43 5 -51 -10 -4 -14 -14 -10 -28 6 -20 6 -21 -6 -1
-7 11 -15 22 -19 25 -4 3 -10 12 -13 20 -3 8 -5 -1 -5 -22 1 -28 7 -39 24 -47
15 -7 24 -21 27 -43 3 -24 4 -20 4 13 0 28 6 57 16 73 25 38 20 58 -20 88 -28
21 -39 25 -50 17 -9 -9 -13 -8 -13 0 0 6 -4 11 -9 11 -5 0 -8 -8 -6 -17z"/>
<path d="M2050 2642 c0 -4 5 -13 11 -19 12 -12 3 -53 -12 -53 -5 0 -14 11 -19
25 -12 32 -25 32 -55 -1 -28 -30 -33 -43 -10 -24 18 15 65 5 65 -15 0 -17 -33
-28 -60 -20 -11 3 -20 2 -20 -4 0 -16 42 -17 85 -3 40 13 80 42 58 42 -7 0 -9
14 -6 40 5 36 3 40 -16 40 -11 0 -21 -4 -21 -8z"/>
<path d="M2942 2639 c5 -17 48 -25 48 -10 0 6 -4 11 -9 11 -5 0 -17 3 -27 7
-12 4 -15 2 -12 -8z"/>
<path d="M2225 2628 c-11 -36 -11 -68 -1 -68 12 0 46 51 46 69 0 15 -40 14
-45 -1z"/>
<path d="M2695 2630 c3 -5 10 -10 16 -10 5 0 9 5 9 10 0 6 -7 10 -16 10 -8 0
-12 -4 -9 -10z"/>
<path d="M1550 2620 c-8 -5 -11 -12 -8 -16 10 -9 38 3 38 16 0 12 -10 13 -30
0z"/>
<path d="M2347 2612 c2 -11 0 -23 -6 -26 -6 -4 -11 -12 -11 -17 0 -6 5 -7 11
-3 6 3 15 0 20 -7 5 -9 7 1 5 26 -2 21 -8 41 -14 43 -6 2 -8 -5 -5 -16z"/>
<path d="M2301 2611 c-8 -6 -9 -11 -3 -15 6 -3 14 -1 17 5 9 14 2 20 -14 10z"/>
<path d="M2740 2605 c0 -8 -1 -18 -2 -22 -2 -3 7 -8 20 -9 26 -4 29 8 6 30
-19 20 -24 20 -24 1z"/>
<path d="M2151 2574 c-13 -6 -28 -22 -35 -35 -7 -14 -21 -24 -33 -23 -12 0
-19 -5 -16 -12 2 -6 13 -9 25 -6 15 3 19 1 16 -9 -3 -8 -15 -13 -27 -12 -13 2
-21 -2 -20 -10 4 -20 -12 -77 -21 -77 -12 0 -33 80 -24 89 4 3 9 0 11 -7 7
-19 23 -3 23 24 0 31 -11 30 -49 -2 -34 -28 -39 -44 -15 -44 8 0 12 -4 9 -10
-3 -5 -16 -10 -28 -10 -12 0 -37 -16 -56 -35 -19 -19 -28 -35 -21 -35 7 0 18
7 24 16 6 8 29 19 50 24 35 8 41 6 58 -16 11 -13 25 -24 31 -24 14 1 71 80 57
80 -5 0 -12 -4 -15 -10 -9 -15 -25 -12 -25 5 0 8 7 15 15 15 7 0 18 7 23 16
15 27 45 12 55 -26 5 -19 9 -43 10 -53 1 -14 7 -17 22 -12 11 4 26 7 33 7 8 1
10 7 6 17 -4 9 -10 34 -13 56 -5 29 -8 35 -13 23 -4 -10 -12 -18 -18 -18 -13
0 -13 46 0 71 8 14 7 24 -2 37 -11 15 -17 16 -37 6z m29 -34 c0 -26 -47 -57
-63 -41 -8 8 -8 11 1 11 7 0 12 6 12 13 0 7 5 18 12 25 18 18 38 14 38 -8z"/>
<path d="M2256 2565 c-3 -8 -1 -15 4 -15 6 0 10 7 10 15 0 8 -2 15 -4 15 -2 0
-6 -7 -10 -15z"/>
<path d="M2280 2560 c0 -5 5 -10 10 -10 6 0 10 -7 10 -15 0 -18 17 -20 23 -2
2 6 -3 17 -12 24 -20 15 -31 16 -31 3z"/>
<path d="M1777 2530 c6 -23 43 -25 51 -2 2 7 -2 10 -12 6 -9 -3 -23 -1 -30 5
-12 10 -13 8 -9 -9z"/>
<path d="M2207 2543 c-3 -5 -1 -17 4 -28 4 -11 8 -15 8 -8 1 6 4 18 7 27 6 16
-11 23 -19 9z"/>
<path d="M2264 2509 c-1 -28 0 -29 15 -15 13 14 13 18 1 31 -13 12 -15 10 -16
-16z"/>
<path d="M2605 2520 c-7 -12 2 -30 16 -30 5 0 9 9 9 20 0 21 -15 27 -25 10z"/>
<path d="M2645 2520 c-3 -5 -1 -10 4 -10 6 0 11 5 11 10 0 6 -2 10 -4 10 -3 0
-8 -4 -11 -10z"/>
<path d="M2540 2509 c0 -5 5 -7 10 -4 6 3 10 8 10 11 0 2 -4 4 -10 4 -5 0 -10
-5 -10 -11z"/>
<path d="M2230 2479 c0 -16 4 -28 9 -25 8 5 3 56 -5 56 -2 0 -4 -14 -4 -31z"/>
<path d="M2734 2479 c-18 -20 -18 -21 -1 -30 24 -14 12 -29 -23 -29 -15 0 -30
-7 -34 -15 -6 -17 29 -21 54 -6 10 7 18 4 28 -10 16 -24 54 -25 68 -1 8 13 7
21 -8 36 -18 19 -18 19 -18 -7 0 -41 -19 -42 -36 -2 -16 40 -12 70 9 62 8 -3
14 1 14 9 0 21 -31 17 -53 -7z"/>
<path d="M1554 2476 c-3 -9 -14 -16 -23 -16 -35 0 -44 -15 -28 -47 9 -16 22
-35 31 -42 13 -11 14 -8 7 16 -5 20 -2 37 12 61 11 18 17 36 13 39 -3 3 -8 -2
-12 -11z"/>
<path d="M2290 2460 c-8 -5 -23 -11 -32 -14 -24 -7 -23 -29 3 -57 l20 -24 -5
28 c-5 21 -3 27 10 27 10 0 14 3 11 6 -3 4 -2 15 4 25 11 21 10 21 -11 9z"/>
<path d="M2810 2460 c0 -6 7 -10 15 -10 8 0 15 2 15 4 0 2 -7 6 -15 10 -8 3
-15 1 -15 -4z"/>
<path d="M1834 2438 c-4 -13 -7 -29 -6 -35 4 -19 -15 -16 -27 5 -9 15 -12 15
-21 2 -7 -11 -5 -16 5 -18 8 -2 15 -10 15 -18 0 -18 30 -18 55 0 12 9 16 19
11 32 -6 16 -9 16 -16 4 -8 -12 -10 -10 -10 8 0 29 20 24 37 -9 l13 -24 0 24
c0 21 -24 50 -42 51 -4 0 -10 -10 -14 -22z"/>
<path d="M0 2430 c0 -11 4 -20 9 -20 5 0 7 9 4 20 -3 11 -7 20 -9 20 -2 0 -4
-9 -4 -20z"/>
<path d="M2585 2440 c-3 -5 1 -10 9 -10 9 0 16 5 16 10 0 6 -4 10 -9 10 -6 0
-13 -4 -16 -10z"/>
<path d="M3467 2414 c-9 -13 -24 -21 -31 -18 -8 3 -17 0 -21 -6 -12 -19 3 -23
37 -9 24 10 33 10 36 1 2 -7 11 -12 20 -12 12 0 13 3 4 12 -7 7 -12 20 -12 29
0 28 -13 29 -33 3z"/>
<path d="M3317 2411 c-6 -23 7 -46 21 -38 11 7 4 57 -8 57 -4 0 -10 -9 -13
-19z"/>
<path d="M2571 2404 c0 -11 3 -14 6 -6 3 7 2 16 -1 19 -3 4 -6 -2 -5 -13z"/>
<path d="M2520 2404 c0 -14 36 -33 63 -34 21 0 27 5 27 22 0 20 -1 20 -18 5
-23 -21 -42 -22 -42 -2 0 8 -7 15 -15 15 -8 0 -15 -3 -15 -6z"/>
<path d="M3386 2393 c-6 -14 -5 -15 5 -6 7 7 10 15 7 18 -3 3 -9 -2 -12 -12z"/>
<path d="M3532 2390 c0 -14 2 -19 5 -12 2 6 2 18 0 25 -3 6 -5 1 -5 -13z"/>
<path d="M1500 2370 c0 -5 5 -10 11 -10 5 0 7 5 4 10 -3 6 -8 10 -11 10 -2 0
-4 -4 -4 -10z"/>
<path d="M7 2213 c-4 -3 -7 -74 -7 -156 l0 -149 35 31 c40 35 51 37 79 16 24
-18 63 -19 96 -1 23 13 24 17 22 107 -4 127 -6 131 -50 128 -93 -5 -152 1
-152 16 0 16 -12 20 -23 8z"/>
<path d="M3414 2192 c-7 -5 -6 -15 3 -32 7 -14 13 -20 13 -13 0 11 67 30 74
22 2 -2 7 -14 10 -26 5 -17 3 -23 -7 -23 -8 0 -20 -7 -27 -15 -12 -14 -15 -14
-32 2 -31 28 -47 1 -41 -74 5 -62 6 -63 42 -73 20 -5 48 -10 64 -10 24 0 27 3
27 35 0 19 -4 35 -10 35 -5 0 -10 9 -10 20 0 10 -8 24 -17 29 -10 6 -12 11 -6
11 18 0 43 53 43 90 0 30 0 30 -57 30 -32 0 -63 -4 -69 -8z m57 -135 c-10 -9
-11 -8 -5 6 3 10 9 15 12 12 3 -3 0 -11 -7 -18z"/>
<path d="M1823 2100 c0 -41 2 -58 4 -37 2 20 2 54 0 75 -2 20 -4 3 -4 -38z"/>
<path d="M1302 1970 c0 -14 2 -19 5 -12 2 6 2 18 0 25 -3 6 -5 1 -5 -13z"/>
<path d="M3188 1948 c-15 -26 -18 -211 -5 -295 8 -53 8 -53 -20 -54 -23 -1
-21 -3 12 -10 22 -6 51 -11 65 -13 55 -7 198 -57 242 -85 29 -19 45 -24 41
-15 -8 22 -110 71 -188 90 -85 21 -112 45 -131 114 -18 65 -21 239 -4 269 15
28 4 27 -12 -1z"/>
<path d="M1312 1840 c0 -14 2 -19 5 -12 2 6 2 18 0 25 -3 6 -5 1 -5 -13z"/>
<path d="M1312 1775 c0 -16 2 -22 5 -12 2 9 2 23 0 30 -3 6 -5 -1 -5 -18z"/>
<path d="M0 1765 c0 -16 6 -25 15 -25 9 0 15 9 15 25 0 16 -6 25 -15 25 -9 0
-15 -9 -15 -25z"/>
<path d="M1310 1690 c-7 -19 -16 -39 -18 -44 -3 -5 5 0 17 11 14 13 21 30 19
45 -3 21 -5 20 -18 -12z"/>
<path d="M1800 1616 c0 -9 5 -16 10 -16 6 0 10 4 10 9 0 6 -4 13 -10 16 -5 3
-10 -1 -10 -9z"/>
<path d="M1802 1570 c0 -14 2 -19 5 -12 2 6 2 18 0 25 -3 6 -5 1 -5 -13z"/>
<path d="M2278 1583 c7 -3 16 -2 19 1 4 3 -2 6 -13 5 -11 0 -14 -3 -6 -6z"/>
<path d="M0 1470 c0 -5 5 -10 10 -10 6 0 10 5 10 10 0 6 -4 10 -10 10 -5 0
-10 -4 -10 -10z"/>
<path d="M454 1375 c-48 -33 -90 -55 -106 -55 -17 0 -28 -5 -28 -14 0 -8 -16
-16 -42 -20 -55 -9 -107 -48 -90 -69 9 -11 -1 -23 -53 -63 -36 -27 -64 -53
-62 -59 5 -13 3305 -19 3404 -6 59 7 43 9 -117 12 -102 1 -196 2 -210 2 -86
-4 -2171 -1 -2330 3 -107 2 -199 9 -204 14 -6 6 -5 14 1 22 15 19 9 168 -8
179 -26 16 -39 -10 -33 -67 4 -32 3 -54 -3 -54 -5 0 -27 -16 -49 -35 -32 -29
-36 -37 -24 -45 12 -8 11 -10 -7 -10 -13 0 -28 9 -35 20 -7 11 -16 20 -20 20
-13 0 -9 -28 5 -33 6 -3 -1 -6 -18 -6 -16 0 -25 3 -20 7 6 4 20 28 33 54 23
46 37 58 73 58 10 0 19 4 19 8 0 15 -24 32 -46 32 -15 0 -28 10 -37 30 l-15
30 56 50 c31 27 54 50 51 50 -3 0 -41 -25 -85 -55z m-93 -135 c2 -24 3 -28 17
-63 14 -34 16 -67 3 -67 -5 0 -13 9 -16 20 -7 21 -30 27 -40 10 -3 -5 3 -10
14 -10 12 0 21 -4 21 -10 0 -6 -44 -10 -111 -10 l-111 0 29 24 c15 13 43 27
61 30 18 4 32 14 32 22 0 8 5 14 10 14 9 0 11 -7 14 -52 2 -28 14 -30 14 -2 0
16 8 35 21 45 12 10 21 21 20 26 -1 4 -1 16 0 26 1 24 21 22 22 -3z m24 0 c3
-5 1 -10 -4 -10 -6 0 -11 5 -11 10 0 6 2 10 4 10 3 0 8 -4 11 -10z m49 -38 c7
-11 -6 -27 -26 -35 -21 -7 -24 13 -6 31 14 14 25 15 32 4z"/>
<path d="M2638 1332 c-12 -32 -32 -47 -49 -36 -5 3 -6 10 -3 16 4 6 9 5 15 -3
6 -10 10 -7 17 11 8 21 6 26 -11 28 -11 2 -35 1 -54 -3 -32 -6 -34 -8 -28 -37
6 -27 5 -30 -10 -24 -12 4 -18 0 -22 -14 -6 -22 -18 -26 -29 -9 -5 8 -8 8 -13
0 -4 -6 -12 3 -18 19 -9 24 -8 33 3 44 8 8 14 17 14 20 0 2 -29 4 -64 4 -59
-1 -65 -4 -71 -25 -3 -13 -10 -23 -15 -23 -6 0 -8 11 -4 25 6 23 5 24 -37 19
-24 -3 -44 -6 -44 -7 -1 -1 1 -30 3 -64 l4 -63 35 0 c35 0 36 0 18 20 -16 17
-16 20 -2 20 9 0 22 -8 29 -19 11 -16 26 -18 110 -17 89 1 99 3 113 24 9 12
23 22 32 22 15 0 15 2 0 18 -14 15 -15 21 -4 36 12 16 15 14 29 -30 14 -45 16
-47 27 -26 13 25 41 30 41 8 0 -8 -7 -22 -16 -30 -14 -15 -14 -16 5 -16 17 0
21 7 22 38 1 23 3 28 6 15 2 -13 8 -23 12 -23 11 0 1 49 -11 56 -6 4 -14 0
-19 -7 -6 -10 -9 -8 -9 9 0 27 11 28 35 2 11 -12 25 -18 36 -15 21 7 35 -11
14 -19 -9 -3 -12 -12 -8 -22 5 -13 3 -15 -7 -9 -9 5 -11 4 -6 -4 4 -6 12 -9
17 -6 5 4 9 1 9 -5 0 -7 32 -10 96 -9 86 2 97 4 102 21 2 11 10 17 17 14 8 -3
15 6 19 22 3 15 8 36 11 48 4 13 2 21 -7 21 -7 0 -21 4 -30 8 -14 6 -18 2 -18
-18 0 -14 -4 -29 -10 -32 -5 -3 -10 -15 -10 -25 0 -10 -5 -22 -10 -25 -15 -9
-42 15 -36 32 8 19 -34 73 -56 73 -10 0 -25 -8 -34 -19 -13 -15 -23 -17 -50
-11 -19 5 -41 14 -50 20 -12 11 -17 8 -26 -18z m162 -44 c0 -10 -5 -18 -10
-18 -15 0 -23 27 -16 47 6 15 8 15 16 3 6 -8 10 -23 10 -32z m-440 -19 c0 -14
-7 -19 -25 -19 -27 0 -35 26 -13 48 15 15 38 -3 38 -29z m480 21 c0 -5 -2 -10
-4 -10 -3 0 -8 5 -11 10 -3 6 -1 10 4 10 6 0 11 -4 11 -10z m-60 -30 c0 -5 -4
-10 -10 -10 -5 0 -10 5 -10 10 0 6 5 10 10 10 6 0 10 -4 10 -10z m70 -20 c0
-5 -4 -10 -10 -10 -5 0 -10 5 -10 10 0 6 5 10 10 10 6 0 10 -4 10 -10z"/>
<path d="M3320 1330 c0 -16 5 -30 10 -30 6 0 10 14 10 30 0 17 -4 30 -10 30
-5 0 -10 -13 -10 -30z"/>
<path d="M2996 1321 c-15 -28 -15 -29 14 -33 33 -5 38 3 15 22 -12 10 -13 16
-4 26 8 10 8 14 0 14 -6 0 -17 -13 -25 -29z"/>
<path d="M3080 1340 c0 -5 16 -10 35 -10 19 0 35 5 35 10 0 6 -16 10 -35 10
-19 0 -35 -4 -35 -10z"/>
<path d="M3265 1340 c3 -5 8 -10 11 -10 2 0 4 5 4 10 0 6 -5 10 -11 10 -5 0
-7 -4 -4 -10z"/>
<path d="M1455 1327 c-80 -8 -104 -15 -59 -16 25 -1 30 -5 29 -23 -3 -38 -39
-35 -64 5 -20 34 -21 34 -88 32 -82 -3 -78 -2 -63 -20 19 -23 3 -18 -19 6 -19
21 -25 21 -273 17 -139 -2 -259 -7 -266 -11 -7 -5 -12 -29 -12 -55 0 -42 3
-48 23 -50 18 -1 597 -2 1220 -2 117 0 145 14 43 22 -35 3 -82 14 -103 24 -34
17 -38 22 -35 52 l3 33 -133 -3 c-73 -2 -164 -6 -203 -11z m-185 -37 c0 -5 -2
-10 -4 -10 -3 0 -8 5 -11 10 -3 6 -1 10 4 10 6 0 11 -4 11 -10z m459 -10 c14
0 17 -6 13 -25 -3 -20 -7 -23 -18 -14 -11 9 -14 8 -15 -2 0 -8 -5 -3 -10 10
-5 14 -7 32 -3 40 4 12 8 12 11 4 3 -7 13 -13 22 -13z m-109 -30 c0 -23 -37
-33 -45 -13 -7 20 12 43 31 36 8 -3 14 -13 14 -23z m-306 5 c3 -8 1 -15 -4
-15 -6 0 -10 7 -10 15 0 8 2 15 4 15 2 0 6 -7 10 -15z"/>
<path d="M1 1208 c0 -65 1 -118 3 -118 17 0 36 15 36 27 0 8 10 24 22 34 l23
20 -23 -11 c-13 -7 -25 -10 -28 -8 -2 2 -10 42 -17 88 l-15 85 -1 -117z"/>
<path d="M100 1290 c0 -5 5 -10 10 -10 6 0 10 5 10 10 0 6 -4 10 -10 10 -5 0
-10 -4 -10 -10z"/>
<path d="M198 1283 c7 -3 16 -2 19 1 4 3 -2 6 -13 5 -11 0 -14 -3 -6 -6z"/>
<path d="M545 1259 c-4 -6 -5 -12 -2 -15 2 -3 7 2 10 11 7 17 1 20 -8 4z"/>
<path d="M641 1184 c0 -11 3 -14 6 -6 3 7 2 16 -1 19 -3 4 -6 -2 -5 -13z"/>
<path d="M0 1041 c0 -19 8 -20 123 -23 67 -2 863 -4 1770 -6 1541 -3 1647 -2
1647 14 0 15 -37 16 -552 8 -304 -5 -688 -8 -853 -7 -476 2 -659 3 -675 1 -59
-5 -352 5 -335 12 14 6 4 8 -35 8 -47 0 -50 -2 -25 -8 21 -6 5 -8 -55 -7 -47
0 -88 5 -92 11 -4 7 -15 5 -32 -3 -13 -8 -33 -11 -42 -7 -10 4 -149 9 -308 11
-160 3 -346 7 -413 10 -118 6 -123 5 -123 -14z"/>
<path d="M0 933 c0 -46 1 -49 35 -59 30 -10 33 -9 23 4 -7 8 -21 18 -33 23
-16 8 -13 8 12 5 17 -3 33 -1 35 5 6 18 38 -3 45 -30 7 -24 8 -23 13 14 4 29
9 39 20 36 8 -2 774 -6 1703 -9 l1687 -4 0 28 0 29 -92 -5 c-90 -4 -480 -9
-1148 -13 -388 -2 -1883 11 -2127 19 l-173 5 0 -48z"/>
<path d="M0 824 c0 -8 5 -12 10 -9 6 4 8 11 5 16 -9 14 -15 11 -15 -7z"/>
<path d="M0 755 c0 -31 3 -37 11 -25 8 12 9 9 4 -10 -13 -45 -18 -106 -8 -95
11 11 33 84 33 108 0 8 -9 25 -20 38 l-19 24 -1 -40z"/>
<path d="M150 710 c0 -19 23 -59 31 -54 5 3 9 18 9 35 0 22 -5 29 -20 29 -11
0 -20 -4 -20 -10z"/>
<path d="M576 619 c-11 -179 -31 -232 -90 -243 -20 -4 -40 -15 -46 -26 -10
-18 -20 -20 -98 -18 l-87 3 -3 -72 c-3 -83 -9 -79 96 -67 33 4 52 12 52 20 0
20 73 35 170 35 33 0 58 4 57 7 -1 4 3 8 8 9 6 2 10 -4 10 -11 0 -21 7 -25 48
-31 23 -4 37 -2 37 4 0 12 -60 45 -60 34 0 -5 -5 0 -11 10 -5 9 -16 17 -24 17
-22 0 -29 45 -16 93 25 87 29 115 36 225 l7 112 -40 0 -39 0 -7 -101z m15
-315 l-9 -39 -1 41 c-1 22 2 44 6 48 12 12 14 -8 4 -50z"/>
<path d="M898 713 c28 -2 76 -2 105 0 28 2 5 3 -53 3 -58 0 -81 -1 -52 -3z"/>
<path d="M3117 713 c-8 -14 12 -147 39 -255 14 -59 24 -114 21 -122 -4 -9 -29
-17 -71 -21 -115 -13 -77 -24 149 -44 55 -5 101 -8 102 -7 4 4 -17 70 -26 85
-8 12 -12 12 -25 2 -9 -7 -13 -17 -10 -22 3 -5 -2 -9 -10 -9 -9 0 -16 8 -17
18 0 14 -2 14 -9 -3 l-9 -20 -1 20 c-2 11 -2 24 -1 29 1 4 -5 29 -13 55 -8 25
-18 103 -22 174 l-7 127 -43 0 c-23 0 -45 -3 -47 -7z"/>
<path d="M97 617 c-4 -10 -7 -26 -7 -35 1 -15 2 -15 11 1 6 10 9 25 7 35 -3
16 -4 15 -11 -1z"/>
<path d="M66 612 c-4 -7 -12 -10 -18 -6 -5 3 -2 -8 7 -26 9 -17 15 -36 13 -42
-3 -7 -13 6 -24 27 -39 74 -44 59 -43 -130 0 -159 1 -177 19 -195 13 -13 20
-15 24 -7 2 7 5 5 5 -5 1 -9 7 -18 14 -20 8 -3 13 -36 15 -106 l4 -102 39 0
c39 0 40 0 37 36 -1 20 -8 38 -15 41 -7 3 -13 11 -13 19 0 8 -4 14 -9 14 -5 0
-11 8 -14 17 -2 10 -8 27 -12 38 -3 11 1 8 10 -7 19 -35 28 -35 49 -3 9 14 21
23 27 20 19 -12 22 26 3 40 -19 14 -19 14 0 15 19 0 19 0 0 21 -18 20 -18 21
-1 34 15 11 16 15 4 26 -7 8 -21 44 -31 82 -10 37 -22 67 -27 67 -5 0 -9 7 -9
15 0 8 5 15 10 15 6 0 10 -7 10 -15 0 -15 31 -21 43 -9 12 12 -30 45 -48 38
-15 -6 -17 -4 -12 15 7 27 -1 53 -14 45 -5 -3 -7 -22 -3 -42 11 -63 -5 -29
-19 39 -8 38 -16 59 -21 51z m24 -127 c0 -5 -5 -3 -10 5 -5 8 -10 20 -10 25 0
6 5 3 10 -5 5 -8 10 -19 10 -25z m-60 -31 c0 -8 -4 -12 -10 -9 -5 3 -10 13
-10 21 0 8 5 12 10 9 6 -3 10 -13 10 -21z m7 -56 c-3 -8 -6 -5 -6 6 -1 11 2
17 5 13 3 -3 4 -12 1 -19z m52 -130 c-9 -16 -14 -19 -17 -9 -2 7 2 17 9 22 20
13 21 11 8 -13z m61 -233 c0 -5 -5 -3 -10 5 -5 8 -10 20 -10 25 0 6 5 3 10 -5
5 -8 10 -19 10 -25z"/>
<path d="M150 550 c0 -5 5 -10 10 -10 6 0 10 5 10 10 0 6 -4 10 -10 10 -5 0
-10 -4 -10 -10z"/>
<path d="M175 370 c4 -6 11 -8 16 -5 14 9 11 15 -7 15 -8 0 -12 -5 -9 -10z"/>
<path d="M741 234 c0 -11 3 -14 6 -6 3 7 2 16 -1 19 -3 4 -6 -2 -5 -13z"/>
</g>
</svg>
